<?xml version="1.0" encoding="utf-8"?>
<!-- Generator: Adobe Illustrator 23.1.1, SVG Export Plug-In . SVG Version: 6.00 Build 0)  -->
<svg version="1.1" id="Layer_1" xmlns="http://www.w3.org/2000/svg" xmlns:xlink="http://www.w3.org/1999/xlink" x="0px" y="0px"
	 viewBox="0 0 16 16" style="enable-background:new 0 0 16 16;" xml:space="preserve">
<style type="text/css">
	.st0{opacity:0.44;}
	.st1{fill:#A321AD;}
	.st2{fill:none;stroke:#000000;stroke-width:0.025;stroke-miterlimit:10;}
	.st3{fill:none;}
	.st4{font-family:'PTSans-Regular';}
	.st5{font-size:0.4936px;}
	.st6{fill:#EDA93B;}
	.st7{fill:#2C35DD;}
</style>
<g class="st0">
	<g>
		<path class="st1" d="M1.33,0.18c-0.27,0.05-0.51,0.29-0.7,0.47C0.42,0.85,0.2,1.07,0.11,1.34C0.06,1.47,0.23,1.55,0.32,1.47
			c0.44-0.39,0.89-0.88,1.44-1.11C1.71,0.34,1.66,0.32,1.61,0.3c0.01,0.03-0.29,0.37-0.32,0.41C1.17,0.86,1.04,1,0.9,1.14
			c0.07,0.05,0.14,0.1,0.2,0.16c0.12-0.19,0.32-0.52,0.55-0.61c-0.07-0.04-0.13-0.08-0.2-0.11C1.43,0.77,1.26,1,1.16,1.17
			c-0.1,0.18-0.2,0.35-0.29,0.54c-0.06,0.13,0.09,0.27,0.2,0.16C1.2,1.74,1.31,1.61,1.43,1.48c0.04-0.04,0.18-0.19,0.22-0.19
			C1.72,1.3,1.63,1.66,1.62,1.71C1.58,1.87,1.83,1.94,1.87,1.78c0.05-0.19,0.2-0.79-0.15-0.79c-0.31,0-0.63,0.5-0.82,0.69
			c0.07,0.05,0.14,0.1,0.2,0.16c0.19-0.4,0.57-0.81,0.62-1.26c0.01-0.11-0.12-0.15-0.2-0.11C1.25,0.58,1.03,0.93,0.88,1.17
			c-0.08,0.13,0.1,0.26,0.2,0.16C1.3,1.1,1.51,0.86,1.7,0.61c0.1-0.14,0.22-0.28,0.14-0.45C1.82,0.12,1.74,0.08,1.69,0.1
			c-0.6,0.25-1.08,0.75-1.55,1.18c0.07,0.04,0.15,0.09,0.22,0.13C0.44,1.18,0.64,1,0.81,0.84c0.16-0.15,0.36-0.36,0.59-0.4
			C1.57,0.41,1.5,0.16,1.33,0.18L1.33,0.18z"/>
	</g>
</g>
<g>
	<g>
		<path class="st2" d="M0.32,0.93c0,0,0.25-0.64,0.38-0.71s0.33-0.06,0.41-0.02c0,0,0.04,0.04,0.19-0.02
			C1.47,0.11,1.53,0.23,1.6,0.32c0.09,0.11,0.18,0.55,0.18,0.7s-0.13,0.42-0.3,0.65S1.1,1.88,1.1,1.88S0.79,1.86,0.65,1.72
			S0.33,1.03,0.32,0.93z"/>
		<path class="st2" d="M0.42,0.93c0,0,0.22-0.42,0.68-0.5c0,0,0.39-0.02,0.66,0.55c0,0-0.28,0.46-0.53,0.56c0,0-0.25,0.09-0.46-0.04
			C0.77,1.49,0.48,1.2,0.42,0.93z"/>
	</g>
	<path class="st2" d="M1.09,1.44c0,0-0.22-0.04-0.28,0C0.79,1.46,0.75,1.49,0.77,1.5s0.17,0.1,0.32,0.07
		C1.09,1.57,1.09,1.44,1.09,1.44z"/>
	<path class="st2" d="M1.11,1.42l0.28,0.02c0,0-0.15,0.13-0.28,0.12C1.09,1.57,1.11,1.42,1.11,1.42z"/>
	<path class="st2" d="M0.79,0.58c0,0,0.14,0.02,0.13-0.04c0-0.03,0-0.06-0.05-0.04c-0.05,0.03-0.1,0.06-0.1,0.06
		S0.76,0.59,0.79,0.58z"/>
	<path class="st2" d="M1.12,0.45c0,0,0.04,0.09-0.06,0.11c0,0-0.1,0.02-0.14,0c0,0,0.01-0.08,0.01-0.08
		c0.02-0.01,0.17-0.04,0.17-0.04L1.12,0.45z"/>
	<path class="st2" d="M1.31,0.52c0,0,0.03,0.06-0.11,0.05C1.07,0.55,1.12,0.52,1.12,0.5c0-0.02-0.02-0.06,0.03-0.06
		C1.21,0.43,1.29,0.48,1.31,0.52z"/>
	<path class="st2" d="M1.44,0.6c0,0-0.17,0.02-0.12-0.11c0,0,0.13,0.08,0.15,0.1C1.49,0.6,1.44,0.6,1.44,0.6z"/>
</g>
<rect x="0.68" y="0.9" class="st3" width="0.95" height="0.45"/>
<text transform="matrix(1 0 0 1 0.551 1.1221)" class="st4 st5">LAJA</text>
<g>
	<g>
		<path class="st6" d="M8.11,0.28C7.84,0.32,7.6,0.56,7.41,0.75C7.2,0.94,6.99,1.16,6.89,1.43C6.84,1.56,7.02,1.64,7.11,1.56
			c0.44-0.39,0.89-0.88,1.44-1.11C8.49,0.43,8.44,0.41,8.4,0.39C8.41,0.42,8.11,0.76,8.08,0.8c-0.12,0.15-0.26,0.3-0.39,0.44
			c0.07,0.05,0.14,0.1,0.2,0.16C8.01,1.2,8.21,0.88,8.43,0.78C8.37,0.74,8.3,0.7,8.24,0.67c-0.02,0.2-0.19,0.42-0.29,0.59
			c-0.1,0.18-0.2,0.35-0.29,0.54c-0.06,0.13,0.09,0.27,0.2,0.16C7.98,1.83,8.09,1.7,8.21,1.57c0.04-0.04,0.18-0.19,0.22-0.19
			C8.5,1.39,8.41,1.76,8.4,1.8C8.36,1.96,8.61,2.03,8.65,1.87C8.7,1.68,8.85,1.08,8.5,1.07c-0.31,0-0.63,0.5-0.82,0.69
			c0.07,0.05,0.14,0.1,0.2,0.16c0.19-0.4,0.57-0.81,0.62-1.26c0.01-0.11-0.12-0.15-0.2-0.11C8.04,0.67,7.81,1.02,7.66,1.26
			c-0.08,0.13,0.1,0.26,0.2,0.16C8.09,1.19,8.29,0.95,8.48,0.7c0.1-0.14,0.22-0.28,0.14-0.45C8.6,0.21,8.52,0.17,8.47,0.19
			C7.87,0.44,7.4,0.95,6.92,1.37C7,1.41,7.07,1.46,7.14,1.5C7.22,1.28,7.43,1.09,7.6,0.93c0.16-0.15,0.36-0.36,0.59-0.4
			C8.35,0.5,8.28,0.25,8.11,0.28L8.11,0.28z"/>
	</g>
</g>
<g>
	<g>
		<path class="st2" d="M7.11,1.02c0,0,0.25-0.64,0.38-0.71C7.63,0.23,7.82,0.25,7.9,0.28c0,0,0.04,0.04,0.19-0.02
			C8.25,0.2,8.31,0.32,8.38,0.41c0.09,0.11,0.18,0.55,0.18,0.7s-0.13,0.42-0.3,0.65S7.88,1.97,7.88,1.97S7.57,1.95,7.43,1.81
			C7.29,1.67,7.11,1.12,7.11,1.02z"/>
		<path class="st2" d="M7.2,1.02c0,0,0.22-0.42,0.68-0.5c0,0,0.39-0.02,0.66,0.55c0,0-0.28,0.46-0.53,0.56c0,0-0.25,0.09-0.46-0.04
			C7.55,1.58,7.26,1.29,7.2,1.02z"/>
	</g>
	<path class="st2" d="M7.87,1.53c0,0-0.22-0.04-0.28,0C7.57,1.55,7.53,1.58,7.55,1.59c0.02,0.01,0.17,0.1,0.32,0.07
		C7.87,1.66,7.87,1.53,7.87,1.53z"/>
	<path class="st2" d="M7.89,1.51l0.28,0.02c0,0-0.15,0.13-0.28,0.12C7.87,1.66,7.89,1.51,7.89,1.51z"/>
	<path class="st2" d="M7.57,0.67c0,0,0.14,0.02,0.13-0.04c0-0.03,0-0.06-0.05-0.04c-0.05,0.03-0.1,0.06-0.1,0.06
		S7.54,0.68,7.57,0.67z"/>
	<path class="st2" d="M7.9,0.54c0,0,0.04,0.09-0.06,0.11c0,0-0.1,0.02-0.14,0c0,0,0.01-0.08,0.01-0.08
		c0.02-0.01,0.17-0.04,0.17-0.04L7.9,0.54z"/>
	<path class="st2" d="M8.09,0.61c0,0,0.03,0.06-0.11,0.05C7.85,0.64,7.91,0.61,7.91,0.59c0-0.02-0.02-0.06,0.03-0.06
		C7.99,0.52,8.08,0.57,8.09,0.61z"/>
	<path class="st2" d="M8.22,0.69c0,0-0.17,0.02-0.12-0.11c0,0,0.13,0.08,0.15,0.1C8.27,0.69,8.22,0.69,8.22,0.69z"/>
</g>
<rect x="7.46" y="0.99" class="st3" width="0.95" height="0.45"/>
<text transform="matrix(1 0 0 1 7.3337 1.2131)" class="st4 st5">LAJA</text>
<g class="st0">
	<g>
		<path class="st1" d="M6.35,0.26C6.07,0.3,5.83,0.54,5.64,0.73C5.43,0.92,5.22,1.14,5.12,1.41C5.07,1.54,5.25,1.62,5.34,1.54
			c0.44-0.39,0.89-0.88,1.44-1.11c-0.05-0.02-0.1-0.04-0.15-0.06C6.64,0.4,6.34,0.74,6.31,0.78c-0.12,0.15-0.26,0.3-0.39,0.44
			c0.07,0.05,0.14,0.1,0.2,0.16c0.12-0.19,0.32-0.52,0.55-0.61C6.6,0.72,6.53,0.68,6.47,0.65c-0.02,0.2-0.19,0.42-0.29,0.59
			c-0.1,0.18-0.2,0.35-0.29,0.54C5.82,1.9,5.98,2.04,6.09,1.93c0.12-0.12,0.23-0.26,0.35-0.38c0.04-0.04,0.18-0.19,0.22-0.19
			c0.07,0.01-0.02,0.37-0.03,0.42C6.59,1.94,6.84,2.01,6.88,1.85c0.05-0.19,0.2-0.79-0.15-0.79c-0.31,0-0.63,0.5-0.82,0.69
			c0.07,0.05,0.14,0.1,0.2,0.16c0.19-0.4,0.57-0.81,0.62-1.26c0.01-0.11-0.12-0.15-0.2-0.11C6.27,0.65,6.04,1,5.89,1.24
			C5.81,1.36,5.99,1.5,6.1,1.4c0.22-0.22,0.42-0.46,0.61-0.71c0.1-0.14,0.22-0.28,0.14-0.45c-0.02-0.05-0.1-0.08-0.15-0.06
			C6.1,0.42,5.63,0.93,5.15,1.35C5.23,1.39,5.3,1.44,5.37,1.48c0.08-0.22,0.29-0.41,0.46-0.57c0.16-0.15,0.36-0.36,0.59-0.4
			C6.58,0.48,6.51,0.23,6.35,0.26L6.35,0.26z"/>
	</g>
</g>
<g>
	<g>
		<path class="st2" d="M5.34,1c0,0,0.25-0.64,0.38-0.71s0.33-0.06,0.41-0.02c0,0,0.04,0.04,0.19-0.02C6.48,0.18,6.54,0.3,6.62,0.39
			C6.71,0.5,6.8,0.94,6.8,1.09s-0.13,0.42-0.3,0.65S6.11,1.95,6.11,1.95S5.8,1.93,5.66,1.79C5.52,1.65,5.34,1.1,5.34,1z"/>
		<path class="st2" d="M5.43,1c0,0,0.22-0.42,0.68-0.5c0,0,0.39-0.02,0.66,0.55c0,0-0.28,0.46-0.53,0.56c0,0-0.25,0.09-0.46-0.04
			C5.78,1.56,5.49,1.27,5.43,1z"/>
	</g>
	<path class="st2" d="M6.1,1.51c0,0-0.22-0.04-0.28,0C5.8,1.53,5.76,1.56,5.78,1.57s0.17,0.1,0.32,0.07C6.1,1.64,6.1,1.51,6.1,1.51z
		"/>
	<path class="st2" d="M6.12,1.49l0.28,0.02c0,0-0.15,0.13-0.28,0.12C6.1,1.64,6.12,1.49,6.12,1.49z"/>
	<path class="st2" d="M5.8,0.65c0,0,0.14,0.02,0.13-0.04c0-0.03,0-0.06-0.05-0.04c-0.05,0.03-0.1,0.06-0.1,0.06S5.77,0.66,5.8,0.65z
		"/>
	<path class="st2" d="M6.13,0.52c0,0,0.04,0.09-0.06,0.11c0,0-0.1,0.02-0.14,0c0,0,0.01-0.08,0.01-0.08
		c0.02-0.01,0.17-0.04,0.17-0.04L6.13,0.52z"/>
	<path class="st2" d="M6.33,0.59c0,0,0.03,0.06-0.11,0.05C6.08,0.62,6.14,0.59,6.14,0.57c0-0.02-0.02-0.06,0.03-0.06
		C6.22,0.5,6.31,0.55,6.33,0.59z"/>
	<path class="st2" d="M6.45,0.67c0,0-0.17,0.02-0.12-0.11c0,0,0.13,0.08,0.15,0.1C6.5,0.67,6.45,0.67,6.45,0.67z"/>
</g>
<rect x="5.69" y="0.97" class="st3" width="0.95" height="0.45"/>
<text transform="matrix(1 0 0 1 5.5643 1.1926)" class="st4 st5">LAJA</text>
<g class="st0">
	<g>
		<path class="st7" d="M4.69,0.26C4.42,0.3,4.18,0.54,3.98,0.73C3.78,0.92,3.56,1.14,3.46,1.41C3.42,1.54,3.59,1.62,3.68,1.54
			c0.44-0.39,0.89-0.88,1.44-1.11c-0.05-0.02-0.1-0.04-0.15-0.06C4.98,0.4,4.68,0.74,4.65,0.78c-0.12,0.15-0.26,0.3-0.39,0.44
			c0.07,0.05,0.14,0.1,0.2,0.16c0.12-0.19,0.32-0.52,0.55-0.61c-0.07-0.04-0.13-0.08-0.2-0.11c-0.02,0.2-0.19,0.42-0.29,0.59
			c-0.1,0.18-0.2,0.35-0.29,0.54C4.17,1.9,4.32,2.04,4.43,1.93c0.12-0.12,0.23-0.26,0.35-0.38c0.04-0.04,0.18-0.19,0.22-0.19
			c0.07,0.01-0.02,0.37-0.03,0.42C4.93,1.94,5.19,2.01,5.23,1.85c0.05-0.19,0.2-0.79-0.15-0.79c-0.31,0-0.63,0.5-0.82,0.69
			c0.07,0.05,0.14,0.1,0.2,0.16c0.19-0.4,0.57-0.81,0.62-1.26c0.01-0.11-0.12-0.15-0.2-0.11C4.61,0.65,4.39,1,4.23,1.24
			C4.15,1.36,4.34,1.5,4.44,1.4c0.22-0.22,0.42-0.46,0.61-0.71c0.1-0.14,0.22-0.28,0.14-0.45C5.17,0.19,5.1,0.15,5.05,0.17
			C4.45,0.42,3.97,0.93,3.5,1.35c0.07,0.04,0.15,0.09,0.22,0.13C3.8,1.25,4,1.07,4.17,0.91c0.16-0.15,0.36-0.36,0.59-0.4
			C4.92,0.48,4.85,0.23,4.69,0.26L4.69,0.26z"/>
	</g>
</g>
<g>
	<g>
		<path class="st2" d="M3.68,1c0,0,0.25-0.64,0.38-0.71C4.2,0.21,4.4,0.23,4.48,0.26c0,0,0.04,0.04,0.19-0.02
			C4.82,0.18,4.88,0.3,4.96,0.39c0.09,0.11,0.18,0.55,0.18,0.7s-0.13,0.42-0.3,0.65S4.46,1.95,4.46,1.95S4.15,1.93,4.01,1.79
			C3.86,1.65,3.69,1.1,3.68,1z"/>
		<path class="st2" d="M3.77,1c0,0,0.22-0.42,0.68-0.5c0,0,0.39-0.02,0.66,0.55c0,0-0.28,0.46-0.53,0.56c0,0-0.25,0.09-0.46-0.04
			C4.13,1.56,3.84,1.27,3.77,1z"/>
	</g>
	<path class="st2" d="M4.44,1.51c0,0-0.22-0.04-0.28,0C4.14,1.53,4.1,1.56,4.13,1.57c0.02,0.01,0.17,0.1,0.32,0.07
		C4.45,1.64,4.44,1.51,4.44,1.51z"/>
	<path class="st2" d="M4.46,1.49l0.28,0.02c0,0-0.15,0.13-0.28,0.12C4.44,1.64,4.46,1.49,4.46,1.49z"/>
	<path class="st2" d="M4.14,0.65c0,0,0.14,0.02,0.13-0.04c0-0.03,0-0.06-0.05-0.04c-0.05,0.03-0.1,0.06-0.1,0.06
		S4.11,0.66,4.14,0.65z"/>
	<path class="st2" d="M4.47,0.52c0,0,0.04,0.09-0.06,0.11c0,0-0.1,0.02-0.14,0c0,0,0.01-0.08,0.01-0.08
		C4.3,0.54,4.45,0.51,4.45,0.51L4.47,0.52z"/>
	<path class="st2" d="M4.67,0.59c0,0,0.03,0.06-0.11,0.05C4.43,0.62,4.48,0.59,4.48,0.57c0-0.02-0.02-0.06,0.03-0.06
		C4.56,0.5,4.65,0.55,4.67,0.59z"/>
	<path class="st2" d="M4.79,0.67c0,0-0.17,0.02-0.12-0.11c0,0,0.13,0.08,0.15,0.1C4.84,0.67,4.79,0.67,4.79,0.67z"/>
</g>
<rect x="4.03" y="0.97" class="st3" width="0.95" height="0.45"/>
<text transform="matrix(1 0 0 1 3.9079 1.1926)" class="st4 st5">LAJA</text>
<g>
	<g>
		<path class="st6" d="M3.04,0.24c-0.27,0.05-0.51,0.29-0.7,0.47C2.13,0.9,1.91,1.12,1.81,1.39C1.76,1.52,1.94,1.6,2.03,1.52
			c0.44-0.39,0.89-0.88,1.44-1.11c-0.05-0.02-0.1-0.04-0.15-0.06C3.33,0.38,3.03,0.72,3,0.76C2.87,0.91,2.74,1.05,2.6,1.19
			c0.07,0.05,0.14,0.1,0.2,0.16c0.12-0.19,0.32-0.52,0.55-0.61C3.29,0.7,3.23,0.66,3.16,0.63c-0.02,0.2-0.19,0.42-0.29,0.59
			c-0.1,0.18-0.2,0.35-0.29,0.54c-0.06,0.13,0.09,0.27,0.2,0.16c0.12-0.12,0.23-0.26,0.35-0.38c0.04-0.04,0.18-0.19,0.22-0.19
			c0.07,0.01-0.02,0.37-0.03,0.42C3.28,1.92,3.54,1.99,3.58,1.83c0.05-0.19,0.2-0.79-0.15-0.79c-0.31,0-0.63,0.5-0.82,0.69
			c0.07,0.05,0.14,0.1,0.2,0.16c0.19-0.4,0.57-0.81,0.62-1.26c0.01-0.11-0.12-0.15-0.2-0.11C2.96,0.63,2.73,0.98,2.58,1.22
			c-0.08,0.13,0.1,0.26,0.2,0.16C3.01,1.15,3.21,0.92,3.4,0.66c0.1-0.14,0.22-0.28,0.14-0.45C3.52,0.17,3.45,0.14,3.4,0.16
			C2.8,0.4,2.32,0.91,1.85,1.33c0.07,0.04,0.15,0.09,0.22,0.13c0.08-0.22,0.29-0.41,0.46-0.57c0.16-0.15,0.36-0.36,0.59-0.4
			C3.27,0.46,3.2,0.21,3.04,0.24L3.04,0.24z"/>
	</g>
</g>
<g>
	<g>
		<path class="st2" d="M2.03,0.98c0,0,0.25-0.64,0.38-0.71c0.14-0.08,0.33-0.06,0.41-0.02c0,0,0.04,0.04,0.19-0.02
			c0.15-0.06,0.21,0.06,0.29,0.15c0.09,0.11,0.18,0.55,0.18,0.7s-0.13,0.42-0.3,0.65C3.01,1.96,2.81,1.93,2.81,1.93
			S2.5,1.91,2.35,1.77C2.21,1.63,2.04,1.08,2.03,0.98z"/>
		<path class="st2" d="M2.12,0.98c0,0,0.22-0.42,0.68-0.5c0,0,0.39-0.02,0.66,0.55c0,0-0.28,0.46-0.53,0.56c0,0-0.25,0.09-0.46-0.04
			C2.48,1.55,2.19,1.25,2.12,0.98z"/>
	</g>
	<path class="st2" d="M2.79,1.49c0,0-0.22-0.04-0.28,0C2.49,1.51,2.45,1.54,2.48,1.55c0.02,0.01,0.17,0.1,0.32,0.07
		C2.8,1.62,2.79,1.49,2.79,1.49z"/>
	<path class="st2" d="M2.81,1.47l0.28,0.02c0,0-0.15,0.13-0.28,0.12C2.79,1.62,2.81,1.47,2.81,1.47z"/>
	<path class="st2" d="M2.49,0.63c0,0,0.14,0.02,0.13-0.04c0-0.03,0-0.06-0.05-0.04c-0.05,0.03-0.1,0.06-0.1,0.06
		S2.46,0.65,2.49,0.63z"/>
	<path class="st2" d="M2.82,0.5c0,0,0.04,0.09-0.06,0.11c0,0-0.1,0.02-0.14,0c0,0,0.01-0.08,0.01-0.08C2.65,0.52,2.8,0.49,2.8,0.49
		L2.82,0.5z"/>
	<path class="st2" d="M3.02,0.57c0,0,0.03,0.06-0.11,0.05C2.78,0.6,2.83,0.57,2.83,0.55c0-0.02-0.02-0.06,0.03-0.06
		C2.91,0.48,3,0.53,3.02,0.57z"/>
	<path class="st2" d="M3.14,0.65c0,0-0.17,0.02-0.12-0.11c0,0,0.13,0.08,0.15,0.1C3.19,0.65,3.14,0.65,3.14,0.65z"/>
</g>
<rect x="2.38" y="0.95" class="st3" width="0.95" height="0.45"/>
<text transform="matrix(1 0 0 1 2.2576 1.1739)" class="st4 st5">LAJA</text>
<g class="st0">
	<g>
		<path class="st1" d="M11.53,0.26c-0.27,0.05-0.51,0.29-0.7,0.47c-0.21,0.19-0.42,0.41-0.52,0.68c-0.05,0.13,0.13,0.21,0.22,0.13
			c0.44-0.39,0.89-0.88,1.44-1.11c-0.05-0.02-0.1-0.04-0.15-0.06c0.01,0.03-0.29,0.37-0.32,0.41c-0.12,0.15-0.26,0.3-0.39,0.44
			c0.07,0.05,0.14,0.1,0.2,0.16c0.12-0.19,0.32-0.52,0.55-0.61c-0.07-0.04-0.13-0.08-0.2-0.11c-0.02,0.2-0.19,0.42-0.29,0.59
			c-0.1,0.18-0.2,0.35-0.29,0.54c-0.06,0.13,0.09,0.27,0.2,0.16c0.12-0.12,0.23-0.26,0.35-0.38c0.04-0.04,0.18-0.19,0.22-0.19
			c0.07,0.01-0.02,0.37-0.03,0.42c-0.04,0.16,0.21,0.23,0.25,0.07c0.05-0.19,0.2-0.79-0.15-0.79c-0.31,0-0.63,0.5-0.82,0.69
			c0.07,0.05,0.14,0.1,0.2,0.16c0.19-0.4,0.57-0.81,0.62-1.26c0.01-0.11-0.12-0.15-0.2-0.11C11.46,0.65,11.23,1,11.08,1.24
			C11,1.36,11.18,1.5,11.29,1.4c0.22-0.22,0.42-0.46,0.61-0.71c0.1-0.14,0.22-0.28,0.14-0.45c-0.02-0.05-0.1-0.08-0.15-0.06
			c-0.6,0.25-1.08,0.75-1.55,1.18c0.07,0.04,0.15,0.09,0.22,0.13c0.08-0.22,0.29-0.41,0.46-0.57c0.16-0.15,0.36-0.36,0.59-0.4
			C11.77,0.48,11.7,0.23,11.53,0.26L11.53,0.26z"/>
	</g>
</g>
<g>
	<g>
		<path class="st2" d="M10.53,1c0,0,0.25-0.64,0.38-0.71s0.33-0.06,0.41-0.02c0,0,0.04,0.04,0.19-0.02
			c0.15-0.06,0.21,0.06,0.29,0.15c0.09,0.11,0.18,0.55,0.18,0.7s-0.13,0.42-0.3,0.65S11.3,1.95,11.3,1.95s-0.31-0.02-0.45-0.16
			S10.53,1.1,10.53,1z"/>
		<path class="st2" d="M10.62,1c0,0,0.22-0.42,0.68-0.5c0,0,0.39-0.02,0.66,0.55c0,0-0.28,0.46-0.53,0.56c0,0-0.25,0.09-0.46-0.04
			C10.97,1.56,10.68,1.27,10.62,1z"/>
	</g>
	<path class="st2" d="M11.29,1.51c0,0-0.22-0.04-0.28,0c-0.02,0.02-0.06,0.05-0.04,0.06s0.17,0.1,0.32,0.07
		C11.29,1.64,11.29,1.51,11.29,1.51z"/>
	<path class="st2" d="M11.31,1.49l0.28,0.02c0,0-0.15,0.13-0.28,0.12C11.29,1.64,11.31,1.49,11.31,1.49z"/>
	<path class="st2" d="M10.99,0.65c0,0,0.14,0.02,0.13-0.04c0-0.03,0-0.06-0.05-0.04c-0.05,0.03-0.1,0.06-0.1,0.06
		S10.96,0.66,10.99,0.65z"/>
	<path class="st2" d="M11.32,0.52c0,0,0.04,0.09-0.06,0.11c0,0-0.1,0.02-0.14,0c0,0,0.01-0.08,0.01-0.08
		c0.02-0.01,0.17-0.04,0.17-0.04L11.32,0.52z"/>
	<path class="st2" d="M11.51,0.59c0,0,0.03,0.06-0.11,0.05c-0.13-0.01-0.08-0.04-0.08-0.07c0-0.02-0.02-0.06,0.03-0.06
		C11.41,0.5,11.5,0.55,11.51,0.59z"/>
	<path class="st2" d="M11.64,0.67c0,0-0.17,0.02-0.12-0.11c0,0,0.13,0.08,0.15,0.1C11.69,0.67,11.64,0.67,11.64,0.67z"/>
</g>
<rect x="10.88" y="0.97" class="st3" width="0.95" height="0.45"/>
<text transform="matrix(1 0 0 1 10.7537 1.1926)" class="st4 st5">LAJA</text>
<g class="st0">
	<g>
		<path class="st7" d="M9.9,0.18C9.63,0.23,9.39,0.47,9.2,0.66C8.99,0.85,8.77,1.07,8.68,1.34C8.63,1.47,8.8,1.55,8.89,1.47
			c0.44-0.39,0.89-0.88,1.44-1.11c-0.05-0.02-0.1-0.04-0.15-0.06c0.01,0.03-0.29,0.37-0.32,0.41C9.74,0.86,9.61,1,9.47,1.14
			c0.07,0.05,0.14,0.1,0.2,0.16c0.12-0.19,0.32-0.52,0.55-0.61c-0.07-0.04-0.13-0.08-0.2-0.11C10,0.77,9.83,1,9.73,1.17
			c-0.1,0.18-0.2,0.35-0.29,0.54c-0.06,0.13,0.09,0.27,0.2,0.16C9.77,1.74,9.88,1.6,10,1.48c0.04-0.04,0.18-0.19,0.22-0.19
			c0.07,0.01-0.02,0.37-0.03,0.42c-0.04,0.16,0.21,0.23,0.25,0.07c0.05-0.19,0.2-0.79-0.15-0.79c-0.31,0-0.63,0.5-0.82,0.69
			c0.07,0.05,0.14,0.1,0.2,0.16c0.19-0.4,0.57-0.81,0.62-1.26c0.01-0.11-0.12-0.15-0.2-0.11C9.82,0.58,9.6,0.93,9.45,1.17
			c-0.08,0.13,0.1,0.26,0.2,0.16c0.22-0.22,0.42-0.46,0.61-0.71c0.1-0.14,0.22-0.28,0.14-0.45c-0.02-0.05-0.1-0.08-0.15-0.06
			c-0.6,0.25-1.08,0.75-1.55,1.18c0.07,0.04,0.15,0.09,0.22,0.13C9.01,1.18,9.22,1,9.38,0.84c0.16-0.15,0.36-0.36,0.59-0.4
			C10.14,0.41,10.07,0.16,9.9,0.18L9.9,0.18z"/>
	</g>
</g>
<g>
	<g>
		<path class="st2" d="M8.9,0.93c0,0,0.25-0.64,0.38-0.71s0.33-0.06,0.41-0.02c0,0,0.04,0.04,0.19-0.02
			c0.15-0.06,0.21,0.06,0.29,0.15c0.09,0.11,0.18,0.55,0.18,0.7s-0.13,0.42-0.3,0.65S9.67,1.88,9.67,1.88S9.36,1.86,9.22,1.72
			S8.9,1.03,8.9,0.93z"/>
		<path class="st2" d="M8.99,0.93c0,0,0.22-0.42,0.68-0.5c0,0,0.39-0.02,0.66,0.55c0,0-0.28,0.46-0.53,0.56c0,0-0.25,0.09-0.46-0.04
			C9.34,1.49,9.05,1.19,8.99,0.93z"/>
	</g>
	<path class="st2" d="M9.66,1.44c0,0-0.22-0.04-0.28,0C9.36,1.46,9.32,1.48,9.34,1.5s0.17,0.1,0.32,0.07
		C9.66,1.56,9.66,1.44,9.66,1.44z"/>
	<path class="st2" d="M9.68,1.42l0.28,0.02c0,0-0.15,0.13-0.28,0.12C9.66,1.57,9.68,1.42,9.68,1.42z"/>
	<path class="st2" d="M9.36,0.58c0,0,0.14,0.02,0.13-0.04c0-0.03,0-0.06-0.05-0.04c-0.05,0.03-0.1,0.06-0.1,0.06
		S9.33,0.59,9.36,0.58z"/>
	<path class="st2" d="M9.69,0.45c0,0,0.04,0.09-0.06,0.11c0,0-0.1,0.02-0.14,0c0,0,0.01-0.08,0.01-0.08
		c0.02-0.01,0.17-0.04,0.17-0.04L9.69,0.45z"/>
	<path class="st2" d="M9.88,0.51c0,0,0.03,0.06-0.11,0.05C9.64,0.55,9.7,0.52,9.7,0.5c0-0.02-0.02-0.06,0.03-0.06
		C9.78,0.43,9.87,0.48,9.88,0.51z"/>
	<path class="st2" d="M10.01,0.6c0,0-0.17,0.02-0.12-0.11c0,0,0.13,0.08,0.15,0.1C10.06,0.6,10.01,0.6,10.01,0.6z"/>
</g>
<rect x="9.25" y="0.9" class="st3" width="0.95" height="0.45"/>
<text transform="matrix(1 0 0 1 9.1215 1.1215)" class="st4 st5">LAJA</text>
<g class="st0">
	<g>
		<path class="st7" d="M14.99,0.34c-0.27,0.05-0.51,0.29-0.7,0.47C14.08,1,13.86,1.22,13.77,1.49c-0.05,0.13,0.13,0.21,0.22,0.13
			c0.44-0.39,0.89-0.88,1.44-1.11c-0.05-0.02-0.1-0.04-0.15-0.06c0.01,0.03-0.29,0.37-0.32,0.41c-0.12,0.15-0.26,0.3-0.39,0.44
			c0.07,0.05,0.14,0.1,0.2,0.16c0.12-0.19,0.32-0.52,0.55-0.61c-0.07-0.04-0.13-0.08-0.2-0.11c-0.02,0.2-0.19,0.42-0.29,0.59
			c-0.1,0.18-0.2,0.35-0.29,0.54c-0.06,0.13,0.09,0.27,0.2,0.16c0.12-0.12,0.23-0.26,0.35-0.38c0.04-0.04,0.18-0.19,0.22-0.19
			c0.07,0.01-0.02,0.37-0.03,0.42c-0.04,0.16,0.21,0.23,0.25,0.07c0.05-0.19,0.2-0.79-0.15-0.79c-0.31,0-0.63,0.5-0.82,0.69
			c0.07,0.05,0.14,0.1,0.2,0.16c0.19-0.4,0.57-0.81,0.62-1.26c0.01-0.11-0.12-0.15-0.2-0.11c-0.27,0.11-0.49,0.47-0.64,0.71
			c-0.08,0.13,0.1,0.26,0.2,0.16c0.22-0.22,0.42-0.46,0.61-0.71c0.1-0.14,0.22-0.28,0.14-0.45c-0.02-0.05-0.1-0.08-0.15-0.06
			c-0.6,0.25-1.08,0.75-1.55,1.18c0.07,0.04,0.15,0.09,0.22,0.13c0.08-0.22,0.29-0.41,0.46-0.57c0.16-0.15,0.36-0.36,0.59-0.4
			C15.23,0.56,15.16,0.31,14.99,0.34L14.99,0.34z"/>
	</g>
</g>
<g>
	<g>
		<path class="st2" d="M13.99,1.08c0,0,0.25-0.64,0.38-0.71c0.14-0.08,0.33-0.06,0.41-0.02c0,0,0.04,0.04,0.19-0.02
			c0.15-0.06,0.21,0.06,0.29,0.15c0.09,0.11,0.18,0.55,0.18,0.7s-0.13,0.42-0.3,0.65s-0.38,0.21-0.38,0.21s-0.31-0.02-0.45-0.16
			S13.99,1.19,13.99,1.08z"/>
		<path class="st2" d="M14.08,1.08c0,0,0.22-0.42,0.68-0.5c0,0,0.39-0.02,0.66,0.55c0,0-0.28,0.46-0.53,0.56
			c0,0-0.25,0.09-0.46-0.04C14.43,1.65,14.14,1.35,14.08,1.08z"/>
	</g>
	<path class="st2" d="M14.75,1.59c0,0-0.22-0.04-0.28,0c-0.02,0.02-0.06,0.05-0.04,0.06s0.17,0.1,0.32,0.07
		C14.75,1.72,14.75,1.59,14.75,1.59z"/>
	<path class="st2" d="M14.77,1.57l0.28,0.02c0,0-0.15,0.13-0.28,0.12C14.75,1.72,14.77,1.57,14.77,1.57z"/>
	<path class="st2" d="M14.45,0.73c0,0,0.14,0.02,0.13-0.04c0-0.03,0-0.06-0.05-0.04c-0.05,0.03-0.1,0.06-0.1,0.06
		S14.42,0.75,14.45,0.73z"/>
	<path class="st2" d="M14.78,0.6c0,0,0.04,0.09-0.06,0.11c0,0-0.1,0.02-0.14,0c0,0,0.01-0.08,0.01-0.08
		c0.02-0.01,0.17-0.04,0.17-0.04L14.78,0.6z"/>
	<path class="st2" d="M14.97,0.67c0,0,0.03,0.06-0.11,0.05c-0.13-0.01-0.08-0.04-0.08-0.07c0-0.02-0.02-0.06,0.03-0.06
		C14.87,0.58,14.96,0.63,14.97,0.67z"/>
	<path class="st2" d="M15.1,0.75c0,0-0.17,0.02-0.12-0.11c0,0,0.13,0.08,0.15,0.1C15.15,0.76,15.1,0.75,15.1,0.75z"/>
</g>
<rect x="14.34" y="1.05" class="st3" width="0.95" height="0.45"/>
<text transform="matrix(1 0 0 1 14.2131 1.2748)" class="st4 st5">LAJA</text>
<g>
	<g>
		<path class="st6" d="M13.26,0.29c-0.27,0.05-0.51,0.29-0.7,0.47c-0.21,0.19-0.42,0.41-0.52,0.68c-0.05,0.13,0.13,0.21,0.22,0.13
			c0.44-0.39,0.89-0.88,1.44-1.11c-0.05-0.02-0.1-0.04-0.15-0.06c0.01,0.03-0.29,0.37-0.32,0.41c-0.12,0.15-0.26,0.3-0.39,0.44
			c0.07,0.05,0.14,0.1,0.2,0.16c0.12-0.19,0.32-0.52,0.55-0.61c-0.07-0.04-0.13-0.08-0.2-0.11c-0.02,0.2-0.19,0.42-0.29,0.59
			c-0.1,0.18-0.2,0.35-0.29,0.54c-0.06,0.13,0.09,0.27,0.2,0.16c0.12-0.12,0.23-0.26,0.35-0.38c0.04-0.04,0.18-0.19,0.22-0.19
			c0.07,0.01-0.02,0.37-0.03,0.42c-0.04,0.16,0.21,0.23,0.25,0.07c0.05-0.19,0.2-0.79-0.15-0.79c-0.31,0-0.63,0.5-0.82,0.69
			c0.07,0.05,0.14,0.1,0.2,0.16c0.19-0.4,0.57-0.81,0.62-1.26c0.01-0.11-0.12-0.15-0.2-0.11c-0.27,0.11-0.49,0.47-0.64,0.71
			c-0.08,0.13,0.1,0.26,0.2,0.16c0.22-0.22,0.42-0.46,0.61-0.71c0.1-0.14,0.22-0.28,0.14-0.45c-0.02-0.05-0.1-0.08-0.15-0.06
			c-0.6,0.25-1.08,0.75-1.55,1.18c0.07,0.04,0.15,0.09,0.22,0.13c0.08-0.22,0.29-0.41,0.46-0.57c0.16-0.15,0.36-0.36,0.59-0.4
			C13.49,0.51,13.42,0.26,13.26,0.29L13.26,0.29z"/>
	</g>
</g>
<g>
	<g>
		<path class="st2" d="M12.25,1.03c0,0,0.25-0.64,0.38-0.71s0.33-0.06,0.41-0.02c0,0,0.04,0.04,0.19-0.02
			c0.15-0.06,0.21,0.06,0.29,0.15c0.09,0.11,0.18,0.55,0.18,0.7s-0.13,0.42-0.3,0.65s-0.38,0.21-0.38,0.21s-0.31-0.02-0.45-0.16
			S12.25,1.13,12.25,1.03z"/>
		<path class="st2" d="M12.34,1.03c0,0,0.22-0.42,0.68-0.5c0,0,0.39-0.02,0.66,0.55c0,0-0.28,0.46-0.53,0.56
			c0,0-0.25,0.09-0.46-0.04C12.69,1.59,12.4,1.3,12.34,1.03z"/>
	</g>
	<path class="st2" d="M13.01,1.54c0,0-0.22-0.04-0.28,0c-0.02,0.02-0.06,0.05-0.04,0.06s0.17,0.1,0.32,0.07
		C13.01,1.67,13.01,1.54,13.01,1.54z"/>
	<path class="st2" d="M13.03,1.52l0.28,0.02c0,0-0.15,0.13-0.28,0.12C13.01,1.67,13.03,1.52,13.03,1.52z"/>
	<path class="st2" d="M12.71,0.68c0,0,0.14,0.02,0.13-0.04c0-0.03,0-0.06-0.05-0.04c-0.05,0.03-0.1,0.06-0.1,0.06
		S12.68,0.69,12.71,0.68z"/>
	<path class="st2" d="M13.04,0.55c0,0,0.04,0.09-0.06,0.11c0,0-0.1,0.02-0.14,0c0,0,0.01-0.08,0.01-0.08
		c0.02-0.01,0.17-0.04,0.17-0.04L13.04,0.55z"/>
	<path class="st2" d="M13.24,0.62c0,0,0.03,0.06-0.11,0.05c-0.13-0.01-0.08-0.04-0.08-0.07c0-0.02-0.02-0.06,0.03-0.06
		C13.13,0.53,13.22,0.58,13.24,0.62z"/>
	<path class="st2" d="M13.36,0.7c0,0-0.17,0.02-0.12-0.11c0,0,0.13,0.08,0.15,0.1C13.41,0.7,13.36,0.7,13.36,0.7z"/>
</g>
<rect x="12.6" y="1" class="st3" width="0.95" height="0.45"/>
<text transform="matrix(1 0 0 1 12.4748 1.2224)" class="st4 st5">LAJA</text>
</svg>
