<?xml version="1.0" encoding="utf-8"?>
<!-- Generator: Adobe Illustrator 24.1.0, SVG Export Plug-In . SVG Version: 6.00 Build 0)  -->
<svg version="1.1" id="Layer_1" xmlns="http://www.w3.org/2000/svg" xmlns:xlink="http://www.w3.org/1999/xlink" x="0px" y="0px"
	 viewBox="0 0 1920 250" style="enable-background:new 0 0 1920 250;" xml:space="preserve">
<style type="text/css">
	.st0{fill:none;}
	.st1{opacity:0.24;}
	.st2{fill:#DA7FDD;}
	.st3{fill:none;stroke:#010101;stroke-width:2;stroke-miterlimit:10;}
	.st4{fill:#E89C5D;}
	.st5{fill:#86B0F2;}
</style>
<rect x="1689.671" y="120.236" class="st0" width="117.5" height="55.46"/>
<g>
	<g id="Color_1_">
		<g class="st1">
			<g>
				<path class="st2" d="M-34.684,141.615c12.092-39.3,48.369-89.181,83.135-111.854c-7.558-4.535-15.115-7.558-21.162-12.092
					c-4.535,30.231-33.254,69.531-46.858,96.738c-10.581,25.696-22.673,49.881-25.696,77.088
					c-1.512,13.604,19.65,16.627,25.696,6.046c22.673-36.277,45.346-71.042,71.042-105.808c-9.069-1.512-18.138-4.535-25.696-9.069
					c-6.046,24.185-21.162,46.858-31.742,69.531c-7.558,15.115,13.604,27.208,22.673,13.604
					c15.115-22.673,30.231-43.835,48.369-66.508c-7.558-4.535-15.115-9.069-22.673-12.092
					c-18.138,46.858-42.323,93.715-55.927,142.084c-4.535,15.115,16.627,22.673,24.185,10.581
					c19.65-28.719,36.277-58.95,55.927-86.158c6.046-10.581,45.346-81.623,55.927-83.134c-4.535-4.535-9.069-12.092-12.092-16.627
					c-6.046,25.696-48.369,95.227-27.208,117.9c19.65,22.673,51.392-16.627,64.996-27.208s-6.046-30.231-19.65-19.65
					c-4.535,4.535-27.208,27.208-30.231,25.696c10.581,4.535,16.627-22.673,18.138-27.208c7.558-19.65,15.115-40.811,19.65-61.973
					c1.512-7.558-4.535-18.138-12.092-16.627c-25.696,3.023-39.3,37.788-51.392,55.927C43.916,143.126,16.708,183.938-10.5,227.772
					c7.558,4.535,16.627,6.046,24.185,10.581C25.777,188.472,49.962,141.615,68.1,94.757c4.535-12.092-13.604-22.673-22.673-12.092
					c-19.65,22.673-36.277,46.858-52.904,71.042c7.558,4.535,15.115,9.069,22.673,13.604c12.092-25.696,27.208-49.881,34.765-75.577
					c6.046-16.627-13.604-24.185-22.673-12.092C1.593,114.407-21.08,149.172-43.753,185.449c9.069,3.023,16.627,4.535,25.696,6.046
					c6.046-63.485,64.996-111.854,72.554-173.827c0-10.581-13.604-16.627-21.162-10.581C-7.477,32.784-46.776,87.199-61.892,134.057
					C-66.426,150.684-40.73,158.241-34.684,141.615L-34.684,141.615z"/>
			</g>
		</g>
	</g>
</g>
<g id="Shape_11_2_">
	<path d="M82.399,112.321c-0.045-0.076,0.045-0.181,0.136-0.196c0.03,0.181,0.03,0.378,0,0.574
		C82.399,112.623,82.339,112.457,82.399,112.321L82.399,112.321z"/>
	<path d="M81.991,120.982c0.045,0.121,0.015,0.272-0.06,0.378c-0.076-0.166-0.076-0.363,0.03-0.514
		C81.991,120.876,82.006,120.937,81.991,120.982L81.991,120.982z"/>
	<path d="M83.563,92.58c-0.03-0.091-0.03-0.242,0.076-0.242c0.045,0.121,0.045,0.272,0,0.393
		C83.578,92.762,83.548,92.656,83.563,92.58L83.563,92.58z"/>
	<path d="M83.125,98.702c-0.03-0.121-0.03-0.272,0.076-0.317c0.03,0.121,0.03,0.242,0.015,0.363
		C83.185,98.808,83.095,98.762,83.125,98.702L83.125,98.702z"/>
	<path d="M83.125,97.719c0.121,0.076,0.136,0.272,0.015,0.348c-0.015-0.106-0.045-0.212-0.06-0.302L83.125,97.719z"/>
	<path d="M96.26,136.506c-0.106-0.03-0.166-0.166-0.121-0.272c0.106,0.045,0.166,0.181,0.121,0.287V136.506z"/>
	<path d="M82.717,104.264c0.121-0.03,0.121,0.197,0.015,0.257C82.732,104.431,82.717,104.34,82.717,104.264L82.717,104.264z"/>
	<path d="M93.781,115.646c-0.091-0.03,0.015-0.181,0.076-0.121c0.015,0.045,0.03,0.106,0,0.151c-0.03,0.045-0.121,0.015-0.106-0.03
		L93.781,115.646z"/>
	<path d="M81.961,120.513c-0.091-0.06-0.045-0.212,0.06-0.227C82.082,120.362,82.052,120.483,81.961,120.513L81.961,120.513z"/>
	<path d="M83.216,97.538c0.015,0.06-0.076,0.106-0.106,0.045c-0.015-0.045,0-0.106,0.03-0.151
		C83.17,97.463,83.201,97.493,83.216,97.538L83.216,97.538z"/>
	<path d="M92.315,102.058c-0.06-0.045-0.03-0.151,0.045-0.151C92.421,101.952,92.376,102.058,92.315,102.058L92.315,102.058z"/>
	<path d="M82.309,111.066c-0.076,0.03-0.106-0.106-0.06-0.166C82.324,110.87,82.339,111.006,82.309,111.066L82.309,111.066z"/>
	<path d="M93.645,115.284c-0.076,0.03-0.106-0.106-0.06-0.166C93.66,115.087,93.675,115.223,93.645,115.284L93.645,115.284z"/>
	<path d="M94.749,123.461c-0.076,0.03-0.106-0.106-0.06-0.166C94.764,123.264,94.794,123.385,94.749,123.461L94.749,123.461z"/>
	<path d="M93.917,116.054c-0.06-0.015-0.091-0.106-0.06-0.166c0.045,0,0.106,0.015,0.121,0.06S93.963,116.054,93.917,116.054
		L93.917,116.054z"/>
	<path d="M87.78,116.357c-0.03-0.03-0.045-0.06-0.076-0.091c0.03-0.045,0.091-0.076,0.151-0.091c0.03,0.06,0,0.136-0.06,0.166
		L87.78,116.357z"/>
	<path d="M90.229,134.042c-0.045,0.045-0.106,0.045-0.151,0.015c0.03-0.121,0.06-0.257,0.06-0.393
		C90.259,133.739,90.244,133.906,90.229,134.042L90.229,134.042z"/>
	<path d="M87.478,125.849c-0.045,0.015-0.091-0.045-0.091-0.106c0.015-0.045,0.045-0.091,0.091-0.121
		C87.508,125.698,87.508,125.774,87.478,125.849L87.478,125.849z"/>
	<path d="M90.033,134.525c0.06-0.015,0.166,0.015,0.136,0.076C90.123,134.677,89.972,134.586,90.033,134.525L90.033,134.525z"/>
	<path d="M87.131,135.024c0.06,0.045,0.015,0.166-0.06,0.166C87.04,135.13,87.085,135.039,87.131,135.024L87.131,135.024z"/>
	<path d="M89.368,126.015c0.091,0,0.166,0.106,0.106,0.166C89.383,126.182,89.307,126.076,89.368,126.015L89.368,126.015z"/>
	<path d="M-23.091,157.274c-0.06,0.453-0.181,0.967-0.559,1.209c-0.257,0.166-0.59,0.166-0.892,0.166
		c-3.839,0-7.663,0.015-11.503,0.015c-0.423,0-0.892-0.015-1.224-0.302c-0.378-0.333-0.393-0.922-0.378-1.421
		c0.559-21.146,1.119-42.278,1.678-63.424c0.015-0.408,0.03-0.846,0.287-1.164c0.302-0.378,0.846-0.469,1.33-0.514
		c1.512-0.166,3.356-0.166,4.172,1.119c0.423,0.68,0.408,1.527,0.393,2.328c-0.529,19.076-1.073,38.166-1.617,57.242
		c0,0.196,0.212,0.333,0.408,0.393c1.27,0.438,2.66,0.151,3.99,0.06c1.345-0.076,2.872,0.181,3.597,1.3
		C-22.849,155.143-22.94,156.261-23.091,157.274z"/>
	<path d="M39.2,127.104c0.181-0.212,0.484-0.257,0.756-0.302c1.738-0.257,3.93-0.302,4.776,1.239c0.333,0.62,0.348,1.36,0.363,2.071
		c0.045,6.318,0.106,12.636,0.151,18.94c0,0.831,0.015,1.693,0.348,2.464c0.574,1.3,2.116,2.086,3.492,1.768
		c1.375-0.302,2.449-1.678,2.418-3.084c-0.469-18.199-0.71-36.413-0.907-54.627c-0.015-0.756,0-1.557,0.393-2.192
		c0.741-1.224,2.449-1.33,3.87-1.3c0.589,0.015,1.27,0.076,1.602,0.574c0.212,0.302,0.212,0.695,0.227,1.058
		c0.227,16.294,0.453,32.604,0.68,48.913c0.03,1.935,0.06,3.87,0.076,5.804c0.03,2.146,0.03,4.383-0.952,6.273
		c-0.937,1.784-2.675,3.053-4.595,3.643c-1.92,0.59-3.99,0.529-5.955,0.091c-1.738-0.378-3.461-1.103-4.656-2.418
		c-1.935-2.131-2.071-5.29-2.101-8.177c-0.06-6.636-0.121-13.271-0.181-19.907C39.003,127.633,39.003,127.315,39.2,127.104z"/>
	<path d="M86.405,146.346c-0.03,2.645-0.06,5.275-0.091,7.92c-0.015,1.028-0.06,2.146-0.741,2.932
		c-0.786,0.892-2.101,0.998-3.295,1.028c-0.71,0.015-1.512,0-1.965-0.544c-0.363-0.438-0.348-1.073-0.317-1.648
		c0.559-9.704,1.134-19.393,1.693-29.097c0.665-10.974,1.33-21.963,1.995-32.936c0.03-0.438,0.06-0.877,0.287-1.255
		c0.484-0.786,1.587-0.846,2.509-0.816c1.088,0.03,2.161,0.076,3.25,0.106c0.378,0.015,0.786,0.045,1.028,0.333
		c0.166,0.197,0.196,0.453,0.227,0.71c2.494,21.041,4.912,42.081,7.24,63.137c0.06,0.544,0.076,1.224-0.393,1.527
		c-0.196,0.136-0.423,0.166-0.65,0.196c-1.738,0.257-3.915,0.333-4.792-1.194c-0.317-0.544-0.378-1.209-0.438-1.829
		c-0.212-2.449-0.438-4.882-0.65-7.331c-0.076-0.922-1.255-1.3-2.177-1.209C88.219,146.467,87.236,146.784,86.405,146.346
		 M90.486,136.324c-0.06-0.212,0.06-0.438,0.257-0.514c-0.121-0.287-0.302-0.559-0.514-0.771c0.227-0.544,0.196-1.194-0.06-1.723
		c-0.045-2.373-0.212-4.761-0.484-7.119c-0.03-0.196-0.076-0.438-0.272-0.499c-0.181-3.839-0.484-7.663-0.907-11.473
		c0.106-0.045,0.076,0.212-0.045,0.166c-0.121-0.03-0.136-0.181-0.136-0.302c0.03-2.025-0.106-4.051-0.423-6.046
		c-0.106,2.146-0.166,4.293-0.166,6.424c0,0.529-0.076,1.058-0.257,1.542c-0.015,3.008-0.045,5.986-0.076,8.979
		c-0.212,0.106-0.242,0.408-0.257,0.65c-0.06,3.038-0.091,6.076-0.106,9.13c-0.212,0.574-0.227,1.224-0.045,1.799
		c-0.181,0.166-0.196,0.438-0.196,0.68c-0.015,1.043-0.03,2.086-0.045,3.129c0,0.121,0,0.242,0.06,0.348
		c0.106,0.181,0.363,0.212,0.574,0.212c0.952,0,1.92,0,2.872,0c0.181,0,0.378,0,0.499-0.121c0.181-0.151,0.181-0.423,0.166-0.65
		c-0.076-1.209-0.151-2.434-0.227-3.643C90.637,136.445,90.562,136.385,90.486,136.324z"/>
	<path d="M6.112,146.512c-0.529,0-1.255,0.151-1.27,0.68c-0.091,2.343-0.196,4.686-0.287,7.044
		c-0.045,1.194-0.151,2.524-0.998,3.356c-0.937,0.922-2.403,0.937-3.718,0.892c-0.574-0.015-1.239-0.106-1.527-0.589
		c-0.166-0.302-0.151-0.68-0.106-1.028c2.071-21.01,4.157-42.021,6.228-63.046c0.045-0.408,0.091-0.831,0.317-1.164
		c0.453-0.635,1.375-0.665,2.161-0.635c1.103,0.045,2.237,0.091,3.371,0.151c0.408,0.015,0.862,0.045,1.119,0.363
		c0.181,0.227,0.227,0.544,0.242,0.831c1.768,21.086,3.446,42.187,4.988,63.288c0.03,0.348,0.045,0.71-0.136,0.998
		c-0.272,0.469-0.892,0.559-1.421,0.605c-1.632,0.136-3.673,0.076-4.383-1.406c-0.227-0.469-0.257-1.013-0.287-1.527
		c-0.166-2.917-0.348-5.85-0.529-8.767C8.621,146.542,7.367,146.527,6.112,146.512 M9.075,141.055c0.408,0,0.952-0.151,0.922-0.544
		c-0.484-8.238-0.967-16.476-1.451-24.714c-0.151-2.66-0.302-5.321-0.469-7.981c-0.831,10.762-1.663,21.539-2.509,32.317
		c-0.03,0.333,0,0.756,0.302,0.892c0.106,0.06,0.242,0.06,0.363,0.06C7.185,141.07,8.138,141.055,9.075,141.055 M15.514,145.015
		c-0.091,0-0.106,0.136-0.06,0.227C15.514,145.182,15.529,145.091,15.514,145.015L15.514,145.015z"/>
</g>
<g id="Circle_1_">
	<circle class="st3" cx="30.312" cy="126.499" r="83.134"/>
</g>
<g>
	<g id="Color_6_">
		<g class="st1">
			<g>
				<path class="st4" d="M169.278,142.841c12.092-39.3,48.369-89.181,83.135-111.854c-7.558-4.535-15.115-7.558-21.162-12.092
					c-4.535,30.231-33.254,69.531-46.858,96.738c-10.581,25.696-22.673,49.881-25.696,77.088
					c-1.512,13.604,19.65,16.627,25.696,6.046c22.673-36.277,45.346-71.042,71.042-105.808c-9.069-1.512-18.138-4.535-25.696-9.069
					c-6.046,24.185-21.162,46.858-31.742,69.531c-7.558,15.115,13.604,27.208,22.673,13.604
					c15.115-22.673,30.231-43.835,48.369-66.508c-7.558-4.535-15.115-9.069-22.673-12.092
					c-18.138,46.858-42.323,93.715-55.927,142.084c-4.535,15.115,16.627,22.673,24.185,10.581
					c19.65-28.719,36.277-58.95,55.927-86.158c6.046-10.581,45.346-81.623,55.927-83.134c-4.535-4.535-9.069-12.092-12.092-16.627
					c-6.046,25.696-48.369,95.227-27.208,117.9c19.65,22.673,51.392-16.627,64.996-27.208s-6.046-30.231-19.65-19.65
					c-4.535,4.535-27.208,27.208-30.231,25.696c10.581,4.535,16.627-22.673,18.138-27.208c7.558-19.65,15.115-40.811,19.65-61.973
					c1.512-7.558-4.535-18.138-12.092-16.627c-25.696,3.023-39.3,37.788-51.392,55.927c-28.719,42.323-55.927,83.134-83.135,126.969
					c7.558,4.535,16.627,6.046,24.185,10.581c12.092-49.881,36.277-96.738,54.415-143.596c4.535-12.092-13.604-22.673-22.673-12.092
					c-19.65,22.673-36.277,46.858-52.904,71.042c7.558,4.535,15.115,9.069,22.673,13.604c12.092-25.696,27.208-49.881,34.765-75.577
					c6.046-16.627-13.604-24.185-22.673-12.092c-25.696,34.765-48.369,69.531-71.042,105.808c9.069,3.023,16.627,4.535,25.696,6.046
					c6.046-63.485,64.996-111.854,72.554-173.827c0-10.581-13.604-16.627-21.162-10.581
					c-40.811,25.696-80.111,80.111-95.227,126.969C137.536,151.91,163.232,159.468,169.278,142.841L169.278,142.841z"/>
			</g>
		</g>
	</g>
</g>
<g id="Shape_11_6_">
	<path d="M286.362,113.547c-0.045-0.076,0.045-0.181,0.136-0.197c0.03,0.181,0.03,0.378,0,0.574
		C286.362,113.849,286.301,113.683,286.362,113.547L286.362,113.547z"/>
	<path d="M285.954,122.208c0.045,0.121,0.015,0.272-0.06,0.378c-0.076-0.166-0.076-0.363,0.03-0.514
		C285.954,122.102,285.969,122.163,285.954,122.208L285.954,122.208z"/>
	<path d="M287.526,93.806c-0.03-0.091-0.03-0.242,0.076-0.242c0.045,0.121,0.045,0.272,0,0.393
		C287.541,93.988,287.511,93.882,287.526,93.806L287.526,93.806z"/>
	<path d="M287.087,99.928c-0.03-0.121-0.03-0.272,0.076-0.317c0.03,0.121,0.03,0.242,0.015,0.363
		C287.148,100.034,287.057,99.989,287.087,99.928L287.087,99.928z"/>
	<path d="M287.087,98.946c0.121,0.076,0.136,0.272,0.015,0.348c-0.015-0.106-0.045-0.212-0.06-0.302L287.087,98.946z"/>
	<path d="M300.223,137.732c-0.106-0.03-0.166-0.166-0.121-0.272c0.106,0.045,0.166,0.181,0.121,0.287V137.732z"/>
	<path d="M286.679,105.491c0.121-0.03,0.121,0.196,0.015,0.257C286.694,105.657,286.679,105.566,286.679,105.491L286.679,105.491z"
		/>
	<path d="M297.744,116.873c-0.091-0.03,0.015-0.181,0.076-0.121c0.015,0.045,0.03,0.106,0,0.151c-0.03,0.045-0.121,0.015-0.106-0.03
		H297.744z"/>
	<path d="M285.924,121.74c-0.091-0.06-0.045-0.212,0.06-0.227C286.044,121.589,286.014,121.709,285.924,121.74L285.924,121.74z"/>
	<path d="M287.178,98.764c0.015,0.06-0.076,0.106-0.106,0.045c-0.015-0.045,0-0.106,0.03-0.151
		C287.133,98.689,287.163,98.719,287.178,98.764L287.178,98.764z"/>
	<path d="M296.278,103.284c-0.06-0.045-0.03-0.151,0.045-0.151C296.383,103.178,296.338,103.284,296.278,103.284L296.278,103.284z"
		/>
	<path d="M286.271,112.293c-0.076,0.03-0.106-0.106-0.06-0.166C286.286,112.096,286.301,112.232,286.271,112.293L286.271,112.293z"
		/>
	<path d="M297.608,116.51c-0.076,0.03-0.106-0.106-0.06-0.166C297.623,116.313,297.638,116.449,297.608,116.51L297.608,116.51z"/>
	<path d="M298.711,124.687c-0.076,0.03-0.106-0.106-0.06-0.166C298.726,124.491,298.756,124.612,298.711,124.687L298.711,124.687z"
		/>
	<path d="M297.88,117.281c-0.06-0.015-0.091-0.106-0.06-0.166c0.045,0,0.106,0.015,0.121,0.06
		C297.955,117.22,297.925,117.281,297.88,117.281L297.88,117.281z"/>
	<path d="M291.743,117.583c-0.03-0.03-0.045-0.06-0.076-0.091c0.03-0.045,0.091-0.076,0.151-0.091c0.03,0.06,0,0.136-0.06,0.166
		L291.743,117.583z"/>
	<path d="M294.192,135.268c-0.045,0.045-0.106,0.045-0.151,0.015c0.03-0.121,0.06-0.257,0.06-0.393
		C294.222,134.966,294.207,135.132,294.192,135.268L294.192,135.268z"/>
	<path d="M291.441,127.075c-0.045,0.015-0.091-0.045-0.091-0.106c0.015-0.045,0.045-0.091,0.091-0.121
		C291.471,126.924,291.471,127,291.441,127.075L291.441,127.075z"/>
	<path d="M293.995,135.752c0.06-0.015,0.166,0.015,0.136,0.076C294.086,135.903,293.935,135.812,293.995,135.752L293.995,135.752z"
		/>
	<path d="M291.093,136.25c0.06,0.045,0.015,0.166-0.06,0.166C291.002,136.356,291.048,136.266,291.093,136.25L291.093,136.25z"/>
	<path d="M293.33,127.242c0.091,0,0.166,0.106,0.106,0.166C293.345,127.408,293.27,127.302,293.33,127.242L293.33,127.242z"/>
	<path d="M180.872,158.5c-0.06,0.453-0.181,0.967-0.559,1.209c-0.257,0.166-0.59,0.166-0.892,0.166
		c-3.839,0-7.663,0.015-11.503,0.015c-0.423,0-0.892-0.015-1.224-0.302c-0.378-0.333-0.393-0.922-0.378-1.421
		c0.559-21.146,1.119-42.278,1.678-63.424c0.015-0.408,0.03-0.846,0.287-1.164c0.302-0.378,0.846-0.469,1.33-0.514
		c1.512-0.166,3.356-0.166,4.172,1.119c0.423,0.68,0.408,1.527,0.393,2.328c-0.529,19.076-1.073,38.166-1.617,57.242
		c0,0.196,0.212,0.333,0.408,0.393c1.27,0.438,2.66,0.151,3.99,0.06c1.345-0.076,2.872,0.181,3.597,1.3
		C181.114,156.369,181.023,157.488,180.872,158.5z"/>
	<path d="M243.162,128.33c0.181-0.212,0.484-0.257,0.756-0.302c1.738-0.257,3.93-0.302,4.776,1.239
		c0.333,0.62,0.348,1.36,0.363,2.071c0.045,6.318,0.106,12.636,0.151,18.94c0,0.831,0.015,1.693,0.348,2.464
		c0.574,1.3,2.116,2.086,3.492,1.768c1.375-0.302,2.449-1.678,2.418-3.084c-0.469-18.199-0.71-36.413-0.907-54.627
		c-0.015-0.756,0-1.557,0.393-2.192c0.741-1.224,2.449-1.33,3.87-1.3c0.59,0.015,1.27,0.076,1.602,0.574
		c0.212,0.302,0.212,0.695,0.227,1.058c0.227,16.294,0.453,32.604,0.68,48.913c0.03,1.935,0.06,3.87,0.076,5.804
		c0.03,2.146,0.03,4.383-0.952,6.273c-0.937,1.784-2.675,3.053-4.595,3.643c-1.92,0.59-3.99,0.529-5.955,0.091
		c-1.738-0.378-3.461-1.103-4.656-2.418c-1.935-2.131-2.071-5.29-2.101-8.177c-0.06-6.636-0.121-13.271-0.181-19.907
		C242.966,128.859,242.966,128.542,243.162,128.33z"/>
	<path d="M290.367,147.572c-0.03,2.645-0.06,5.275-0.091,7.92c-0.015,1.028-0.06,2.146-0.741,2.932
		c-0.786,0.892-2.101,0.998-3.295,1.028c-0.71,0.015-1.512,0-1.965-0.544c-0.363-0.438-0.348-1.073-0.317-1.648
		c0.559-9.704,1.134-19.393,1.693-29.097c0.665-10.974,1.33-21.963,1.995-32.936c0.03-0.438,0.06-0.877,0.287-1.255
		c0.484-0.786,1.587-0.846,2.509-0.816c1.088,0.03,2.161,0.076,3.25,0.106c0.378,0.015,0.786,0.045,1.028,0.333
		c0.166,0.197,0.196,0.453,0.227,0.71c2.494,21.041,4.913,42.081,7.24,63.137c0.06,0.544,0.076,1.224-0.393,1.527
		c-0.196,0.136-0.423,0.166-0.65,0.197c-1.738,0.257-3.915,0.333-4.792-1.194c-0.317-0.544-0.378-1.209-0.438-1.829
		c-0.212-2.449-0.438-4.882-0.65-7.331c-0.076-0.922-1.255-1.3-2.177-1.209C292.181,147.693,291.199,148.01,290.367,147.572
		 M294.449,137.55c-0.06-0.212,0.06-0.438,0.257-0.514c-0.121-0.287-0.302-0.559-0.514-0.771c0.227-0.544,0.197-1.194-0.06-1.723
		c-0.045-2.373-0.212-4.761-0.484-7.119c-0.03-0.196-0.076-0.438-0.272-0.499c-0.181-3.839-0.484-7.663-0.907-11.473
		c0.106-0.045,0.076,0.212-0.045,0.166c-0.121-0.03-0.136-0.181-0.136-0.302c0.03-2.025-0.106-4.051-0.423-6.046
		c-0.106,2.146-0.166,4.293-0.166,6.424c0,0.529-0.076,1.058-0.257,1.542c-0.015,3.008-0.045,5.986-0.076,8.979
		c-0.212,0.106-0.242,0.408-0.257,0.65c-0.06,3.038-0.091,6.076-0.106,9.13c-0.212,0.574-0.227,1.224-0.045,1.799
		c-0.181,0.166-0.197,0.438-0.197,0.68c-0.015,1.043-0.03,2.086-0.045,3.129c0,0.121,0,0.242,0.06,0.348
		c0.106,0.181,0.363,0.212,0.574,0.212c0.952,0,1.92,0,2.872,0c0.181,0,0.378,0,0.499-0.121c0.181-0.151,0.181-0.423,0.166-0.65
		c-0.076-1.209-0.151-2.434-0.227-3.643C294.6,137.671,294.524,137.611,294.449,137.55z"/>
	<path d="M210.075,147.738c-0.529,0-1.255,0.151-1.27,0.68c-0.091,2.343-0.197,4.686-0.287,7.044
		c-0.045,1.194-0.151,2.524-0.998,3.356c-0.937,0.922-2.403,0.937-3.718,0.892c-0.574-0.015-1.239-0.106-1.527-0.589
		c-0.166-0.302-0.151-0.68-0.106-1.028c2.071-21.01,4.157-42.021,6.228-63.046c0.045-0.408,0.091-0.831,0.317-1.164
		c0.453-0.635,1.376-0.665,2.161-0.635c1.103,0.045,2.237,0.091,3.371,0.151c0.408,0.015,0.862,0.045,1.119,0.363
		c0.181,0.227,0.227,0.544,0.242,0.831c1.768,21.086,3.446,42.187,4.988,63.288c0.03,0.348,0.045,0.71-0.136,0.998
		c-0.272,0.469-0.892,0.559-1.421,0.605c-1.632,0.136-3.673,0.076-4.383-1.406c-0.227-0.469-0.257-1.013-0.287-1.527
		c-0.166-2.917-0.348-5.85-0.529-8.767C212.584,147.768,211.329,147.753,210.075,147.738 M213.037,142.281
		c0.408,0,0.952-0.151,0.922-0.544c-0.484-8.238-0.967-16.476-1.451-24.714c-0.151-2.66-0.302-5.321-0.469-7.981
		c-0.831,10.762-1.663,21.539-2.509,32.317c-0.03,0.333,0,0.756,0.302,0.892c0.106,0.06,0.242,0.06,0.363,0.06
		C211.148,142.297,212.1,142.281,213.037,142.281 M219.476,146.242c-0.091,0-0.106,0.136-0.06,0.227
		C219.476,146.408,219.491,146.317,219.476,146.242L219.476,146.242z"/>
</g>
<g id="Circle_6_">
	<circle class="st3" cx="234.274" cy="127.725" r="83.134"/>
</g>
<g>
	<g id="Color_2_">
		<g class="st1">
			<g>
				<path class="st5" d="M373.234,144.067c12.092-39.3,48.369-89.181,83.134-111.854c-7.558-4.535-15.115-7.558-21.161-12.092
					c-4.535,30.231-33.254,69.531-46.858,96.738c-10.581,25.696-22.673,49.881-25.696,77.088
					c-1.512,13.604,19.65,16.627,25.696,6.046c22.673-36.277,45.346-71.042,71.042-105.808c-9.069-1.512-18.138-4.535-25.696-9.069
					c-6.046,24.185-21.161,46.858-31.742,69.531c-7.558,15.115,13.604,27.208,22.673,13.604
					c15.115-22.673,30.231-43.835,48.369-66.508c-7.558-4.535-15.115-9.069-22.673-12.092
					c-18.138,46.858-42.323,93.715-55.927,142.084c-4.535,15.115,16.627,22.673,24.185,10.581
					c19.65-28.719,36.277-58.95,55.927-86.158c6.046-10.581,45.346-81.623,55.927-83.134c-4.535-4.535-9.069-12.092-12.092-16.627
					c-6.046,25.696-48.369,95.227-27.208,117.9c19.65,22.673,51.392-16.627,64.996-27.208s-6.046-30.231-19.65-19.65
					c-4.535,4.535-27.208,27.208-30.231,25.696c10.581,4.535,16.627-22.673,18.138-27.208c7.558-19.65,15.115-40.811,19.65-61.973
					c1.512-7.558-4.535-18.138-12.092-16.627c-25.696,3.023-39.3,37.788-51.392,55.927c-28.719,42.323-55.927,83.134-83.134,126.969
					c7.558,4.535,16.627,6.046,24.185,10.581c12.092-49.881,36.277-96.738,54.415-143.596c4.535-12.092-13.604-22.673-22.673-12.092
					c-19.65,22.673-36.277,46.858-52.904,71.042c7.558,4.535,15.115,9.069,22.673,13.604c12.092-25.696,27.208-49.881,34.765-75.577
					c6.046-16.627-13.604-24.185-22.673-12.092c-25.696,34.765-48.369,69.531-71.042,105.808c9.069,3.023,16.627,4.535,25.696,6.046
					c6.046-63.485,64.996-111.854,72.554-173.827c0-10.581-13.604-16.627-21.161-10.581
					c-40.811,25.696-80.111,80.111-95.227,126.969C341.492,153.136,367.188,160.694,373.234,144.067L373.234,144.067z"/>
			</g>
		</g>
	</g>
</g>
<g id="Shape_11_1_">
	<path d="M490.318,114.773c-0.045-0.076,0.045-0.181,0.136-0.197c0.03,0.181,0.03,0.378,0,0.574
		C490.318,115.076,490.258,114.909,490.318,114.773L490.318,114.773z"/>
	<path d="M489.91,123.434c0.045,0.121,0.015,0.272-0.06,0.378c-0.076-0.166-0.076-0.363,0.03-0.514
		C489.91,123.329,489.925,123.389,489.91,123.434L489.91,123.434z"/>
	<path d="M491.482,95.033c-0.03-0.091-0.03-0.242,0.076-0.242c0.045,0.121,0.045,0.272,0,0.393
		C491.497,95.214,491.467,95.108,491.482,95.033L491.482,95.033z"/>
	<path d="M491.044,101.154c-0.03-0.121-0.03-0.272,0.076-0.317c0.03,0.121,0.03,0.242,0.015,0.363
		C491.104,101.26,491.013,101.215,491.044,101.154L491.044,101.154z"/>
	<path d="M491.044,100.172c0.121,0.076,0.136,0.272,0.015,0.348c-0.015-0.106-0.045-0.212-0.06-0.302L491.044,100.172z"/>
	<path d="M504.179,138.958c-0.106-0.03-0.166-0.166-0.121-0.272c0.106,0.045,0.166,0.181,0.121,0.287V138.958z"/>
	<path d="M490.636,106.717c0.121-0.03,0.121,0.197,0.015,0.257C490.651,106.883,490.636,106.792,490.636,106.717L490.636,106.717z"
		/>
	<path d="M501.7,118.099c-0.091-0.03,0.015-0.181,0.076-0.121c0.015,0.045,0.03,0.106,0,0.151c-0.03,0.045-0.121,0.015-0.106-0.03
		L501.7,118.099z"/>
	<path d="M489.88,122.966c-0.091-0.06-0.045-0.212,0.06-0.227C490.001,122.815,489.97,122.936,489.88,122.966L489.88,122.966z"/>
	<path d="M491.134,99.991c0.015,0.06-0.076,0.106-0.106,0.045c-0.015-0.045,0-0.106,0.03-0.151
		C491.089,99.915,491.119,99.945,491.134,99.991L491.134,99.991z"/>
	<path d="M500.234,104.51c-0.06-0.045-0.03-0.151,0.045-0.151C500.34,104.404,500.294,104.51,500.234,104.51L500.234,104.51z"/>
	<path d="M490.227,113.519c-0.076,0.03-0.106-0.106-0.06-0.166C490.243,113.322,490.258,113.458,490.227,113.519L490.227,113.519z"
		/>
	<path d="M501.564,117.736c-0.076,0.03-0.106-0.106-0.06-0.166C501.579,117.539,501.594,117.676,501.564,117.736L501.564,117.736z"
		/>
	<path d="M502.667,125.913c-0.076,0.03-0.106-0.106-0.06-0.166C502.682,125.717,502.713,125.838,502.667,125.913L502.667,125.913z"
		/>
	<path d="M501.836,118.507c-0.06-0.015-0.091-0.106-0.06-0.166c0.045,0,0.106,0.015,0.121,0.06
		C501.912,118.446,501.881,118.507,501.836,118.507L501.836,118.507z"/>
	<path d="M495.699,118.809c-0.03-0.03-0.045-0.06-0.076-0.091c0.03-0.045,0.091-0.076,0.151-0.091c0.03,0.06,0,0.136-0.06,0.166
		L495.699,118.809z"/>
	<path d="M498.148,136.494c-0.045,0.045-0.106,0.045-0.151,0.015c0.03-0.121,0.06-0.257,0.06-0.393
		C498.178,136.192,498.163,136.358,498.148,136.494L498.148,136.494z"/>
	<path d="M495.397,128.302c-0.045,0.015-0.091-0.045-0.091-0.106c0.015-0.045,0.045-0.091,0.091-0.121
		C495.427,128.15,495.427,128.226,495.397,128.302L495.397,128.302z"/>
	<path d="M497.951,136.978c0.06-0.015,0.166,0.015,0.136,0.076C498.042,137.129,497.891,137.038,497.951,136.978L497.951,136.978z"
		/>
	<path d="M495.049,137.477c0.06,0.045,0.015,0.166-0.06,0.166C494.959,137.582,495.004,137.492,495.049,137.477L495.049,137.477z"/>
	<path d="M497.286,128.468c0.091,0,0.166,0.106,0.106,0.166C497.301,128.634,497.226,128.528,497.286,128.468L497.286,128.468z"/>
	<path d="M384.828,159.726c-0.06,0.453-0.181,0.967-0.559,1.209c-0.257,0.166-0.589,0.166-0.892,0.166
		c-3.839,0-7.664,0.015-11.503,0.015c-0.423,0-0.892-0.015-1.224-0.302c-0.378-0.333-0.393-0.922-0.378-1.421
		c0.559-21.146,1.119-42.278,1.678-63.424c0.015-0.408,0.03-0.846,0.287-1.164c0.302-0.378,0.846-0.469,1.33-0.514
		c1.512-0.166,3.356-0.166,4.172,1.119c0.423,0.68,0.408,1.527,0.393,2.328c-0.529,19.076-1.073,38.166-1.617,57.242
		c0,0.196,0.212,0.333,0.408,0.393c1.27,0.438,2.66,0.151,3.99,0.06c1.345-0.076,2.872,0.181,3.597,1.3
		C385.07,157.595,384.979,158.714,384.828,159.726z"/>
	<path d="M447.118,129.556c0.181-0.212,0.484-0.257,0.756-0.302c1.738-0.257,3.93-0.302,4.776,1.239
		c0.333,0.62,0.348,1.36,0.363,2.071c0.045,6.318,0.106,12.636,0.151,18.94c0,0.831,0.015,1.693,0.348,2.464
		c0.574,1.3,2.116,2.086,3.492,1.768c1.375-0.302,2.449-1.678,2.418-3.084c-0.469-18.199-0.71-36.413-0.907-54.627
		c-0.015-0.756,0-1.557,0.393-2.192c0.741-1.224,2.449-1.33,3.87-1.3c0.589,0.015,1.27,0.076,1.602,0.574
		c0.212,0.302,0.212,0.695,0.227,1.058c0.227,16.294,0.453,32.604,0.68,48.913c0.03,1.935,0.06,3.87,0.076,5.804
		c0.03,2.146,0.03,4.383-0.952,6.273c-0.937,1.784-2.675,3.053-4.595,3.643s-3.99,0.529-5.955,0.091
		c-1.738-0.378-3.461-1.103-4.656-2.418c-1.935-2.131-2.071-5.29-2.101-8.177c-0.06-6.636-0.121-13.271-0.181-19.907
		C446.922,130.085,446.922,129.768,447.118,129.556z"/>
	<path d="M494.324,148.798c-0.03,2.645-0.06,5.275-0.091,7.92c-0.015,1.028-0.06,2.146-0.741,2.932
		c-0.786,0.892-2.101,0.998-3.295,1.028c-0.71,0.015-1.512,0-1.965-0.544c-0.363-0.438-0.348-1.073-0.317-1.648
		c0.559-9.704,1.134-19.393,1.693-29.097c0.665-10.974,1.33-21.963,1.995-32.936c0.03-0.438,0.06-0.877,0.287-1.255
		c0.484-0.786,1.587-0.846,2.509-0.816c1.088,0.03,2.161,0.076,3.25,0.106c0.378,0.015,0.786,0.045,1.028,0.333
		c0.166,0.196,0.197,0.453,0.227,0.71c2.494,21.041,4.912,42.081,7.24,63.137c0.06,0.544,0.076,1.224-0.393,1.527
		c-0.197,0.136-0.423,0.166-0.65,0.197c-1.738,0.257-3.915,0.333-4.792-1.194c-0.317-0.544-0.378-1.209-0.438-1.829
		c-0.212-2.449-0.438-4.882-0.65-7.331c-0.076-0.922-1.255-1.3-2.177-1.209C496.138,148.919,495.155,149.236,494.324,148.798
		 M498.405,138.777c-0.06-0.212,0.06-0.438,0.257-0.514c-0.121-0.287-0.302-0.559-0.514-0.771c0.227-0.544,0.196-1.194-0.06-1.723
		c-0.045-2.373-0.212-4.761-0.484-7.119c-0.03-0.196-0.076-0.438-0.272-0.499c-0.181-3.839-0.484-7.663-0.907-11.473
		c0.106-0.045,0.076,0.212-0.045,0.166c-0.121-0.03-0.136-0.181-0.136-0.302c0.03-2.025-0.106-4.051-0.423-6.046
		c-0.106,2.146-0.166,4.293-0.166,6.424c0,0.529-0.076,1.058-0.257,1.542c-0.015,3.008-0.045,5.986-0.076,8.979
		c-0.212,0.106-0.242,0.408-0.257,0.65c-0.06,3.038-0.091,6.076-0.106,9.13c-0.212,0.574-0.227,1.224-0.045,1.799
		c-0.181,0.166-0.196,0.438-0.196,0.68c-0.015,1.043-0.03,2.086-0.045,3.129c0,0.121,0,0.242,0.06,0.348
		c0.106,0.181,0.363,0.212,0.574,0.212c0.952,0,1.92,0,2.872,0c0.181,0,0.378,0,0.499-0.121c0.181-0.151,0.181-0.423,0.166-0.65
		c-0.076-1.209-0.151-2.434-0.227-3.643C498.556,138.898,498.48,138.837,498.405,138.777z"/>
	<path d="M414.031,148.964c-0.529,0-1.255,0.151-1.27,0.68c-0.091,2.343-0.197,4.686-0.287,7.044
		c-0.045,1.194-0.151,2.524-0.998,3.356c-0.937,0.922-2.403,0.937-3.718,0.892c-0.574-0.015-1.239-0.106-1.527-0.589
		c-0.166-0.302-0.151-0.68-0.106-1.028c2.071-21.01,4.157-42.021,6.228-63.046c0.045-0.408,0.091-0.831,0.317-1.164
		c0.453-0.635,1.376-0.665,2.161-0.635c1.103,0.045,2.237,0.091,3.371,0.151c0.408,0.015,0.862,0.045,1.119,0.363
		c0.181,0.227,0.227,0.544,0.242,0.831c1.768,21.086,3.446,42.187,4.988,63.288c0.03,0.348,0.045,0.71-0.136,0.998
		c-0.272,0.469-0.892,0.559-1.421,0.605c-1.632,0.136-3.673,0.076-4.383-1.406c-0.227-0.469-0.257-1.013-0.287-1.527
		c-0.166-2.917-0.348-5.85-0.529-8.767C416.54,148.995,415.285,148.979,414.031,148.964 M416.993,143.508
		c0.408,0,0.952-0.151,0.922-0.544c-0.484-8.238-0.967-16.476-1.451-24.714c-0.151-2.66-0.302-5.321-0.469-7.981
		c-0.831,10.762-1.663,21.539-2.509,32.317c-0.03,0.333,0,0.756,0.302,0.892c0.106,0.06,0.242,0.06,0.363,0.06
		C415.104,143.523,416.056,143.508,416.993,143.508 M423.433,147.468c-0.091,0-0.106,0.136-0.06,0.227
		C423.433,147.634,423.448,147.543,423.433,147.468L423.433,147.468z"/>
</g>
<g id="Circle_2_">
	<circle class="st3" cx="438.231" cy="128.952" r="83.134"/>
</g>
<g>
	<g id="Color_3_">
		<g class="st1">
			<g>
				<path class="st2" d="M577.097,141.615c12.092-39.3,48.369-89.181,83.135-111.854c-7.558-4.535-15.115-7.558-21.162-12.092
					c-4.535,30.231-33.254,69.531-46.858,96.738c-10.581,25.696-22.673,49.881-25.696,77.088
					c-1.512,13.604,19.65,16.627,25.696,6.046c22.673-36.277,45.346-71.042,71.042-105.808c-9.069-1.512-18.138-4.535-25.696-9.069
					c-6.046,24.185-21.161,46.858-31.742,69.531c-7.558,15.115,13.604,27.208,22.673,13.604
					c15.115-22.673,30.231-43.835,48.369-66.508c-7.558-4.535-15.115-9.069-22.673-12.092
					c-18.138,46.858-42.323,93.715-55.927,142.084c-4.535,15.115,16.627,22.673,24.185,10.581
					c19.65-28.719,36.277-58.95,55.927-86.158c6.046-10.581,45.346-81.623,55.927-83.134c-4.535-4.535-9.069-12.092-12.092-16.627
					c-6.046,25.696-48.369,95.227-27.208,117.9c19.65,22.673,51.392-16.627,64.996-27.208s-6.046-30.231-19.65-19.65
					c-4.535,4.535-27.208,27.208-30.231,25.696c10.581,4.535,16.627-22.673,18.138-27.208c7.558-19.65,15.115-40.811,19.65-61.973
					c1.512-7.558-4.535-18.138-12.092-16.627c-25.696,3.023-39.3,37.788-51.392,55.927c-28.719,42.323-55.927,83.134-83.134,126.969
					c7.558,4.535,16.627,6.046,24.185,10.581c12.092-49.881,36.277-96.738,54.415-143.596c4.535-12.092-13.604-22.673-22.673-12.092
					c-19.65,22.673-36.277,46.858-52.904,71.042c7.558,4.535,15.115,9.069,22.673,13.604c12.092-25.696,27.208-49.881,34.765-75.577
					c6.046-16.627-13.604-24.185-22.673-12.092c-25.696,34.765-48.369,69.531-71.042,105.808c9.069,3.023,16.627,4.535,25.696,6.046
					c6.046-63.485,64.996-111.854,72.554-173.827c0-10.581-13.604-16.627-21.162-10.581
					c-40.811,25.696-80.111,80.111-95.227,126.969C545.355,150.684,571.051,158.241,577.097,141.615L577.097,141.615z"/>
			</g>
		</g>
	</g>
</g>
<g id="Shape_11_3_">
	<path d="M694.181,112.321c-0.045-0.076,0.045-0.181,0.136-0.196c0.03,0.181,0.03,0.378,0,0.574
		C694.181,112.623,694.12,112.457,694.181,112.321L694.181,112.321z"/>
	<path d="M693.773,120.982c0.045,0.121,0.015,0.272-0.06,0.378c-0.076-0.166-0.076-0.363,0.03-0.514
		C693.773,120.876,693.788,120.937,693.773,120.982L693.773,120.982z"/>
	<path d="M695.345,92.58c-0.03-0.091-0.03-0.242,0.076-0.242c0.045,0.121,0.045,0.272,0,0.393
		C695.36,92.762,695.33,92.656,695.345,92.58L695.345,92.58z"/>
	<path d="M694.906,98.702c-0.03-0.121-0.03-0.272,0.076-0.317c0.03,0.121,0.03,0.242,0.015,0.363
		C694.967,98.808,694.876,98.762,694.906,98.702L694.906,98.702z"/>
	<path d="M694.906,97.719c0.121,0.076,0.136,0.272,0.015,0.348c-0.015-0.106-0.045-0.212-0.06-0.302L694.906,97.719z"/>
	<path d="M708.042,136.506c-0.106-0.03-0.166-0.166-0.121-0.272c0.106,0.045,0.166,0.181,0.121,0.287V136.506z"/>
	<path d="M694.498,104.264c0.121-0.03,0.121,0.197,0.015,0.257C694.513,104.431,694.498,104.34,694.498,104.264L694.498,104.264z"/>
	<path d="M705.563,115.646c-0.091-0.03,0.015-0.181,0.076-0.121c0.015,0.045,0.03,0.106,0,0.151c-0.03,0.045-0.121,0.015-0.106-0.03
		L705.563,115.646z"/>
	<path d="M693.742,120.513c-0.091-0.06-0.045-0.212,0.06-0.227C693.863,120.362,693.833,120.483,693.742,120.513L693.742,120.513z"
		/>
	<path d="M694.997,97.538c0.015,0.06-0.076,0.106-0.106,0.045c-0.015-0.045,0-0.106,0.03-0.151
		C694.952,97.463,694.982,97.493,694.997,97.538L694.997,97.538z"/>
	<path d="M704.096,102.058c-0.06-0.045-0.03-0.151,0.045-0.151C704.202,101.952,704.157,102.058,704.096,102.058L704.096,102.058z"
		/>
	<path d="M694.09,111.066c-0.076,0.03-0.106-0.106-0.06-0.166C694.105,110.87,694.12,111.006,694.09,111.066L694.09,111.066z"/>
	<path d="M705.427,115.284c-0.076,0.03-0.106-0.106-0.06-0.166C705.442,115.087,705.457,115.223,705.427,115.284L705.427,115.284z"
		/>
	<path d="M706.53,123.461c-0.076,0.03-0.106-0.106-0.06-0.166C706.545,123.264,706.575,123.385,706.53,123.461L706.53,123.461z"/>
	<path d="M705.699,116.054c-0.06-0.015-0.091-0.106-0.06-0.166c0.045,0,0.106,0.015,0.121,0.06
		C705.774,115.994,705.744,116.054,705.699,116.054L705.699,116.054z"/>
	<path d="M699.562,116.357c-0.03-0.03-0.045-0.06-0.076-0.091c0.03-0.045,0.091-0.076,0.151-0.091c0.03,0.06,0,0.136-0.06,0.166
		L699.562,116.357z"/>
	<path d="M702.01,134.042c-0.045,0.045-0.106,0.045-0.151,0.015c0.03-0.121,0.06-0.257,0.06-0.393
		C702.041,133.739,702.026,133.906,702.01,134.042L702.01,134.042z"/>
	<path d="M699.26,125.849c-0.045,0.015-0.091-0.045-0.091-0.106c0.015-0.045,0.045-0.091,0.091-0.121
		C699.29,125.698,699.29,125.774,699.26,125.849L699.26,125.849z"/>
	<path d="M701.814,134.525c0.06-0.015,0.166,0.015,0.136,0.076C701.905,134.677,701.754,134.586,701.814,134.525L701.814,134.525z"
		/>
	<path d="M698.912,135.024c0.06,0.045,0.015,0.166-0.06,0.166C698.821,135.13,698.867,135.039,698.912,135.024L698.912,135.024z"/>
	<path d="M701.149,126.015c0.091,0,0.166,0.106,0.106,0.166C701.164,126.182,701.089,126.076,701.149,126.015L701.149,126.015z"/>
	<path d="M588.691,157.274c-0.06,0.453-0.181,0.967-0.559,1.209c-0.257,0.166-0.59,0.166-0.892,0.166
		c-3.839,0-7.663,0.015-11.503,0.015c-0.423,0-0.892-0.015-1.224-0.302c-0.378-0.333-0.393-0.922-0.378-1.421
		c0.559-21.146,1.119-42.278,1.678-63.424c0.015-0.408,0.03-0.846,0.287-1.164c0.302-0.378,0.846-0.469,1.33-0.514
		c1.512-0.166,3.356-0.166,4.172,1.119c0.423,0.68,0.408,1.527,0.393,2.328c-0.529,19.076-1.073,38.166-1.617,57.242
		c0,0.196,0.212,0.333,0.408,0.393c1.27,0.438,2.66,0.151,3.99,0.06c1.345-0.076,2.872,0.181,3.597,1.3
		C588.932,155.143,588.842,156.261,588.691,157.274z"/>
	<path d="M650.981,127.104c0.181-0.212,0.484-0.257,0.756-0.302c1.738-0.257,3.93-0.302,4.776,1.239
		c0.333,0.62,0.348,1.36,0.363,2.071c0.045,6.318,0.106,12.636,0.151,18.94c0,0.831,0.015,1.693,0.348,2.464
		c0.574,1.3,2.116,2.086,3.492,1.768c1.375-0.302,2.449-1.678,2.418-3.084c-0.469-18.199-0.71-36.413-0.907-54.627
		c-0.015-0.756,0-1.557,0.393-2.192c0.741-1.224,2.449-1.33,3.87-1.3c0.589,0.015,1.27,0.076,1.602,0.574
		c0.212,0.302,0.212,0.695,0.227,1.058c0.227,16.294,0.453,32.604,0.68,48.913c0.03,1.935,0.06,3.87,0.076,5.804
		c0.03,2.146,0.03,4.383-0.952,6.273c-0.937,1.784-2.675,3.053-4.595,3.643c-1.92,0.59-3.99,0.529-5.955,0.091
		c-1.738-0.378-3.461-1.103-4.656-2.418c-1.935-2.131-2.071-5.29-2.101-8.177c-0.06-6.636-0.121-13.271-0.181-19.907
		C650.785,127.633,650.785,127.315,650.981,127.104z"/>
	<path d="M698.186,146.346c-0.03,2.645-0.06,5.275-0.091,7.92c-0.015,1.028-0.06,2.146-0.741,2.932
		c-0.786,0.892-2.101,0.998-3.295,1.028c-0.71,0.015-1.512,0-1.965-0.544c-0.363-0.438-0.348-1.073-0.317-1.648
		c0.559-9.704,1.134-19.393,1.693-29.097c0.665-10.974,1.33-21.963,1.995-32.936c0.03-0.438,0.06-0.877,0.287-1.255
		c0.484-0.786,1.587-0.846,2.509-0.816c1.088,0.03,2.161,0.076,3.25,0.106c0.378,0.015,0.786,0.045,1.028,0.333
		c0.166,0.197,0.197,0.453,0.227,0.71c2.494,21.041,4.912,42.081,7.24,63.137c0.06,0.544,0.076,1.224-0.393,1.527
		c-0.197,0.136-0.423,0.166-0.65,0.196c-1.738,0.257-3.915,0.333-4.792-1.194c-0.317-0.544-0.378-1.209-0.438-1.829
		c-0.212-2.449-0.438-4.882-0.65-7.331c-0.076-0.922-1.255-1.3-2.177-1.209C700,146.467,699.018,146.784,698.186,146.346
		 M702.267,136.324c-0.06-0.212,0.06-0.438,0.257-0.514c-0.121-0.287-0.302-0.559-0.514-0.771c0.227-0.544,0.197-1.194-0.06-1.723
		c-0.045-2.373-0.212-4.761-0.484-7.119c-0.03-0.196-0.076-0.438-0.272-0.499c-0.181-3.839-0.484-7.663-0.907-11.473
		c0.106-0.045,0.076,0.212-0.045,0.166c-0.121-0.03-0.136-0.181-0.136-0.302c0.03-2.025-0.106-4.051-0.423-6.046
		c-0.106,2.146-0.166,4.293-0.166,6.424c0,0.529-0.076,1.058-0.257,1.542c-0.015,3.008-0.045,5.986-0.076,8.979
		c-0.212,0.106-0.242,0.408-0.257,0.65c-0.06,3.038-0.091,6.076-0.106,9.13c-0.212,0.574-0.227,1.224-0.045,1.799
		c-0.181,0.166-0.196,0.438-0.196,0.68c-0.015,1.043-0.03,2.086-0.045,3.129c0,0.121,0,0.242,0.06,0.348
		c0.106,0.181,0.363,0.212,0.574,0.212c0.952,0,1.92,0,2.872,0c0.181,0,0.378,0,0.499-0.121c0.181-0.151,0.181-0.423,0.166-0.65
		c-0.076-1.209-0.151-2.434-0.227-3.643C702.419,136.445,702.343,136.385,702.267,136.324z"/>
	<path d="M617.894,146.512c-0.529,0-1.255,0.151-1.27,0.68c-0.091,2.343-0.197,4.686-0.287,7.044
		c-0.045,1.194-0.151,2.524-0.998,3.356c-0.937,0.922-2.403,0.937-3.718,0.892c-0.574-0.015-1.24-0.106-1.527-0.589
		c-0.166-0.302-0.151-0.68-0.106-1.028c2.071-21.01,4.157-42.021,6.227-63.046c0.045-0.408,0.091-0.831,0.317-1.164
		c0.453-0.635,1.375-0.665,2.161-0.635c1.103,0.045,2.237,0.091,3.371,0.151c0.408,0.015,0.862,0.045,1.119,0.363
		c0.181,0.227,0.227,0.544,0.242,0.831c1.768,21.086,3.446,42.187,4.988,63.288c0.03,0.348,0.045,0.71-0.136,0.998
		c-0.272,0.469-0.892,0.559-1.421,0.605c-1.632,0.136-3.673,0.076-4.383-1.406c-0.227-0.469-0.257-1.013-0.287-1.527
		c-0.166-2.917-0.348-5.85-0.529-8.767C620.403,146.542,619.148,146.527,617.894,146.512 M620.856,141.055
		c0.408,0,0.952-0.151,0.922-0.544c-0.484-8.238-0.967-16.476-1.451-24.714c-0.151-2.66-0.302-5.321-0.469-7.981
		c-0.831,10.762-1.663,21.539-2.509,32.317c-0.03,0.333,0,0.756,0.302,0.892c0.106,0.06,0.242,0.06,0.363,0.06
		C618.967,141.07,619.919,141.055,620.856,141.055 M627.295,145.015c-0.091,0-0.106,0.136-0.06,0.227
		C627.295,145.182,627.31,145.091,627.295,145.015L627.295,145.015z"/>
</g>
<g id="Circle_3_">
	<circle class="st3" cx="642.093" cy="126.499" r="83.134"/>
</g>
<g>
	<g id="Color_4_">
		<g class="st1">
			<g>
				<path class="st4" d="M781.153,141.615c12.092-39.3,48.369-89.181,83.134-111.854c-7.558-4.535-15.115-7.558-21.161-12.092
					c-4.535,30.231-33.254,69.531-46.858,96.738c-10.581,25.696-22.673,49.881-25.696,77.088
					c-1.512,13.604,19.65,16.627,25.696,6.046c22.673-36.277,45.346-71.042,71.042-105.808c-9.069-1.512-18.138-4.535-25.696-9.069
					c-6.046,24.185-21.161,46.858-31.742,69.531c-7.558,15.115,13.604,27.208,22.673,13.604
					c15.115-22.673,30.231-43.835,48.369-66.508c-7.558-4.535-15.115-9.069-22.673-12.092
					c-18.138,46.858-42.323,93.715-55.927,142.084c-4.535,15.115,16.627,22.673,24.185,10.581
					c19.65-28.719,36.277-58.95,55.927-86.158c6.046-10.581,45.346-81.623,55.927-83.134c-4.535-4.535-9.069-12.092-12.092-16.627
					c-6.046,25.696-48.369,95.227-27.208,117.9c19.65,22.673,51.392-16.627,64.996-27.208s-6.046-30.231-19.65-19.65
					c-4.535,4.535-27.208,27.208-30.231,25.696c10.581,4.535,16.627-22.673,18.138-27.208c7.558-19.65,15.115-40.811,19.65-61.973
					c1.512-7.558-4.535-18.138-12.092-16.627c-25.696,3.023-39.3,37.788-51.392,55.927c-28.719,42.323-55.927,83.134-83.134,126.969
					c7.558,4.535,16.627,6.046,24.185,10.581c12.092-49.881,36.277-96.738,54.415-143.596c4.535-12.092-13.604-22.673-22.673-12.092
					c-19.65,22.673-36.277,46.858-52.904,71.042c7.558,4.535,15.115,9.069,22.673,13.604c12.092-25.696,27.208-49.881,34.765-75.577
					c6.046-16.627-13.604-24.185-22.673-12.092c-25.696,34.765-48.369,69.531-71.042,105.808c9.069,3.023,16.627,4.535,25.696,6.046
					c6.046-63.485,64.996-111.854,72.554-173.827c0-10.581-13.604-16.627-21.161-10.581
					c-40.811,25.696-80.111,80.111-95.227,126.969C749.411,150.684,775.107,158.241,781.153,141.615L781.153,141.615z"/>
			</g>
		</g>
	</g>
</g>
<g id="Shape_11_4_">
	<path d="M898.237,112.321c-0.045-0.076,0.045-0.181,0.136-0.196c0.03,0.181,0.03,0.378,0,0.574
		C898.237,112.623,898.176,112.457,898.237,112.321L898.237,112.321z"/>
	<path d="M897.829,120.982c0.045,0.121,0.015,0.272-0.06,0.378c-0.076-0.166-0.076-0.363,0.03-0.514
		C897.829,120.876,897.844,120.937,897.829,120.982L897.829,120.982z"/>
	<path d="M899.401,92.58c-0.03-0.091-0.03-0.242,0.076-0.242c0.045,0.121,0.045,0.272,0,0.393
		C899.416,92.762,899.386,92.656,899.401,92.58L899.401,92.58z"/>
	<path d="M898.962,98.702c-0.03-0.121-0.03-0.272,0.076-0.317c0.03,0.121,0.03,0.242,0.015,0.363
		C899.023,98.808,898.932,98.762,898.962,98.702L898.962,98.702z"/>
	<path d="M898.962,97.719c0.121,0.076,0.136,0.272,0.015,0.348c-0.015-0.106-0.045-0.212-0.06-0.302L898.962,97.719z"/>
	<path d="M912.098,136.506c-0.106-0.03-0.166-0.166-0.121-0.272c0.106,0.045,0.166,0.181,0.121,0.287V136.506z"/>
	<path d="M898.554,104.264c0.121-0.03,0.121,0.197,0.015,0.257C898.569,104.431,898.554,104.34,898.554,104.264L898.554,104.264z"/>
	<path d="M909.619,115.646c-0.091-0.03,0.015-0.181,0.076-0.121c0.015,0.045,0.03,0.106,0,0.151c-0.03,0.045-0.121,0.015-0.106-0.03
		L909.619,115.646z"/>
	<path d="M897.798,120.513c-0.091-0.06-0.045-0.212,0.06-0.227C897.919,120.362,897.889,120.483,897.798,120.513L897.798,120.513z"
		/>
	<path d="M899.053,97.538c0.015,0.06-0.076,0.106-0.106,0.045c-0.015-0.045,0-0.106,0.03-0.151
		C899.008,97.463,899.038,97.493,899.053,97.538L899.053,97.538z"/>
	<path d="M908.152,102.058c-0.06-0.045-0.03-0.151,0.045-0.151C908.258,101.952,908.213,102.058,908.152,102.058L908.152,102.058z"
		/>
	<path d="M898.146,111.066c-0.076,0.03-0.106-0.106-0.06-0.166C898.161,110.87,898.176,111.006,898.146,111.066L898.146,111.066z"/>
	<path d="M909.483,115.284c-0.076,0.03-0.106-0.106-0.06-0.166C909.498,115.087,909.513,115.223,909.483,115.284L909.483,115.284z"
		/>
	<path d="M910.586,123.461c-0.076,0.03-0.106-0.106-0.06-0.166C910.601,123.264,910.631,123.385,910.586,123.461L910.586,123.461z"
		/>
	<path d="M909.755,116.054c-0.06-0.015-0.091-0.106-0.06-0.166c0.045,0,0.106,0.015,0.121,0.06
		C909.83,115.994,909.8,116.054,909.755,116.054L909.755,116.054z"/>
	<path d="M903.618,116.357c-0.03-0.03-0.045-0.06-0.076-0.091c0.03-0.045,0.091-0.076,0.151-0.091c0.03,0.06,0,0.136-0.06,0.166
		L903.618,116.357z"/>
	<path d="M906.067,134.042c-0.045,0.045-0.106,0.045-0.151,0.015c0.03-0.121,0.06-0.257,0.06-0.393
		C906.097,133.739,906.082,133.906,906.067,134.042L906.067,134.042z"/>
	<path d="M903.316,125.849c-0.045,0.015-0.091-0.045-0.091-0.106c0.015-0.045,0.045-0.091,0.091-0.121
		C903.346,125.698,903.346,125.774,903.316,125.849L903.316,125.849z"/>
	<path d="M905.87,134.525c0.06-0.015,0.166,0.015,0.136,0.076C905.961,134.677,905.81,134.586,905.87,134.525L905.87,134.525z"/>
	<path d="M902.968,135.024c0.06,0.045,0.015,0.166-0.06,0.166C902.877,135.13,902.923,135.039,902.968,135.024L902.968,135.024z"/>
	<path d="M905.205,126.015c0.091,0,0.166,0.106,0.106,0.166C905.22,126.182,905.145,126.076,905.205,126.015L905.205,126.015z"/>
	<path d="M792.747,157.274c-0.06,0.453-0.181,0.967-0.559,1.209c-0.257,0.166-0.589,0.166-0.892,0.166
		c-3.839,0-7.664,0.015-11.503,0.015c-0.423,0-0.892-0.015-1.224-0.302c-0.378-0.333-0.393-0.922-0.378-1.421
		c0.559-21.146,1.119-42.278,1.678-63.424c0.015-0.408,0.03-0.846,0.287-1.164c0.302-0.378,0.846-0.469,1.33-0.514
		c1.512-0.166,3.356-0.166,4.172,1.119c0.423,0.68,0.408,1.527,0.393,2.328c-0.529,19.076-1.073,38.166-1.617,57.242
		c0,0.196,0.212,0.333,0.408,0.393c1.27,0.438,2.66,0.151,3.99,0.06c1.345-0.076,2.872,0.181,3.597,1.3
		C792.989,155.143,792.898,156.261,792.747,157.274z"/>
	<path d="M855.037,127.104c0.181-0.212,0.484-0.257,0.756-0.302c1.738-0.257,3.93-0.302,4.776,1.239
		c0.333,0.62,0.348,1.36,0.363,2.071c0.045,6.318,0.106,12.636,0.151,18.94c0,0.831,0.015,1.693,0.348,2.464
		c0.574,1.3,2.116,2.086,3.492,1.768c1.375-0.302,2.449-1.678,2.418-3.084c-0.469-18.199-0.71-36.413-0.907-54.627
		c-0.015-0.756,0-1.557,0.393-2.192c0.741-1.224,2.449-1.33,3.87-1.3c0.589,0.015,1.27,0.076,1.602,0.574
		c0.212,0.302,0.212,0.695,0.227,1.058c0.227,16.294,0.453,32.604,0.68,48.913c0.03,1.935,0.06,3.87,0.076,5.804
		c0.03,2.146,0.03,4.383-0.952,6.273c-0.937,1.784-2.675,3.053-4.595,3.643c-1.92,0.59-3.99,0.529-5.955,0.091
		c-1.738-0.378-3.461-1.103-4.656-2.418c-1.935-2.131-2.071-5.29-2.101-8.177c-0.06-6.636-0.121-13.271-0.181-19.907
		C854.841,127.633,854.841,127.315,855.037,127.104z"/>
	<path d="M902.242,146.346c-0.03,2.645-0.06,5.275-0.091,7.92c-0.015,1.028-0.06,2.146-0.741,2.932
		c-0.786,0.892-2.101,0.998-3.295,1.028c-0.71,0.015-1.512,0-1.965-0.544c-0.363-0.438-0.348-1.073-0.317-1.648
		c0.559-9.704,1.134-19.393,1.693-29.097c0.665-10.974,1.33-21.963,1.995-32.936c0.03-0.438,0.06-0.877,0.287-1.255
		c0.484-0.786,1.587-0.846,2.509-0.816c1.088,0.03,2.161,0.076,3.25,0.106c0.378,0.015,0.786,0.045,1.028,0.333
		c0.166,0.197,0.196,0.453,0.227,0.71c2.494,21.041,4.912,42.081,7.24,63.137c0.06,0.544,0.076,1.224-0.393,1.527
		c-0.196,0.136-0.423,0.166-0.65,0.196c-1.738,0.257-3.915,0.333-4.792-1.194c-0.317-0.544-0.378-1.209-0.438-1.829
		c-0.212-2.449-0.438-4.882-0.65-7.331c-0.076-0.922-1.255-1.3-2.177-1.209C904.056,146.467,903.074,146.784,902.242,146.346
		 M906.323,136.324c-0.06-0.212,0.06-0.438,0.257-0.514c-0.121-0.287-0.302-0.559-0.514-0.771c0.227-0.544,0.196-1.194-0.06-1.723
		c-0.045-2.373-0.212-4.761-0.484-7.119c-0.03-0.196-0.076-0.438-0.272-0.499c-0.181-3.839-0.484-7.663-0.907-11.473
		c0.106-0.045,0.076,0.212-0.045,0.166c-0.121-0.03-0.136-0.181-0.136-0.302c0.03-2.025-0.106-4.051-0.423-6.046
		c-0.106,2.146-0.166,4.293-0.166,6.424c0,0.529-0.076,1.058-0.257,1.542c-0.015,3.008-0.045,5.986-0.076,8.979
		c-0.212,0.106-0.242,0.408-0.257,0.65c-0.06,3.038-0.091,6.076-0.106,9.13c-0.212,0.574-0.227,1.224-0.045,1.799
		c-0.181,0.166-0.196,0.438-0.196,0.68c-0.015,1.043-0.03,2.086-0.045,3.129c0,0.121,0,0.242,0.06,0.348
		c0.106,0.181,0.363,0.212,0.574,0.212c0.952,0,1.92,0,2.872,0c0.181,0,0.378,0,0.499-0.121c0.181-0.151,0.181-0.423,0.166-0.65
		c-0.076-1.209-0.151-2.434-0.227-3.643C906.475,136.445,906.399,136.385,906.323,136.324z"/>
	<path d="M821.95,146.512c-0.529,0-1.255,0.151-1.27,0.68c-0.091,2.343-0.197,4.686-0.287,7.044
		c-0.045,1.194-0.151,2.524-0.998,3.356c-0.937,0.922-2.403,0.937-3.718,0.892c-0.574-0.015-1.239-0.106-1.527-0.589
		c-0.166-0.302-0.151-0.68-0.106-1.028c2.071-21.01,4.157-42.021,6.228-63.046c0.045-0.408,0.091-0.831,0.317-1.164
		c0.453-0.635,1.375-0.665,2.161-0.635c1.103,0.045,2.237,0.091,3.371,0.151c0.408,0.015,0.862,0.045,1.119,0.363
		c0.181,0.227,0.227,0.544,0.242,0.831c1.768,21.086,3.446,42.187,4.988,63.288c0.03,0.348,0.045,0.71-0.136,0.998
		c-0.272,0.469-0.892,0.559-1.421,0.605c-1.632,0.136-3.673,0.076-4.383-1.406c-0.227-0.469-0.257-1.013-0.287-1.527
		c-0.166-2.917-0.348-5.85-0.529-8.767C824.459,146.542,823.204,146.527,821.95,146.512 M824.912,141.055
		c0.408,0,0.952-0.151,0.922-0.544c-0.484-8.238-0.967-16.476-1.451-24.714c-0.151-2.66-0.302-5.321-0.469-7.981
		c-0.831,10.762-1.663,21.539-2.509,32.317c-0.03,0.333,0,0.756,0.302,0.892c0.106,0.06,0.242,0.06,0.363,0.06
		C823.023,141.07,823.975,141.055,824.912,141.055 M831.351,145.015c-0.091,0-0.106,0.136-0.06,0.227
		C831.351,145.182,831.366,145.091,831.351,145.015L831.351,145.015z"/>
</g>
<g id="Circle_4_">
	<circle class="st3" cx="846.149" cy="126.499" r="83.134"/>
</g>
<g>
	<g id="Color_5_">
		<g class="st1">
			<g>
				<path class="st5" d="M984.916,140.103c12.092-39.3,48.369-89.181,83.134-111.854c-7.558-4.535-15.115-7.558-21.161-12.092
					c-4.535,30.231-33.254,69.531-46.858,96.738c-10.581,25.696-22.673,49.881-25.696,77.088
					c-1.512,13.604,19.65,16.627,25.696,6.046c22.673-36.277,45.346-71.042,71.042-105.808c-9.069-1.512-18.138-4.535-25.696-9.069
					c-6.046,24.185-21.161,46.858-31.742,69.531c-7.558,15.115,13.604,27.208,22.673,13.604
					c15.115-22.673,30.231-43.835,48.369-66.508c-7.558-4.535-15.115-9.069-22.673-12.092
					c-18.138,46.858-42.323,93.715-55.927,142.084c-4.535,15.115,16.627,22.673,24.185,10.581
					c19.65-28.719,36.277-58.95,55.927-86.158c6.046-10.581,45.346-81.623,55.927-83.134c-4.535-4.535-9.069-12.092-12.092-16.627
					c-6.046,25.696-48.369,95.227-27.208,117.9c19.65,22.673,51.392-16.627,64.996-27.208c13.604-10.581-6.046-30.231-19.65-19.65
					c-4.535,4.535-27.208,27.208-30.231,25.696c10.581,4.535,16.627-22.673,18.138-27.208c7.558-19.65,15.115-40.811,19.65-61.973
					c1.511-7.558-4.535-18.138-12.092-16.627c-25.696,3.023-39.3,37.788-51.392,55.927c-28.719,42.323-55.927,83.134-83.134,126.969
					c7.558,4.535,16.627,6.046,24.185,10.581c12.092-49.881,36.277-96.738,54.415-143.596c4.535-12.092-13.604-22.673-22.673-12.092
					c-19.65,22.673-36.277,46.858-52.904,71.042c7.558,4.535,15.115,9.069,22.673,13.604c12.092-25.696,27.208-49.881,34.765-75.577
					c6.046-16.627-13.604-24.185-22.673-12.092c-25.696,34.765-48.369,69.531-71.042,105.808c9.069,3.023,16.627,4.535,25.696,6.046
					c6.046-63.485,64.996-111.854,72.554-173.827c0-10.581-13.604-16.627-21.161-10.581
					c-40.811,25.696-80.111,80.111-95.227,126.969C953.174,149.172,978.87,156.73,984.916,140.103L984.916,140.103z"/>
			</g>
		</g>
	</g>
</g>
<g id="Shape_11_5_">
	<path d="M1102,110.809c-0.045-0.076,0.045-0.181,0.136-0.197c0.03,0.181,0.03,0.378,0,0.574
		C1102,111.112,1101.939,110.945,1102,110.809L1102,110.809z"/>
	<path d="M1101.592,119.47c0.045,0.121,0.015,0.272-0.06,0.378c-0.076-0.166-0.076-0.363,0.03-0.514
		C1101.592,119.365,1101.607,119.425,1101.592,119.47L1101.592,119.47z"/>
	<path d="M1103.164,91.069c-0.03-0.091-0.03-0.242,0.076-0.242c0.045,0.121,0.045,0.272,0,0.393
		C1103.179,91.25,1103.148,91.144,1103.164,91.069L1103.164,91.069z"/>
	<path d="M1102.725,97.19c-0.03-0.121-0.03-0.272,0.076-0.317c0.03,0.121,0.03,0.242,0.015,0.363
		C1102.786,97.296,1102.695,97.251,1102.725,97.19L1102.725,97.19z"/>
	<path d="M1102.725,96.208c0.121,0.076,0.136,0.272,0.015,0.348c-0.015-0.106-0.045-0.212-0.06-0.302L1102.725,96.208z"/>
	<path d="M1115.86,134.994c-0.106-0.03-0.166-0.166-0.121-0.272c0.106,0.045,0.166,0.181,0.121,0.287V134.994z"/>
	<path d="M1102.317,102.753c0.121-0.03,0.121,0.196,0.015,0.257C1102.332,102.919,1102.317,102.828,1102.317,102.753
		L1102.317,102.753z"/>
	<path d="M1113.382,114.135c-0.091-0.03,0.015-0.181,0.076-0.121c0.015,0.045,0.03,0.106,0,0.151
		c-0.03,0.045-0.121,0.015-0.106-0.03L1113.382,114.135z"/>
	<path d="M1101.561,119.002c-0.091-0.06-0.045-0.212,0.061-0.227C1101.682,118.851,1101.652,118.972,1101.561,119.002
		L1101.561,119.002z"/>
	<path d="M1102.816,96.027c0.015,0.06-0.076,0.106-0.106,0.045c-0.015-0.045,0-0.106,0.03-0.151
		C1102.771,95.951,1102.801,95.981,1102.816,96.027L1102.816,96.027z"/>
	<path d="M1111.915,100.546c-0.061-0.045-0.03-0.151,0.045-0.151C1112.021,100.44,1111.976,100.546,1111.915,100.546
		L1111.915,100.546z"/>
	<path d="M1101.909,109.555c-0.076,0.03-0.106-0.106-0.06-0.166C1101.924,109.358,1101.939,109.494,1101.909,109.555
		L1101.909,109.555z"/>
	<path d="M1113.245,113.772c-0.076,0.03-0.106-0.106-0.06-0.166C1113.261,113.575,1113.276,113.712,1113.245,113.772
		L1113.245,113.772z"/>
	<path d="M1114.349,121.949c-0.076,0.03-0.106-0.106-0.06-0.166C1114.364,121.753,1114.394,121.874,1114.349,121.949
		L1114.349,121.949z"/>
	<path d="M1113.518,114.543c-0.06-0.015-0.091-0.106-0.06-0.166c0.045,0,0.106,0.015,0.121,0.06
		C1113.593,114.482,1113.563,114.543,1113.518,114.543L1113.518,114.543z"/>
	<path d="M1107.381,114.845c-0.03-0.03-0.045-0.06-0.076-0.091c0.03-0.045,0.091-0.076,0.151-0.091c0.03,0.06,0,0.136-0.06,0.166
		L1107.381,114.845z"/>
	<path d="M1109.829,132.53c-0.045,0.045-0.106,0.045-0.151,0.015c0.03-0.121,0.06-0.257,0.06-0.393
		C1109.86,132.228,1109.845,132.394,1109.829,132.53L1109.829,132.53z"/>
	<path d="M1107.078,124.338c-0.045,0.015-0.091-0.045-0.091-0.106c0.015-0.045,0.045-0.091,0.091-0.121
		C1107.109,124.186,1107.109,124.262,1107.078,124.338L1107.078,124.338z"/>
	<path d="M1109.633,133.014c0.06-0.015,0.166,0.015,0.136,0.076C1109.724,133.165,1109.573,133.074,1109.633,133.014
		L1109.633,133.014z"/>
	<path d="M1106.731,133.513c0.06,0.045,0.015,0.166-0.061,0.166C1106.64,133.618,1106.685,133.528,1106.731,133.513
		L1106.731,133.513z"/>
	<path d="M1108.968,124.504c0.091,0,0.166,0.106,0.106,0.166C1108.983,124.67,1108.907,124.564,1108.968,124.504L1108.968,124.504z"
		/>
	<path d="M996.51,155.762c-0.06,0.453-0.181,0.967-0.559,1.209c-0.257,0.166-0.59,0.166-0.892,0.166
		c-3.839,0-7.663,0.015-11.503,0.015c-0.423,0-0.892-0.015-1.224-0.302c-0.378-0.333-0.393-0.922-0.378-1.421
		c0.559-21.146,1.119-42.278,1.678-63.424c0.015-0.408,0.03-0.846,0.287-1.164c0.302-0.378,0.846-0.469,1.33-0.514
		c1.512-0.166,3.356-0.166,4.172,1.119c0.423,0.68,0.408,1.527,0.393,2.328c-0.529,19.076-1.073,38.166-1.617,57.242
		c0,0.197,0.212,0.333,0.408,0.393c1.27,0.438,2.66,0.151,3.99,0.06c1.345-0.076,2.872,0.181,3.597,1.3
		C996.751,153.631,996.661,154.75,996.51,155.762z"/>
	<path d="M1058.8,125.592c0.181-0.212,0.484-0.257,0.756-0.302c1.738-0.257,3.93-0.302,4.776,1.239
		c0.333,0.62,0.348,1.36,0.363,2.071c0.045,6.318,0.106,12.636,0.151,18.94c0,0.831,0.015,1.693,0.348,2.464
		c0.574,1.3,2.116,2.086,3.492,1.768c1.375-0.302,2.449-1.678,2.418-3.084c-0.469-18.199-0.71-36.413-0.907-54.627
		c-0.015-0.756,0-1.557,0.393-2.192c0.741-1.224,2.449-1.33,3.87-1.3c0.589,0.015,1.27,0.076,1.602,0.574
		c0.212,0.302,0.212,0.695,0.227,1.058c0.227,16.294,0.453,32.604,0.68,48.913c0.03,1.935,0.06,3.87,0.076,5.804
		c0.03,2.146,0.03,4.383-0.952,6.273c-0.937,1.784-2.675,3.053-4.595,3.643c-1.92,0.589-3.99,0.529-5.955,0.091
		c-1.738-0.378-3.461-1.103-4.656-2.418c-1.935-2.131-2.071-5.29-2.101-8.177c-0.061-6.636-0.121-13.271-0.181-19.907
		C1058.604,126.121,1058.604,125.804,1058.8,125.592z"/>
	<path d="M1106.005,144.834c-0.03,2.645-0.06,5.275-0.091,7.92c-0.015,1.028-0.06,2.146-0.741,2.932
		c-0.786,0.892-2.101,0.998-3.295,1.028c-0.71,0.015-1.512,0-1.965-0.544c-0.363-0.438-0.348-1.073-0.318-1.648
		c0.559-9.704,1.134-19.393,1.693-29.097c0.665-10.974,1.33-21.963,1.995-32.936c0.03-0.438,0.06-0.877,0.287-1.255
		c0.484-0.786,1.587-0.846,2.509-0.816c1.088,0.03,2.161,0.076,3.25,0.106c0.378,0.015,0.786,0.045,1.028,0.333
		c0.166,0.197,0.196,0.453,0.227,0.71c2.494,21.041,4.912,42.081,7.24,63.137c0.061,0.544,0.076,1.224-0.393,1.527
		c-0.197,0.136-0.423,0.166-0.65,0.196c-1.738,0.257-3.915,0.333-4.792-1.194c-0.317-0.544-0.378-1.209-0.438-1.829
		c-0.212-2.449-0.438-4.882-0.65-7.331c-0.076-0.922-1.255-1.3-2.177-1.209C1107.819,144.955,1106.837,145.272,1106.005,144.834
		 M1110.086,134.813c-0.061-0.212,0.06-0.438,0.257-0.514c-0.121-0.287-0.302-0.559-0.514-0.771
		c0.227-0.544,0.196-1.194-0.061-1.723c-0.045-2.373-0.212-4.761-0.484-7.119c-0.03-0.196-0.076-0.438-0.272-0.499
		c-0.181-3.839-0.484-7.663-0.907-11.473c0.106-0.045,0.076,0.212-0.045,0.166c-0.121-0.03-0.136-0.181-0.136-0.302
		c0.03-2.025-0.106-4.051-0.423-6.046c-0.106,2.146-0.166,4.293-0.166,6.424c0,0.529-0.076,1.058-0.257,1.542
		c-0.015,3.008-0.045,5.986-0.076,8.979c-0.212,0.106-0.242,0.408-0.257,0.65c-0.06,3.038-0.091,6.076-0.106,9.13
		c-0.212,0.574-0.227,1.224-0.045,1.799c-0.181,0.166-0.197,0.438-0.197,0.68c-0.015,1.043-0.03,2.086-0.045,3.129
		c0,0.121,0,0.242,0.06,0.348c0.106,0.181,0.363,0.212,0.574,0.212c0.952,0,1.92,0,2.872,0c0.181,0,0.378,0,0.499-0.121
		c0.181-0.151,0.181-0.423,0.166-0.65c-0.076-1.209-0.151-2.434-0.227-3.643C1110.238,134.933,1110.162,134.873,1110.086,134.813z"
		/>
	<path d="M1025.712,145c-0.529,0-1.255,0.151-1.27,0.68c-0.091,2.343-0.197,4.686-0.287,7.044c-0.045,1.194-0.151,2.524-0.998,3.356
		c-0.937,0.922-2.403,0.937-3.718,0.892c-0.574-0.015-1.239-0.106-1.527-0.589c-0.166-0.302-0.151-0.68-0.106-1.028
		c2.071-21.01,4.157-42.021,6.228-63.046c0.045-0.408,0.091-0.831,0.317-1.164c0.453-0.635,1.375-0.665,2.161-0.635
		c1.103,0.045,2.237,0.091,3.371,0.151c0.408,0.015,0.862,0.045,1.119,0.363c0.181,0.227,0.227,0.544,0.242,0.831
		c1.769,21.086,3.446,42.187,4.988,63.288c0.03,0.348,0.045,0.71-0.136,0.998c-0.272,0.469-0.892,0.559-1.421,0.605
		c-1.632,0.136-3.673,0.076-4.384-1.406c-0.227-0.469-0.257-1.013-0.287-1.527c-0.166-2.917-0.348-5.85-0.529-8.767
		C1028.222,145.031,1026.967,145.015,1025.712,145 M1028.675,139.544c0.408,0,0.952-0.151,0.922-0.544
		c-0.484-8.238-0.967-16.476-1.451-24.714c-0.151-2.66-0.302-5.321-0.469-7.981c-0.831,10.762-1.663,21.539-2.509,32.317
		c-0.03,0.333,0,0.756,0.302,0.892c0.106,0.06,0.242,0.06,0.363,0.06C1026.786,139.559,1027.738,139.544,1028.675,139.544
		 M1035.114,143.504c-0.091,0-0.106,0.136-0.061,0.227C1035.114,143.67,1035.129,143.579,1035.114,143.504L1035.114,143.504z"/>
</g>
<g id="Circle_5_">
	<circle class="st3" cx="1049.912" cy="124.988" r="83.134"/>
</g>
<g>
	<g id="Color_7_">
		<g class="st1">
			<g>
				<path class="st2" d="M1189.072,140.216c12.092-39.3,48.369-89.181,83.134-111.854c-7.558-4.535-15.115-7.558-21.161-12.092
					c-4.535,30.231-33.254,69.531-46.858,96.738c-10.581,25.696-22.673,49.881-25.696,77.088
					c-1.511,13.604,19.65,16.627,25.696,6.046c22.673-36.277,45.346-71.042,71.042-105.808c-9.069-1.512-18.138-4.535-25.696-9.069
					c-6.046,24.185-21.161,46.858-31.742,69.531c-7.558,15.115,13.604,27.208,22.673,13.604
					c15.115-22.673,30.231-43.835,48.369-66.508c-7.558-4.535-15.115-9.069-22.673-12.092
					c-18.138,46.858-42.323,93.715-55.927,142.084c-4.535,15.115,16.627,22.673,24.185,10.581
					c19.65-28.719,36.277-58.95,55.927-86.158c6.046-10.581,45.346-81.623,55.927-83.134c-4.535-4.535-9.069-12.092-12.092-16.627
					c-6.046,25.696-48.369,95.227-27.208,117.9c19.65,22.673,51.392-16.627,64.996-27.208c13.604-10.581-6.046-30.231-19.65-19.65
					c-4.535,4.535-27.208,27.208-30.231,25.696c10.581,4.535,16.627-22.673,18.138-27.208c7.558-19.65,15.115-40.811,19.65-61.973
					c1.511-7.558-4.535-18.138-12.092-16.627c-25.696,3.023-39.3,37.788-51.392,55.927c-28.719,42.323-55.927,83.134-83.134,126.969
					c7.558,4.535,16.627,6.046,24.185,10.581c12.092-49.881,36.277-96.738,54.415-143.596c4.535-12.092-13.604-22.673-22.673-12.092
					c-19.65,22.673-36.277,46.858-52.904,71.042c7.558,4.535,15.115,9.069,22.673,13.604c12.092-25.696,27.208-49.881,34.765-75.577
					c6.046-16.627-13.604-24.185-22.673-12.092c-25.696,34.765-48.369,69.531-71.042,105.808c9.069,3.023,16.627,4.535,25.696,6.046
					c6.046-63.485,64.996-111.854,72.554-173.827c0-10.581-13.604-16.627-21.161-10.581
					c-40.811,25.696-80.111,80.111-95.227,126.969C1157.33,149.286,1183.026,156.843,1189.072,140.216L1189.072,140.216z"/>
			</g>
		</g>
	</g>
</g>
<g id="Shape_11_7_">
	<path d="M1306.155,110.923c-0.045-0.076,0.045-0.181,0.136-0.196c0.03,0.181,0.03,0.378,0,0.574
		C1306.155,111.225,1306.095,111.059,1306.155,110.923L1306.155,110.923z"/>
	<path d="M1305.747,119.584c0.045,0.121,0.015,0.272-0.06,0.378c-0.076-0.166-0.076-0.363,0.03-0.514
		C1305.747,119.478,1305.762,119.538,1305.747,119.584L1305.747,119.584z"/>
	<path d="M1307.319,91.182c-0.03-0.091-0.03-0.242,0.076-0.242c0.045,0.121,0.045,0.272,0,0.393
		C1307.334,91.363,1307.304,91.258,1307.319,91.182L1307.319,91.182z"/>
	<path d="M1306.881,97.304c-0.03-0.121-0.03-0.272,0.076-0.317c0.03,0.121,0.03,0.242,0.015,0.363
		C1306.941,97.41,1306.851,97.364,1306.881,97.304L1306.881,97.304z"/>
	<path d="M1306.881,96.321c0.121,0.076,0.136,0.272,0.015,0.348c-0.015-0.106-0.045-0.212-0.06-0.302L1306.881,96.321z"/>
	<path d="M1320.016,135.107c-0.106-0.03-0.166-0.166-0.121-0.272c0.106,0.045,0.166,0.181,0.121,0.287V135.107z"/>
	<path d="M1306.473,102.866c0.121-0.03,0.121,0.197,0.015,0.257C1306.488,103.032,1306.473,102.942,1306.473,102.866
		L1306.473,102.866z"/>
	<path d="M1317.537,114.248c-0.091-0.03,0.015-0.181,0.076-0.121c0.015,0.045,0.03,0.106,0,0.151
		c-0.03,0.045-0.121,0.015-0.106-0.03L1317.537,114.248z"/>
	<path d="M1305.717,119.115c-0.091-0.06-0.045-0.212,0.06-0.227C1305.838,118.964,1305.808,119.085,1305.717,119.115
		L1305.717,119.115z"/>
	<path d="M1306.972,96.14c0.015,0.06-0.076,0.106-0.106,0.045c-0.015-0.045,0-0.106,0.03-0.151
		C1306.926,96.064,1306.957,96.095,1306.972,96.14L1306.972,96.14z"/>
	<path d="M1316.071,100.659c-0.061-0.045-0.03-0.151,0.045-0.151C1316.177,100.554,1316.132,100.659,1316.071,100.659
		L1316.071,100.659z"/>
	<path d="M1306.065,109.668c-0.076,0.03-0.106-0.106-0.061-0.166C1306.08,109.472,1306.095,109.608,1306.065,109.668
		L1306.065,109.668z"/>
	<path d="M1317.401,113.885c-0.076,0.03-0.106-0.106-0.06-0.166C1317.416,113.689,1317.432,113.825,1317.401,113.885
		L1317.401,113.885z"/>
	<path d="M1318.505,122.063c-0.076,0.03-0.106-0.106-0.061-0.166C1318.52,121.866,1318.55,121.987,1318.505,122.063
		L1318.505,122.063z"/>
	<path d="M1317.673,114.656c-0.06-0.015-0.091-0.106-0.06-0.166c0.045,0,0.106,0.015,0.121,0.06
		C1317.749,114.596,1317.719,114.656,1317.673,114.656L1317.673,114.656z"/>
	<path d="M1311.536,114.959c-0.03-0.03-0.045-0.06-0.076-0.091c0.03-0.045,0.091-0.076,0.151-0.091c0.03,0.06,0,0.136-0.06,0.166
		L1311.536,114.959z"/>
	<path d="M1313.985,132.643c-0.045,0.045-0.106,0.045-0.151,0.015c0.03-0.121,0.06-0.257,0.06-0.393
		C1314.016,132.341,1314,132.507,1313.985,132.643L1313.985,132.643z"/>
	<path d="M1311.234,124.451c-0.045,0.015-0.091-0.045-0.091-0.106c0.015-0.045,0.045-0.091,0.091-0.121
		C1311.264,124.3,1311.264,124.375,1311.234,124.451L1311.234,124.451z"/>
	<path d="M1313.789,133.127c0.06-0.015,0.166,0.015,0.136,0.076C1313.879,133.278,1313.728,133.188,1313.789,133.127
		L1313.789,133.127z"/>
	<path d="M1310.887,133.626c0.06,0.045,0.015,0.166-0.06,0.166C1310.796,133.732,1310.841,133.641,1310.887,133.626
		L1310.887,133.626z"/>
	<path d="M1313.124,124.617c0.091,0,0.166,0.106,0.106,0.166C1313.139,124.784,1313.063,124.678,1313.124,124.617L1313.124,124.617z
		"/>
	<path d="M1200.665,155.876c-0.06,0.453-0.181,0.967-0.559,1.209c-0.257,0.166-0.589,0.166-0.892,0.166
		c-3.839,0-7.663,0.015-11.503,0.015c-0.423,0-0.892-0.015-1.224-0.302c-0.378-0.333-0.393-0.922-0.378-1.421
		c0.559-21.146,1.119-42.278,1.678-63.424c0.015-0.408,0.03-0.846,0.287-1.164c0.302-0.378,0.846-0.469,1.33-0.514
		c1.511-0.166,3.356-0.166,4.172,1.119c0.423,0.68,0.408,1.527,0.393,2.328c-0.529,19.076-1.073,38.166-1.617,57.242
		c0,0.196,0.212,0.333,0.408,0.393c1.27,0.438,2.66,0.151,3.99,0.06c1.345-0.076,2.872,0.181,3.597,1.3
		C1200.907,153.745,1200.817,154.863,1200.665,155.876z"/>
	<path d="M1262.956,125.706c0.181-0.212,0.484-0.257,0.756-0.302c1.738-0.257,3.93-0.302,4.776,1.239
		c0.333,0.62,0.348,1.36,0.363,2.071c0.045,6.318,0.106,12.636,0.151,18.94c0,0.831,0.015,1.693,0.348,2.464
		c0.574,1.3,2.116,2.086,3.492,1.768c1.375-0.302,2.449-1.678,2.418-3.084c-0.469-18.199-0.71-36.413-0.907-54.627
		c-0.015-0.756,0-1.557,0.393-2.192c0.741-1.224,2.449-1.33,3.87-1.3c0.589,0.015,1.27,0.076,1.602,0.574
		c0.212,0.302,0.212,0.695,0.227,1.058c0.227,16.294,0.453,32.604,0.68,48.913c0.03,1.935,0.06,3.87,0.076,5.804
		c0.03,2.146,0.03,4.383-0.952,6.273c-0.937,1.784-2.675,3.053-4.595,3.643c-1.92,0.59-3.99,0.529-5.956,0.091
		c-1.738-0.378-3.461-1.103-4.656-2.418c-1.935-2.131-2.071-5.29-2.101-8.177c-0.061-6.636-0.121-13.271-0.181-19.907
		C1262.759,126.235,1262.759,125.917,1262.956,125.706z"/>
	<path d="M1310.161,144.947c-0.03,2.645-0.06,5.275-0.091,7.92c-0.015,1.028-0.06,2.146-0.741,2.932
		c-0.786,0.892-2.101,0.998-3.295,1.028c-0.71,0.015-1.512,0-1.965-0.544c-0.363-0.438-0.348-1.073-0.318-1.648
		c0.559-9.704,1.134-19.393,1.693-29.097c0.665-10.974,1.33-21.963,1.995-32.936c0.03-0.438,0.06-0.877,0.287-1.255
		c0.484-0.786,1.587-0.846,2.509-0.816c1.088,0.03,2.161,0.076,3.25,0.106c0.378,0.015,0.786,0.045,1.028,0.333
		c0.166,0.197,0.197,0.453,0.227,0.71c2.494,21.041,4.912,42.081,7.24,63.137c0.061,0.544,0.076,1.224-0.393,1.527
		c-0.197,0.136-0.423,0.166-0.65,0.196c-1.738,0.257-3.915,0.333-4.792-1.194c-0.317-0.544-0.378-1.209-0.438-1.829
		c-0.212-2.449-0.438-4.882-0.65-7.331c-0.076-0.922-1.255-1.3-2.177-1.209C1311.975,145.068,1310.992,145.386,1310.161,144.947
		 M1314.242,134.926c-0.06-0.212,0.06-0.438,0.257-0.514c-0.121-0.287-0.302-0.559-0.514-0.771c0.227-0.544,0.196-1.194-0.06-1.723
		c-0.045-2.373-0.212-4.761-0.484-7.119c-0.03-0.196-0.076-0.438-0.272-0.499c-0.181-3.839-0.484-7.663-0.907-11.473
		c0.106-0.045,0.076,0.212-0.045,0.166c-0.121-0.03-0.136-0.181-0.136-0.302c0.03-2.025-0.106-4.051-0.423-6.046
		c-0.106,2.146-0.166,4.293-0.166,6.424c0,0.529-0.076,1.058-0.257,1.542c-0.015,3.008-0.045,5.986-0.076,8.979
		c-0.212,0.106-0.242,0.408-0.257,0.65c-0.061,3.038-0.091,6.076-0.106,9.13c-0.212,0.574-0.227,1.224-0.045,1.799
		c-0.181,0.166-0.196,0.438-0.196,0.68c-0.015,1.043-0.03,2.086-0.045,3.129c0,0.121,0,0.242,0.06,0.348
		c0.106,0.181,0.363,0.212,0.574,0.212c0.952,0,1.92,0,2.872,0c0.181,0,0.378,0,0.499-0.121c0.181-0.151,0.181-0.423,0.166-0.65
		c-0.076-1.209-0.151-2.434-0.227-3.643C1314.393,135.047,1314.318,134.986,1314.242,134.926z"/>
	<path d="M1229.868,145.114c-0.529,0-1.255,0.151-1.27,0.68c-0.091,2.343-0.197,4.686-0.287,7.044
		c-0.045,1.194-0.151,2.524-0.998,3.356c-0.937,0.922-2.403,0.937-3.718,0.892c-0.574-0.015-1.24-0.106-1.527-0.589
		c-0.166-0.302-0.151-0.68-0.106-1.028c2.071-21.01,4.157-42.021,6.228-63.046c0.045-0.408,0.091-0.831,0.317-1.164
		c0.453-0.635,1.375-0.665,2.161-0.635c1.103,0.045,2.237,0.091,3.371,0.151c0.408,0.015,0.862,0.045,1.119,0.363
		c0.181,0.227,0.227,0.544,0.242,0.831c1.769,21.086,3.446,42.187,4.988,63.288c0.03,0.348,0.045,0.71-0.136,0.998
		c-0.272,0.469-0.892,0.559-1.421,0.605c-1.632,0.136-3.673,0.076-4.384-1.406c-0.227-0.469-0.257-1.013-0.287-1.527
		c-0.166-2.917-0.348-5.85-0.529-8.767C1232.377,145.144,1231.123,145.129,1229.868,145.114 M1232.831,139.657
		c0.408,0,0.952-0.151,0.922-0.544c-0.484-8.238-0.967-16.476-1.451-24.714c-0.151-2.66-0.302-5.321-0.469-7.981
		c-0.831,10.762-1.663,21.539-2.509,32.317c-0.03,0.333,0,0.756,0.302,0.892c0.106,0.06,0.242,0.06,0.363,0.06
		C1230.941,139.672,1231.894,139.657,1232.831,139.657 M1239.27,143.617c-0.091,0-0.106,0.136-0.061,0.227
		C1239.27,143.784,1239.285,143.693,1239.27,143.617L1239.27,143.617z"/>
</g>
<g id="Circle_7_">
	<circle class="st3" cx="1254.068" cy="125.101" r="83.134"/>
</g>
<g>
	<g id="Color_8_">
		<g class="st1">
			<g>
				<path class="st4" d="M1392.735,139.897c12.092-39.3,48.369-89.181,83.135-111.854c-7.558-4.535-15.115-7.558-21.161-12.092
					c-4.535,30.231-33.254,69.531-46.858,96.738c-10.581,25.696-22.673,49.881-25.696,77.088
					c-1.512,13.604,19.65,16.627,25.696,6.046c22.673-36.277,45.346-71.042,71.042-105.808c-9.069-1.512-18.138-4.535-25.696-9.069
					c-6.046,24.185-21.161,46.858-31.742,69.531c-7.558,15.115,13.604,27.208,22.673,13.604
					c15.115-22.673,30.231-43.835,48.369-66.508c-7.558-4.535-15.115-9.069-22.673-12.092
					c-18.138,46.858-42.323,93.715-55.927,142.084c-4.535,15.115,16.627,22.673,24.185,10.581
					c19.65-28.719,36.277-58.95,55.927-86.158c6.046-10.581,45.346-81.623,55.927-83.134c-4.535-4.535-9.069-12.092-12.092-16.627
					c-6.046,25.696-48.369,95.227-27.208,117.9c19.65,22.673,51.392-16.627,64.996-27.208c13.604-10.581-6.046-30.231-19.65-19.65
					c-4.535,4.535-27.208,27.208-30.231,25.696c10.581,4.535,16.627-22.673,18.139-27.208c7.558-19.65,15.115-40.811,19.65-61.973
					c1.512-7.558-4.535-18.138-12.092-16.627c-25.696,3.023-39.3,37.788-51.392,55.927c-28.719,42.323-55.927,83.134-83.135,126.969
					c7.558,4.535,16.627,6.046,24.185,10.581c12.092-49.881,36.277-96.738,54.415-143.596c4.535-12.092-13.604-22.673-22.673-12.092
					c-19.65,22.673-36.277,46.858-52.904,71.042c7.558,4.535,15.115,9.069,22.673,13.604c12.092-25.696,27.208-49.881,34.765-75.577
					c6.046-16.627-13.604-24.185-22.673-12.092c-25.696,34.765-48.369,69.531-71.042,105.808c9.069,3.023,16.627,4.535,25.696,6.046
					c6.046-63.485,64.996-111.854,72.554-173.827c0-10.581-13.604-16.627-21.161-10.581
					c-40.812,25.696-80.111,80.111-95.227,126.969C1360.993,148.966,1386.689,156.524,1392.735,139.897L1392.735,139.897z"/>
			</g>
		</g>
	</g>
</g>
<g id="Shape_11_8_">
	<path d="M1509.819,110.603c-0.045-0.076,0.045-0.181,0.136-0.196c0.03,0.181,0.03,0.378,0,0.574
		C1509.819,110.906,1509.758,110.739,1509.819,110.603L1509.819,110.603z"/>
	<path d="M1509.411,119.265c0.045,0.121,0.015,0.272-0.061,0.378c-0.076-0.166-0.076-0.363,0.03-0.514
		C1509.411,119.159,1509.426,119.219,1509.411,119.265L1509.411,119.265z"/>
	<path d="M1510.982,90.863c-0.03-0.091-0.03-0.242,0.076-0.242c0.045,0.121,0.045,0.272,0,0.393
		C1510.998,91.044,1510.967,90.938,1510.982,90.863L1510.982,90.863z"/>
	<path d="M1510.544,96.984c-0.03-0.121-0.03-0.272,0.076-0.317c0.03,0.121,0.03,0.242,0.015,0.363
		C1510.605,97.09,1510.514,97.045,1510.544,96.984L1510.544,96.984z"/>
	<path d="M1510.544,96.002c0.121,0.076,0.136,0.272,0.015,0.348c-0.015-0.106-0.045-0.212-0.06-0.302L1510.544,96.002z"/>
	<path d="M1523.679,134.788c-0.106-0.03-0.166-0.166-0.121-0.272c0.106,0.045,0.166,0.181,0.121,0.287V134.788z"/>
	<path d="M1510.136,102.547c0.121-0.03,0.121,0.197,0.015,0.257C1510.151,102.713,1510.136,102.623,1510.136,102.547
		L1510.136,102.547z"/>
	<path d="M1521.2,113.929c-0.091-0.03,0.015-0.181,0.076-0.121c0.015,0.045,0.03,0.106,0,0.151c-0.03,0.045-0.121,0.015-0.106-0.03
		L1521.2,113.929z"/>
	<path d="M1509.38,118.796c-0.091-0.06-0.045-0.212,0.06-0.227C1509.501,118.645,1509.471,118.766,1509.38,118.796L1509.38,118.796z
		"/>
	<path d="M1510.635,95.821c0.015,0.06-0.076,0.106-0.106,0.045c-0.015-0.045,0-0.106,0.03-0.151
		C1510.589,95.745,1510.62,95.775,1510.635,95.821L1510.635,95.821z"/>
	<path d="M1519.734,100.34c-0.06-0.045-0.03-0.151,0.045-0.151C1519.84,100.234,1519.795,100.34,1519.734,100.34L1519.734,100.34z"
		/>
	<path d="M1509.728,109.349c-0.076,0.03-0.106-0.106-0.06-0.166C1509.743,109.152,1509.758,109.288,1509.728,109.349
		L1509.728,109.349z"/>
	<path d="M1521.064,113.566c-0.076,0.03-0.106-0.106-0.06-0.166C1521.08,113.37,1521.095,113.506,1521.064,113.566L1521.064,113.566
		z"/>
	<path d="M1522.168,121.743c-0.076,0.03-0.106-0.106-0.06-0.166C1522.183,121.547,1522.213,121.668,1522.168,121.743
		L1522.168,121.743z"/>
	<path d="M1521.337,114.337c-0.061-0.015-0.091-0.106-0.061-0.166c0.045,0,0.106,0.015,0.121,0.06
		S1521.382,114.337,1521.337,114.337L1521.337,114.337z"/>
	<path d="M1515.2,114.639c-0.03-0.03-0.045-0.06-0.076-0.091c0.03-0.045,0.091-0.076,0.151-0.091c0.03,0.06,0,0.136-0.061,0.166
		L1515.2,114.639z"/>
	<path d="M1517.648,132.324c-0.045,0.045-0.106,0.045-0.151,0.015c0.03-0.121,0.06-0.257,0.06-0.393
		C1517.679,132.022,1517.663,132.188,1517.648,132.324L1517.648,132.324z"/>
	<path d="M1514.897,124.132c-0.045,0.015-0.091-0.045-0.091-0.106c0.015-0.045,0.045-0.091,0.091-0.121
		C1514.928,123.981,1514.928,124.056,1514.897,124.132L1514.897,124.132z"/>
	<path d="M1517.452,132.808c0.06-0.015,0.166,0.015,0.136,0.076C1517.543,132.959,1517.391,132.868,1517.452,132.808
		L1517.452,132.808z"/>
	<path d="M1514.55,133.307c0.06,0.045,0.015,0.166-0.06,0.166C1514.459,133.413,1514.504,133.322,1514.55,133.307L1514.55,133.307z"
		/>
	<path d="M1516.787,124.298c0.091,0,0.166,0.106,0.106,0.166C1516.802,124.464,1516.726,124.358,1516.787,124.298L1516.787,124.298z
		"/>
	<path d="M1404.328,155.557c-0.06,0.453-0.181,0.967-0.559,1.209c-0.257,0.166-0.589,0.166-0.892,0.166
		c-3.839,0-7.664,0.015-11.503,0.015c-0.423,0-0.892-0.015-1.224-0.302c-0.378-0.333-0.393-0.922-0.378-1.421
		c0.559-21.146,1.119-42.278,1.678-63.424c0.015-0.408,0.03-0.846,0.287-1.164c0.302-0.378,0.846-0.469,1.33-0.514
		c1.512-0.166,3.356-0.166,4.172,1.119c0.423,0.68,0.408,1.527,0.393,2.328c-0.529,19.076-1.073,38.166-1.617,57.242
		c0,0.196,0.212,0.333,0.408,0.393c1.27,0.438,2.66,0.151,3.99,0.06c1.345-0.076,2.872,0.181,3.598,1.3
		C1404.57,153.425,1404.48,154.544,1404.328,155.557z"/>
	<path d="M1466.619,125.386c0.181-0.212,0.484-0.257,0.756-0.302c1.738-0.257,3.93-0.302,4.776,1.239
		c0.333,0.62,0.348,1.36,0.363,2.071c0.045,6.318,0.106,12.636,0.151,18.94c0,0.831,0.015,1.693,0.348,2.464
		c0.574,1.3,2.116,2.086,3.492,1.768c1.375-0.302,2.449-1.678,2.418-3.084c-0.469-18.199-0.71-36.413-0.907-54.627
		c-0.015-0.756,0-1.557,0.393-2.192c0.741-1.224,2.449-1.33,3.87-1.3c0.589,0.015,1.27,0.076,1.602,0.574
		c0.212,0.302,0.212,0.695,0.227,1.058c0.227,16.294,0.453,32.604,0.68,48.913c0.03,1.935,0.06,3.87,0.076,5.804
		c0.03,2.146,0.03,4.383-0.952,6.273c-0.937,1.784-2.675,3.053-4.595,3.643s-3.99,0.529-5.955,0.091
		c-1.738-0.378-3.461-1.103-4.656-2.418c-1.935-2.131-2.071-5.29-2.101-8.177c-0.06-6.636-0.121-13.271-0.181-19.907
		C1466.422,125.915,1466.422,125.598,1466.619,125.386z"/>
	<path d="M1513.824,144.628c-0.03,2.645-0.061,5.275-0.091,7.92c-0.015,1.028-0.061,2.146-0.741,2.932
		c-0.786,0.892-2.101,0.998-3.295,1.028c-0.71,0.015-1.511,0-1.965-0.544c-0.363-0.438-0.348-1.073-0.317-1.648
		c0.559-9.704,1.134-19.393,1.693-29.097c0.665-10.974,1.33-21.963,1.995-32.936c0.03-0.438,0.06-0.877,0.287-1.255
		c0.484-0.786,1.587-0.846,2.509-0.816c1.088,0.03,2.161,0.076,3.25,0.106c0.378,0.015,0.786,0.045,1.028,0.333
		c0.166,0.197,0.197,0.453,0.227,0.71c2.494,21.041,4.912,42.081,7.24,63.137c0.06,0.544,0.076,1.224-0.393,1.527
		c-0.196,0.136-0.423,0.166-0.65,0.196c-1.738,0.257-3.915,0.333-4.792-1.194c-0.317-0.544-0.378-1.209-0.438-1.829
		c-0.212-2.449-0.438-4.882-0.65-7.331c-0.076-0.922-1.255-1.3-2.177-1.209C1515.638,144.749,1514.656,145.066,1513.824,144.628
		 M1517.905,134.607c-0.06-0.212,0.061-0.438,0.257-0.514c-0.121-0.287-0.302-0.559-0.514-0.771c0.227-0.544,0.197-1.194-0.06-1.723
		c-0.045-2.373-0.212-4.761-0.484-7.119c-0.03-0.196-0.076-0.438-0.272-0.499c-0.181-3.839-0.484-7.663-0.907-11.473
		c0.106-0.045,0.076,0.212-0.045,0.166c-0.121-0.03-0.136-0.181-0.136-0.302c0.03-2.025-0.106-4.051-0.423-6.046
		c-0.106,2.146-0.166,4.293-0.166,6.424c0,0.529-0.076,1.058-0.257,1.542c-0.015,3.008-0.045,5.986-0.076,8.979
		c-0.212,0.106-0.242,0.408-0.257,0.65c-0.06,3.038-0.091,6.076-0.106,9.13c-0.212,0.574-0.227,1.224-0.045,1.799
		c-0.181,0.166-0.197,0.438-0.197,0.68c-0.015,1.043-0.03,2.086-0.045,3.129c0,0.121,0,0.242,0.06,0.348
		c0.106,0.181,0.363,0.212,0.574,0.212c0.952,0,1.92,0,2.872,0c0.181,0,0.378,0,0.499-0.121c0.181-0.151,0.181-0.423,0.166-0.65
		c-0.076-1.209-0.151-2.434-0.227-3.643C1518.057,134.728,1517.981,134.667,1517.905,134.607z"/>
	<path d="M1433.531,144.794c-0.529,0-1.255,0.151-1.27,0.68c-0.091,2.343-0.197,4.686-0.287,7.044
		c-0.045,1.194-0.151,2.524-0.998,3.356c-0.937,0.922-2.403,0.937-3.718,0.892c-0.574-0.015-1.239-0.106-1.527-0.589
		c-0.166-0.302-0.151-0.68-0.106-1.028c2.071-21.01,4.157-42.021,6.228-63.046c0.045-0.408,0.091-0.831,0.318-1.164
		c0.453-0.635,1.375-0.665,2.161-0.635c1.103,0.045,2.237,0.091,3.371,0.151c0.408,0.015,0.862,0.045,1.119,0.363
		c0.181,0.227,0.227,0.544,0.242,0.831c1.768,21.086,3.446,42.187,4.988,63.288c0.03,0.348,0.045,0.71-0.136,0.998
		c-0.272,0.469-0.892,0.559-1.421,0.605c-1.632,0.136-3.673,0.076-4.383-1.406c-0.227-0.469-0.257-1.013-0.287-1.527
		c-0.166-2.917-0.348-5.85-0.529-8.767C1436.041,144.825,1434.786,144.809,1433.531,144.794 M1436.494,139.338
		c0.408,0,0.952-0.151,0.922-0.544c-0.484-8.238-0.967-16.476-1.451-24.714c-0.151-2.66-0.302-5.321-0.469-7.981
		c-0.831,10.762-1.663,21.539-2.509,32.317c-0.03,0.333,0,0.756,0.302,0.892c0.106,0.06,0.242,0.06,0.363,0.06
		C1434.604,139.353,1435.557,139.338,1436.494,139.338 M1442.933,143.298c-0.091,0-0.106,0.136-0.06,0.227
		C1442.933,143.464,1442.948,143.374,1442.933,143.298L1442.933,143.298z"/>
</g>
<g id="Circle_8_">
	<circle class="st3" cx="1457.731" cy="124.782" r="83.134"/>
</g>
<g>
	<g id="Color_9_">
		<g class="st1">
			<g>
				<path class="st5" d="M1596.99,142.523c12.092-39.3,48.369-89.181,83.135-111.854c-7.558-4.535-15.115-7.558-21.161-12.092
					c-4.535,30.231-33.254,69.531-46.858,96.738c-10.581,25.696-22.673,49.881-25.696,77.088
					c-1.512,13.604,19.65,16.627,25.696,6.046c22.673-36.277,45.346-71.042,71.042-105.808c-9.069-1.512-18.138-4.535-25.696-9.069
					c-6.046,24.185-21.161,46.858-31.742,69.531c-7.558,15.115,13.604,27.208,22.673,13.604
					c15.115-22.673,30.231-43.835,48.369-66.508c-7.558-4.535-15.115-9.069-22.673-12.092
					c-18.138,46.858-42.323,93.715-55.927,142.084c-4.535,15.115,16.627,22.673,24.185,10.581
					c19.65-28.719,36.277-58.95,55.927-86.158c6.046-10.581,45.346-81.623,55.927-83.134c-4.535-4.535-9.069-12.092-12.092-16.627
					c-6.046,25.696-48.369,95.227-27.208,117.9c19.65,22.673,51.392-16.627,64.996-27.208c13.604-10.581-6.046-30.231-19.65-19.65
					c-4.535,4.535-27.208,27.208-30.231,25.696c10.581,4.535,16.627-22.673,18.138-27.208c7.558-19.65,15.115-40.811,19.65-61.973
					c1.512-7.558-4.535-18.138-12.092-16.627c-25.696,3.023-39.3,37.788-51.392,55.927c-28.719,42.323-55.927,83.134-83.135,126.969
					c7.558,4.535,16.627,6.046,24.185,10.581c12.092-49.881,36.277-96.738,54.415-143.596c4.535-12.092-13.604-22.673-22.673-12.092
					c-19.65,22.673-36.277,46.858-52.904,71.042c7.558,4.535,15.115,9.069,22.673,13.604c12.092-25.696,27.208-49.881,34.765-75.577
					c6.046-16.627-13.604-24.185-22.673-12.092c-25.696,34.765-48.369,69.531-71.042,105.808c9.069,3.023,16.627,4.535,25.696,6.046
					c6.046-63.485,64.996-111.854,72.554-173.827c0-10.581-13.604-16.627-21.161-10.581
					c-40.811,25.696-80.111,80.111-95.227,126.969C1565.248,151.592,1590.944,159.15,1596.99,142.523L1596.99,142.523z"/>
			</g>
		</g>
	</g>
</g>
<g id="Shape_11_9_">
	<path d="M1714.074,113.23c-0.045-0.076,0.045-0.181,0.136-0.197c0.03,0.181,0.03,0.378,0,0.574
		C1714.074,113.532,1714.014,113.366,1714.074,113.23L1714.074,113.23z"/>
	<path d="M1713.666,121.891c0.045,0.121,0.015,0.272-0.06,0.378c-0.076-0.166-0.076-0.363,0.03-0.514
		C1713.666,121.785,1713.681,121.845,1713.666,121.891L1713.666,121.891z"/>
	<path d="M1715.238,93.489c-0.03-0.091-0.03-0.242,0.076-0.242c0.045,0.121,0.045,0.272,0,0.393
		C1715.253,93.67,1715.223,93.565,1715.238,93.489L1715.238,93.489z"/>
	<path d="M1714.8,99.611c-0.03-0.121-0.03-0.272,0.076-0.317c0.03,0.121,0.03,0.242,0.015,0.363
		C1714.86,99.717,1714.769,99.671,1714.8,99.611L1714.8,99.611z"/>
	<path d="M1714.8,98.628c0.121,0.076,0.136,0.272,0.015,0.348c-0.015-0.106-0.045-0.212-0.06-0.302L1714.8,98.628z"/>
	<path d="M1727.935,137.414c-0.106-0.03-0.166-0.166-0.121-0.272c0.106,0.045,0.166,0.181,0.121,0.287V137.414z"/>
	<path d="M1714.392,105.173c0.121-0.03,0.121,0.196,0.015,0.257C1714.407,105.339,1714.392,105.249,1714.392,105.173
		L1714.392,105.173z"/>
	<path d="M1725.456,116.555c-0.091-0.03,0.015-0.181,0.076-0.121c0.015,0.045,0.03,0.106,0,0.151
		c-0.03,0.045-0.121,0.015-0.106-0.03L1725.456,116.555z"/>
	<path d="M1713.636,121.422c-0.091-0.06-0.045-0.212,0.061-0.227C1713.757,121.271,1713.726,121.392,1713.636,121.422
		L1713.636,121.422z"/>
	<path d="M1714.89,98.447c0.015,0.06-0.076,0.106-0.106,0.045c-0.015-0.045,0-0.106,0.03-0.151
		C1714.845,98.371,1714.875,98.402,1714.89,98.447L1714.89,98.447z"/>
	<path d="M1723.99,102.966c-0.061-0.045-0.03-0.151,0.045-0.151C1724.096,102.861,1724.05,102.966,1723.99,102.966L1723.99,102.966z
		"/>
	<path d="M1713.983,111.975c-0.076,0.03-0.106-0.106-0.06-0.166C1713.999,111.779,1714.014,111.915,1713.983,111.975
		L1713.983,111.975z"/>
	<path d="M1725.32,116.192c-0.076,0.03-0.106-0.106-0.06-0.166C1725.335,115.996,1725.35,116.132,1725.32,116.192L1725.32,116.192z"
		/>
	<path d="M1726.423,124.37c-0.076,0.03-0.106-0.106-0.06-0.166C1726.438,124.173,1726.469,124.294,1726.423,124.37L1726.423,124.37z
		"/>
	<path d="M1725.592,116.963c-0.06-0.015-0.091-0.106-0.06-0.166c0.045,0,0.106,0.015,0.121,0.06
		C1725.668,116.903,1725.637,116.963,1725.592,116.963L1725.592,116.963z"/>
	<path d="M1719.455,117.266c-0.03-0.03-0.045-0.06-0.076-0.091c0.03-0.045,0.091-0.076,0.151-0.091c0.03,0.06,0,0.136-0.06,0.166
		L1719.455,117.266z"/>
	<path d="M1721.904,134.95c-0.045,0.045-0.106,0.045-0.151,0.015c0.03-0.121,0.061-0.257,0.061-0.393
		C1721.934,134.648,1721.919,134.814,1721.904,134.95L1721.904,134.95z"/>
	<path d="M1719.153,126.758c-0.045,0.015-0.091-0.045-0.091-0.106c0.015-0.045,0.045-0.091,0.091-0.121
		C1719.183,126.607,1719.183,126.682,1719.153,126.758L1719.153,126.758z"/>
	<path d="M1721.707,135.434c0.06-0.015,0.166,0.015,0.136,0.076C1721.798,135.585,1721.647,135.495,1721.707,135.434
		L1721.707,135.434z"/>
	<path d="M1718.805,135.933c0.06,0.045,0.015,0.166-0.061,0.166C1718.715,136.039,1718.76,135.948,1718.805,135.933
		L1718.805,135.933z"/>
	<path d="M1721.042,126.924c0.091,0,0.166,0.106,0.106,0.166C1721.057,127.091,1720.982,126.985,1721.042,126.924L1721.042,126.924z
		"/>
	<path d="M1608.584,158.183c-0.06,0.453-0.181,0.967-0.559,1.209c-0.257,0.166-0.589,0.166-0.892,0.166
		c-3.839,0-7.663,0.015-11.503,0.015c-0.423,0-0.892-0.015-1.224-0.302c-0.378-0.333-0.393-0.922-0.378-1.421
		c0.559-21.146,1.119-42.278,1.678-63.424c0.015-0.408,0.03-0.846,0.287-1.164c0.302-0.378,0.846-0.469,1.33-0.514
		c1.511-0.166,3.356-0.166,4.172,1.119c0.423,0.68,0.408,1.527,0.393,2.328c-0.529,19.076-1.073,38.166-1.617,57.242
		c0,0.197,0.212,0.333,0.408,0.393c1.27,0.438,2.66,0.151,3.99,0.06c1.345-0.076,2.872,0.181,3.597,1.3
		C1608.826,156.052,1608.735,157.17,1608.584,158.183z"/>
	<path d="M1670.874,128.013c0.181-0.212,0.484-0.257,0.756-0.302c1.738-0.257,3.93-0.302,4.776,1.239
		c0.333,0.62,0.348,1.36,0.363,2.071c0.045,6.318,0.106,12.636,0.151,18.94c0,0.831,0.015,1.693,0.348,2.464
		c0.574,1.3,2.116,2.086,3.492,1.768c1.375-0.302,2.449-1.678,2.418-3.084c-0.469-18.199-0.71-36.413-0.907-54.627
		c-0.015-0.756,0-1.557,0.393-2.192c0.741-1.224,2.449-1.33,3.87-1.3c0.589,0.015,1.27,0.076,1.602,0.574
		c0.212,0.302,0.212,0.695,0.227,1.058c0.227,16.294,0.453,32.604,0.68,48.913c0.03,1.935,0.06,3.87,0.076,5.804
		c0.03,2.146,0.03,4.383-0.952,6.273c-0.937,1.784-2.675,3.053-4.595,3.643c-1.92,0.59-3.99,0.529-5.955,0.091
		c-1.738-0.378-3.461-1.103-4.656-2.418c-1.935-2.131-2.071-5.29-2.101-8.177c-0.061-6.636-0.121-13.271-0.181-19.907
		C1670.678,128.542,1670.678,128.224,1670.874,128.013z"/>
	<path d="M1718.08,147.254c-0.03,2.645-0.06,5.275-0.091,7.92c-0.015,1.028-0.06,2.146-0.741,2.932
		c-0.786,0.892-2.101,0.998-3.295,1.028c-0.71,0.015-1.512,0-1.965-0.544c-0.363-0.438-0.348-1.073-0.317-1.648
		c0.559-9.704,1.134-19.393,1.693-29.097c0.665-10.974,1.33-21.963,1.995-32.936c0.03-0.438,0.06-0.877,0.287-1.255
		c0.484-0.786,1.587-0.846,2.509-0.816c1.088,0.03,2.161,0.076,3.25,0.106c0.378,0.015,0.786,0.045,1.028,0.333
		c0.166,0.197,0.196,0.453,0.227,0.71c2.494,21.041,4.912,42.081,7.24,63.137c0.061,0.544,0.076,1.224-0.393,1.527
		c-0.197,0.136-0.423,0.166-0.65,0.196c-1.738,0.257-3.915,0.333-4.792-1.194c-0.318-0.544-0.378-1.209-0.438-1.829
		c-0.212-2.449-0.438-4.882-0.65-7.331c-0.076-0.922-1.255-1.3-2.177-1.209C1719.894,147.375,1718.911,147.693,1718.08,147.254
		 M1722.161,137.233c-0.061-0.212,0.06-0.438,0.257-0.514c-0.121-0.287-0.302-0.559-0.514-0.771
		c0.227-0.544,0.196-1.194-0.061-1.723c-0.045-2.373-0.212-4.761-0.484-7.119c-0.03-0.196-0.076-0.438-0.272-0.499
		c-0.181-3.839-0.484-7.663-0.907-11.473c0.106-0.045,0.076,0.212-0.045,0.166c-0.121-0.03-0.136-0.181-0.136-0.302
		c0.03-2.025-0.106-4.051-0.423-6.046c-0.106,2.146-0.166,4.293-0.166,6.424c0,0.529-0.076,1.058-0.257,1.542
		c-0.015,3.008-0.045,5.986-0.076,8.979c-0.212,0.106-0.242,0.408-0.257,0.65c-0.06,3.038-0.091,6.076-0.106,9.13
		c-0.212,0.574-0.227,1.224-0.045,1.799c-0.181,0.166-0.197,0.438-0.197,0.68c-0.015,1.043-0.03,2.086-0.045,3.129
		c0,0.121,0,0.242,0.06,0.348c0.106,0.181,0.363,0.212,0.574,0.212c0.952,0,1.92,0,2.872,0c0.181,0,0.378,0,0.499-0.121
		c0.181-0.151,0.181-0.423,0.166-0.65c-0.076-1.209-0.151-2.434-0.227-3.643C1722.312,137.354,1722.236,137.293,1722.161,137.233z"
		/>
	<path d="M1637.787,147.421c-0.529,0-1.255,0.151-1.27,0.68c-0.091,2.343-0.197,4.686-0.287,7.044
		c-0.045,1.194-0.151,2.524-0.998,3.356c-0.937,0.922-2.403,0.937-3.718,0.892c-0.574-0.015-1.24-0.106-1.527-0.589
		c-0.166-0.302-0.151-0.68-0.106-1.028c2.071-21.01,4.157-42.021,6.228-63.046c0.045-0.408,0.091-0.831,0.317-1.164
		c0.453-0.635,1.375-0.665,2.161-0.635c1.103,0.045,2.237,0.091,3.371,0.151c0.408,0.015,0.862,0.045,1.119,0.363
		c0.181,0.227,0.227,0.544,0.242,0.831c1.769,21.086,3.446,42.187,4.988,63.288c0.03,0.348,0.045,0.71-0.136,0.998
		c-0.272,0.469-0.892,0.559-1.421,0.605c-1.633,0.136-3.673,0.076-4.384-1.406c-0.227-0.469-0.257-1.013-0.287-1.527
		c-0.166-2.917-0.348-5.85-0.529-8.767C1640.296,147.451,1639.042,147.436,1637.787,147.421 M1640.75,141.964
		c0.408,0,0.952-0.151,0.922-0.544c-0.484-8.238-0.967-16.476-1.451-24.714c-0.151-2.66-0.302-5.321-0.469-7.981
		c-0.831,10.762-1.663,21.539-2.509,32.317c-0.03,0.333,0,0.756,0.302,0.892c0.106,0.06,0.242,0.06,0.363,0.06
		C1638.86,141.979,1639.812,141.964,1640.75,141.964 M1647.189,145.924c-0.091,0-0.106,0.136-0.06,0.227
		C1647.189,146.091,1647.204,146,1647.189,145.924L1647.189,145.924z"/>
</g>
<g id="Circle_9_">
	<circle class="st3" cx="1661.987" cy="127.408" r="83.134"/>
</g>
<g>
	<g id="Color_10_">
		<g class="st1">
			<g>
				<path class="st2" d="M1800.554,142.193c12.092-39.3,48.369-89.181,83.134-111.854c-7.558-4.535-15.115-7.558-21.161-12.092
					c-4.535,30.231-33.254,69.531-46.858,96.738c-10.581,25.696-22.673,49.881-25.696,77.088
					c-1.511,13.604,19.65,16.627,25.696,6.046c22.673-36.277,45.346-71.042,71.042-105.808c-9.069-1.512-18.138-4.535-25.696-9.069
					c-6.046,24.185-21.161,46.858-31.742,69.531c-7.558,15.115,13.604,27.208,22.673,13.604
					c15.115-22.673,30.231-43.835,48.369-66.508c-7.558-4.535-15.115-9.069-22.673-12.092
					c-18.138,46.858-42.323,93.715-55.927,142.084c-4.535,15.115,16.627,22.673,24.185,10.581
					c19.65-28.719,36.277-58.95,55.927-86.158c6.046-10.581,45.346-81.623,55.927-83.134c-4.535-4.535-9.069-12.092-12.092-16.627
					c-6.046,25.696-48.369,95.227-27.208,117.9c19.65,22.673,51.392-16.627,64.996-27.208c13.604-10.581-6.046-30.231-19.65-19.65
					c-4.535,4.535-27.208,27.208-30.231,25.696c10.581,4.535,16.627-22.673,18.138-27.208c7.558-19.65,15.115-40.811,19.65-61.973
					c1.511-7.558-4.535-18.138-12.092-16.627c-25.696,3.023-39.3,37.788-51.392,55.927c-28.719,42.323-55.927,83.134-83.134,126.969
					c7.558,4.535,16.627,6.046,24.185,10.581c12.092-49.881,36.277-96.738,54.415-143.596c4.535-12.092-13.604-22.673-22.673-12.092
					c-19.65,22.673-36.277,46.858-52.904,71.042c7.558,4.535,15.115,9.069,22.673,13.604c12.092-25.696,27.208-49.881,34.765-75.577
					c6.046-16.627-13.604-24.185-22.673-12.092c-25.696,34.765-48.369,69.531-71.042,105.808c9.069,3.023,16.627,4.535,25.696,6.046
					c6.046-63.485,64.996-111.854,72.554-173.827c0-10.581-13.604-16.627-21.161-10.581
					c-40.811,25.696-80.111,80.111-95.227,126.969C1768.812,151.262,1794.508,158.82,1800.554,142.193L1800.554,142.193z"/>
			</g>
		</g>
	</g>
</g>
<g id="Shape_11_10_">
	<path d="M1917.637,112.9c-0.045-0.076,0.045-0.181,0.136-0.197c0.03,0.181,0.03,0.378,0,0.574
		C1917.637,113.202,1917.577,113.036,1917.637,112.9L1917.637,112.9z"/>
	<path d="M1917.229,121.561c0.045,0.121,0.015,0.272-0.06,0.378c-0.076-0.166-0.076-0.363,0.03-0.514
		C1917.229,121.455,1917.245,121.515,1917.229,121.561L1917.229,121.561z"/>
	<path d="M1918.801,93.159c-0.03-0.091-0.03-0.242,0.076-0.242c0.045,0.121,0.045,0.272,0,0.393
		C1918.817,93.34,1918.786,93.234,1918.801,93.159L1918.801,93.159z"/>
	<path d="M1918.363,99.281c-0.03-0.121-0.03-0.272,0.076-0.317c0.03,0.121,0.03,0.242,0.015,0.363
		C1918.423,99.386,1918.333,99.341,1918.363,99.281L1918.363,99.281z"/>
	<path d="M1918.363,98.298c0.121,0.076,0.136,0.272,0.015,0.348c-0.015-0.106-0.045-0.212-0.06-0.302L1918.363,98.298z"/>
	<path d="M1931.498,137.084c-0.106-0.03-0.166-0.166-0.121-0.272c0.106,0.045,0.166,0.181,0.121,0.287V137.084z"/>
	<path d="M1917.955,104.843c0.121-0.03,0.121,0.196,0.015,0.257C1917.97,105.009,1917.955,104.919,1917.955,104.843
		L1917.955,104.843z"/>
	<path d="M1929.019,116.225c-0.091-0.03,0.015-0.181,0.076-0.121c0.015,0.045,0.03,0.106,0,0.151
		c-0.03,0.045-0.121,0.015-0.106-0.03H1929.019z"/>
	<path d="M1917.199,121.092c-0.091-0.06-0.045-0.212,0.06-0.227C1917.32,120.941,1917.29,121.062,1917.199,121.092L1917.199,121.092
		z"/>
	<path d="M1918.454,98.117c0.015,0.06-0.076,0.106-0.106,0.045c-0.015-0.045,0-0.106,0.03-0.151
		C1918.408,98.041,1918.439,98.071,1918.454,98.117L1918.454,98.117z"/>
	<path d="M1927.553,102.636c-0.061-0.045-0.03-0.151,0.045-0.151C1927.659,102.53,1927.614,102.636,1927.553,102.636
		L1927.553,102.636z"/>
	<path d="M1917.547,111.645c-0.076,0.03-0.106-0.106-0.061-0.166C1917.562,111.448,1917.577,111.585,1917.547,111.645
		L1917.547,111.645z"/>
	<path d="M1928.883,115.862c-0.076,0.03-0.106-0.106-0.06-0.166C1928.898,115.666,1928.914,115.802,1928.883,115.862
		L1928.883,115.862z"/>
	<path d="M1929.987,124.04c-0.076,0.03-0.106-0.106-0.061-0.166C1930.002,123.843,1930.032,123.964,1929.987,124.04L1929.987,124.04
		z"/>
	<path d="M1929.155,116.633c-0.06-0.015-0.091-0.106-0.06-0.166c0.045,0,0.106,0.015,0.121,0.06
		C1929.231,116.573,1929.201,116.633,1929.155,116.633L1929.155,116.633z"/>
	<path d="M1923.019,116.935c-0.03-0.03-0.045-0.06-0.076-0.091c0.03-0.045,0.091-0.076,0.151-0.091c0.03,0.06,0,0.136-0.06,0.166
		L1923.019,116.935z"/>
	<path d="M1925.467,134.62c-0.045,0.045-0.106,0.045-0.151,0.015c0.03-0.121,0.06-0.257,0.06-0.393
		C1925.498,134.318,1925.482,134.484,1925.467,134.62L1925.467,134.62z"/>
	<path d="M1922.716,126.428c-0.045,0.015-0.091-0.045-0.091-0.106c0.015-0.045,0.045-0.091,0.091-0.121
		C1922.746,126.277,1922.746,126.352,1922.716,126.428L1922.716,126.428z"/>
	<path d="M1925.271,135.104c0.06-0.015,0.166,0.015,0.136,0.076C1925.361,135.255,1925.21,135.164,1925.271,135.104
		L1925.271,135.104z"/>
	<path d="M1922.369,135.603c0.06,0.045,0.015,0.166-0.061,0.166C1922.278,135.709,1922.323,135.618,1922.369,135.603
		L1922.369,135.603z"/>
	<path d="M1924.606,126.594c0.091,0,0.166,0.106,0.106,0.166C1924.621,126.76,1924.545,126.655,1924.606,126.594L1924.606,126.594z"
		/>
	<path d="M1812.147,157.853c-0.06,0.453-0.181,0.967-0.559,1.209c-0.257,0.166-0.589,0.166-0.892,0.166
		c-3.839,0-7.663,0.015-11.503,0.015c-0.423,0-0.892-0.015-1.224-0.302c-0.378-0.333-0.393-0.922-0.378-1.421
		c0.559-21.146,1.119-42.278,1.678-63.424c0.015-0.408,0.03-0.846,0.287-1.164c0.302-0.378,0.846-0.469,1.33-0.514
		c1.511-0.166,3.356-0.166,4.172,1.119c0.423,0.68,0.408,1.527,0.393,2.328c-0.529,19.076-1.073,38.166-1.617,57.242
		c0,0.196,0.212,0.333,0.408,0.393c1.27,0.438,2.66,0.151,3.99,0.06c1.345-0.076,2.872,0.181,3.597,1.3
		C1812.389,155.721,1812.299,156.84,1812.147,157.853z"/>
	<path d="M1874.438,127.682c0.181-0.212,0.484-0.257,0.756-0.302c1.738-0.257,3.93-0.302,4.776,1.239
		c0.333,0.62,0.348,1.36,0.363,2.071c0.045,6.318,0.106,12.636,0.151,18.94c0,0.831,0.015,1.693,0.348,2.464
		c0.574,1.3,2.116,2.086,3.492,1.768c1.375-0.302,2.449-1.678,2.418-3.084c-0.469-18.199-0.71-36.413-0.907-54.627
		c-0.015-0.756,0-1.557,0.393-2.192c0.741-1.224,2.449-1.33,3.87-1.3c0.589,0.015,1.27,0.076,1.602,0.574
		c0.212,0.302,0.212,0.695,0.227,1.058c0.227,16.294,0.453,32.604,0.68,48.913c0.03,1.935,0.06,3.87,0.076,5.804
		c0.03,2.146,0.03,4.383-0.952,6.273c-0.937,1.784-2.675,3.053-4.595,3.643c-1.92,0.59-3.99,0.529-5.956,0.091
		c-1.738-0.378-3.461-1.103-4.656-2.418c-1.935-2.131-2.071-5.29-2.101-8.177c-0.061-6.636-0.121-13.271-0.181-19.907
		C1874.241,128.211,1874.241,127.894,1874.438,127.682z"/>
	<path d="M1921.643,146.924c-0.03,2.645-0.06,5.275-0.091,7.92c-0.015,1.028-0.06,2.146-0.741,2.932
		c-0.786,0.892-2.101,0.998-3.295,1.028c-0.71,0.015-1.512,0-1.965-0.544c-0.363-0.438-0.348-1.073-0.318-1.648
		c0.559-9.704,1.134-19.393,1.693-29.097c0.665-10.974,1.33-21.963,1.995-32.936c0.03-0.438,0.06-0.877,0.287-1.255
		c0.484-0.786,1.587-0.846,2.509-0.816c1.088,0.03,2.161,0.076,3.25,0.106c0.378,0.015,0.786,0.045,1.028,0.333
		c0.166,0.197,0.197,0.453,0.227,0.71c2.494,21.041,4.912,42.081,7.24,63.137c0.061,0.544,0.076,1.224-0.393,1.527
		c-0.197,0.136-0.423,0.166-0.65,0.197c-1.738,0.257-3.915,0.333-4.792-1.194c-0.317-0.544-0.378-1.209-0.438-1.829
		c-0.212-2.449-0.438-4.882-0.65-7.331c-0.076-0.922-1.255-1.3-2.177-1.209C1923.457,147.045,1922.474,147.363,1921.643,146.924
		 M1925.724,136.903c-0.06-0.212,0.06-0.438,0.257-0.514c-0.121-0.287-0.302-0.559-0.514-0.771c0.227-0.544,0.196-1.194-0.06-1.723
		c-0.045-2.373-0.212-4.761-0.484-7.119c-0.03-0.196-0.076-0.438-0.272-0.499c-0.181-3.839-0.484-7.663-0.907-11.473
		c0.106-0.045,0.076,0.212-0.045,0.166c-0.121-0.03-0.136-0.181-0.136-0.302c0.03-2.025-0.106-4.051-0.423-6.046
		c-0.106,2.146-0.166,4.293-0.166,6.424c0,0.529-0.076,1.058-0.257,1.542c-0.015,3.008-0.045,5.986-0.076,8.979
		c-0.212,0.106-0.242,0.408-0.257,0.65c-0.061,3.038-0.091,6.076-0.106,9.13c-0.212,0.574-0.227,1.224-0.045,1.799
		c-0.181,0.166-0.196,0.438-0.196,0.68c-0.015,1.043-0.03,2.086-0.045,3.129c0,0.121,0,0.242,0.06,0.348
		c0.106,0.181,0.363,0.212,0.574,0.212c0.952,0,1.92,0,2.872,0c0.181,0,0.378,0,0.499-0.121c0.181-0.151,0.181-0.423,0.166-0.65
		c-0.076-1.209-0.151-2.434-0.227-3.643C1925.875,137.024,1925.8,136.963,1925.724,136.903z"/>
	<path d="M1841.35,147.09c-0.529,0-1.255,0.151-1.27,0.68c-0.091,2.343-0.197,4.686-0.287,7.044
		c-0.045,1.194-0.151,2.524-0.998,3.356c-0.937,0.922-2.403,0.937-3.718,0.892c-0.574-0.015-1.24-0.106-1.527-0.589
		c-0.166-0.302-0.151-0.68-0.106-1.028c2.071-21.01,4.157-42.021,6.228-63.046c0.045-0.408,0.091-0.831,0.317-1.164
		c0.453-0.635,1.375-0.665,2.161-0.635c1.103,0.045,2.237,0.091,3.371,0.151c0.408,0.015,0.862,0.045,1.119,0.363
		c0.181,0.227,0.227,0.544,0.242,0.831c1.769,21.086,3.446,42.187,4.988,63.288c0.03,0.348,0.045,0.71-0.136,0.998
		c-0.272,0.469-0.892,0.559-1.421,0.605c-1.632,0.136-3.673,0.076-4.384-1.406c-0.227-0.469-0.257-1.013-0.287-1.527
		c-0.166-2.917-0.348-5.85-0.529-8.767C1843.859,147.121,1842.605,147.106,1841.35,147.09 M1844.313,141.634
		c0.408,0,0.952-0.151,0.922-0.544c-0.484-8.238-0.967-16.476-1.451-24.714c-0.151-2.66-0.302-5.321-0.469-7.981
		c-0.831,10.762-1.663,21.539-2.509,32.317c-0.03,0.333,0,0.756,0.302,0.892c0.106,0.06,0.242,0.06,0.363,0.06
		C1842.423,141.649,1843.376,141.634,1844.313,141.634 M1850.752,145.594c-0.091,0-0.106,0.136-0.061,0.227
		C1850.752,145.76,1850.767,145.67,1850.752,145.594L1850.752,145.594z"/>
</g>
<g id="Circle_10_">
	<circle class="st3" cx="1865.55" cy="127.078" r="83.134"/>
</g>
</svg>
