<?xml version="1.0" encoding="utf-8"?>
<!-- Generator: Adobe Illustrator 23.1.1, SVG Export Plug-In . SVG Version: 6.00 Build 0)  -->
<svg version="1.1" id="Layer_1" xmlns="http://www.w3.org/2000/svg" xmlns:xlink="http://www.w3.org/1999/xlink" x="0px" y="0px"
	 viewBox="0 0 16 16" style="enable-background:new 0 0 16 16;" xml:space="preserve">
<style type="text/css">
	.st0{opacity:0.44;}
	.st1{fill:#A321AD;}
	.st2{fill:none;stroke:#000000;stroke-width:0.25;stroke-miterlimit:10;}
	.st3{fill:none;}
	.st4{font-family:'PTSans-Regular';}
	.st5{font-size:4px;}
</style>
<g class="st0">
	<g>
		<path class="st1" d="M9.61,1.22C7.41,1.6,5.47,3.55,3.9,5.04c-1.67,1.58-3.44,3.33-4.23,5.54c-0.38,1.06,1.04,1.68,1.77,1.03
			c3.55-3.17,7.18-7.16,11.64-8.99c-0.4-0.16-0.8-0.32-1.19-0.49c0.12,0.26-2.35,3.02-2.6,3.32c-1.01,1.23-2.08,2.4-3.2,3.53
			C6.65,9.4,7.2,9.83,7.75,10.26c1-1.57,2.61-4.18,4.44-4.97c-0.53-0.3-1.06-0.61-1.59-0.91C10.42,6,9.05,7.81,8.25,9.18
			c-0.84,1.43-1.66,2.85-2.37,4.34c-0.5,1.04,0.76,2.17,1.66,1.28c1-0.99,1.88-2.07,2.86-3.08c0.34-0.35,1.43-1.58,1.78-1.54
			c0.57,0.06-0.18,3.03-0.26,3.39c-0.32,1.32,1.72,1.89,2.04,0.56c0.37-1.52,1.61-6.39-1.25-6.44c-2.55-0.04-5.13,4.09-6.67,5.61
			c0.55,0.43,1.11,0.85,1.66,1.28c1.53-3.21,4.6-6.6,5.01-10.21c0.1-0.89-0.95-1.19-1.59-0.91C8.97,4.39,7.15,7.27,5.93,9.19
			c-0.65,1.02,0.82,2.13,1.66,1.28c1.8-1.81,3.44-3.75,4.97-5.79c0.83-1.11,1.77-2.24,1.16-3.63c-0.17-0.38-0.8-0.65-1.19-0.49
			C7.66,2.56,3.8,6.66-0.05,10.1c0.59,0.34,1.18,0.69,1.77,1.03c0.65-1.81,2.32-3.31,3.69-4.6c1.3-1.23,2.94-2.95,4.78-3.27
			C11.51,3.03,10.95,0.99,9.61,1.22L9.61,1.22z"/>
	</g>
</g>
<g>
	<g>
		<path class="st2" d="M1.45,7.25c0,0,1.99-5.15,3.1-5.76s2.68-0.51,3.33-0.2c0-0.03,0.3,0.33,1.58-0.17
			c1.23-0.48,1.74,0.48,2.34,1.19c0.74,0.89,1.46,4.49,1.46,5.7s-1.04,3.4-2.46,5.28s-3.06,1.68-3.06,1.68s-2.52-0.2-3.67-1.31
			S1.49,8.09,1.45,7.25z"/>
		<path class="st2" d="M2.19,7.25c0,0,1.82-3.43,5.52-4.04c0.03,0.03,3.2-0.17,5.32,4.48c0.03,0-2.25,3.74-4.27,4.51
			c0,0-2.02,0.71-3.7-0.34C5.05,11.83,2.7,9.41,2.19,7.25z"/>
	</g>
	<path class="st2" d="M7.61,11.36c0,0-1.76-0.29-2.26,0c-0.16,0.16-0.48,0.4-0.3,0.5s1.41,0.77,2.56,0.55
		C7.65,12.41,7.61,11.36,7.61,11.36z"/>
	<path class="st2" d="M7.78,11.23l2.23,0.18c0,0-1.22,1.03-2.23,0.99C7.61,12.42,7.78,11.23,7.78,11.23z"/>
	<path class="st2" d="M5.19,4.41c0,0,1.12,0.16,1.03-0.29C6.18,3.9,6.23,3.6,5.82,3.82c-0.41,0.21-0.8,0.45-0.8,0.45
		S4.94,4.53,5.19,4.41z"/>
	<path class="st2" d="M7.87,3.35c0,0,0.3,0.75-0.51,0.86c-0.04,0-0.78,0.18-1.14,0.01C6.21,4.25,6.3,3.61,6.32,3.6
		c0.17-0.07,1.37-0.3,1.37-0.3L7.87,3.35z"/>
	<path class="st2" d="M9.45,3.9c0,0,0.21,0.51-0.88,0.4C7.49,4.19,7.93,3.95,7.93,3.77c0-0.2-0.2-0.45,0.22-0.51
		C8.59,3.19,9.31,3.59,9.45,3.9z"/>
	<path class="st2" d="M10.46,4.57c0,0-1.34,0.2-0.99-0.91c0.03,0.01,1.02,0.61,1.21,0.78S10.46,4.57,10.46,4.57z"/>
</g>
<rect x="4.31" y="7" class="st3" width="7.69" height="3.63"/>
<text transform="matrix(1 0 0 1 3.2828 8.8152)" class="st4 st5">LAJA</text>
</svg>
