<?xml version="1.0" encoding="utf-8"?>
<!-- Generator: Adobe Illustrator 24.1.0, SVG Export Plug-In . SVG Version: 6.00 Build 0)  -->
<svg version="1.1" id="Layer_1" xmlns="http://www.w3.org/2000/svg" xmlns:xlink="http://www.w3.org/1999/xlink" x="0px" y="0px"
	 viewBox="0 0 16 16" style="enable-background:new 0 0 16 16;" xml:space="preserve">
<style type="text/css">
	.st0{opacity:0.24;}
	.st1{fill:#973C96;}
	.st2{fill:none;stroke:#010101;stroke-width:0.25;stroke-miterlimit:10;}
</style>
<g>
	<g id="Color">
		<g class="st0">
			<g>
				<path class="st1" d="M3.1,9.1c0.8-2.6,3.2-5.9,5.5-7.4c-0.5-0.3-1-0.5-1.4-0.8C6.9,2.9,5,5.5,4.1,7.3C3.4,9,2.6,10.6,2.4,12.4
					c-0.1,0.9,1.3,1.1,1.7,0.4c1.5-2.4,3-4.7,4.7-7C8.2,5.7,7.6,5.5,7.1,5.2C6.7,6.8,5.7,8.3,5,9.8c-0.5,1,0.9,1.8,1.5,0.9
					c1-1.5,2-2.9,3.2-4.4C9.2,6,8.7,5.7,8.2,5.5C7,8.6,5.4,11.7,4.5,14.9c-0.3,1,1.1,1.5,1.6,0.7c1.3-1.9,2.4-3.9,3.7-5.7
					c0.4-0.7,3-5.4,3.7-5.5c-0.3-0.3-0.6-0.8-0.8-1.1c-0.4,1.7-3.2,6.3-1.8,7.8c1.3,1.5,3.4-1.1,4.3-1.8s-0.4-2-1.3-1.3
					c-0.3,0.3-1.8,1.8-2,1.7c0.7,0.3,1.1-1.5,1.2-1.8c0.5-1.3,1-2.7,1.3-4.1c0.1-0.5-0.3-1.2-0.8-1.1c-1.7,0.2-2.6,2.5-3.4,3.7
					c-1.9,2.8-3.7,5.5-5.5,8.4c0.5,0.3,1.1,0.4,1.6,0.7C7.1,12.2,8.7,9.1,9.9,6C10.2,5.2,9,4.5,8.4,5.2C7.1,6.7,6,8.3,4.9,9.9
					c0.5,0.3,1,0.6,1.5,0.9c0.8-1.7,1.8-3.3,2.3-5C9.1,4.7,7.8,4.2,7.2,5C5.5,7.3,4,9.6,2.5,12c0.6,0.2,1.1,0.3,1.7,0.4
					C4.6,8.2,8.5,5,9,0.9c0-0.7-0.9-1.1-1.4-0.7C4.9,1.9,2.3,5.5,1.3,8.6C1,9.7,2.7,10.2,3.1,9.1L3.1,9.1z"/>
			</g>
		</g>
	</g>
	<g id="Circle">
		<circle class="st2" cx="7.4" cy="8.1" r="5.5"/>
	</g>
</g>
<g id="Shape_11_1_">
	<path d="M10.846,7.162c-0.003-0.005,0.003-0.012,0.009-0.013c0.002,0.012,0.002,0.025,0,0.038
		C10.846,7.182,10.842,7.171,10.846,7.162L10.846,7.162z"/>
	<path d="M10.819,7.735c0.003,0.008,0.001,0.018-0.004,0.025c-0.005-0.011-0.005-0.024,0.002-0.034
		C10.819,7.728,10.82,7.732,10.819,7.735L10.819,7.735z"/>
	<path d="M10.923,5.856C10.921,5.85,10.921,5.84,10.928,5.84c0.003,0.008,0.003,0.018,0,0.026
		C10.924,5.868,10.922,5.861,10.923,5.856L10.923,5.856z"/>
	<path d="M10.894,6.261c-0.002-0.008-0.002-0.018,0.005-0.021c0.002,0.008,0.002,0.016,0.001,0.024
		C10.898,6.268,10.892,6.265,10.894,6.261L10.894,6.261z"/>
	<path d="M10.894,6.196c0.008,0.005,0.009,0.018,0.001,0.023c-0.001-0.007-0.003-0.014-0.004-0.02L10.894,6.196z"/>
	<path d="M11.763,8.762c-0.007-0.002-0.011-0.011-0.008-0.018c0.007,0.003,0.011,0.012,0.008,0.019V8.762z"/>
	<path d="M10.867,6.629c0.008-0.002,0.008,0.013,0.001,0.017C10.868,6.64,10.867,6.634,10.867,6.629L10.867,6.629z"/>
	<path d="M11.599,7.382C11.593,7.38,11.6,7.37,11.604,7.374c0.001,0.003,0.002,0.007,0,0.01c-0.002,0.003-0.008,0.001-0.007-0.002
		L11.599,7.382z"/>
	<path d="M10.817,7.704C10.811,7.7,10.814,7.69,10.821,7.689C10.825,7.694,10.823,7.702,10.817,7.704L10.817,7.704z"/>
	<path d="M10.9,6.184c0.001,0.004-0.005,0.007-0.007,0.003c-0.001-0.003,0-0.007,0.002-0.01C10.897,6.179,10.899,6.181,10.9,6.184
		L10.9,6.184z"/>
	<path d="M11.502,6.483c-0.004-0.003-0.002-0.01,0.003-0.01C11.509,6.476,11.506,6.483,11.502,6.483L11.502,6.483z"/>
	<path d="M10.84,7.079c-0.005,0.002-0.007-0.007-0.004-0.011C10.841,7.066,10.842,7.075,10.84,7.079L10.84,7.079z"/>
	<path d="M11.59,7.358c-0.005,0.002-0.007-0.007-0.004-0.011C11.591,7.345,11.592,7.354,11.59,7.358L11.59,7.358z"/>
	<path d="M11.663,7.899c-0.005,0.002-0.007-0.007-0.004-0.011C11.664,7.886,11.666,7.894,11.663,7.899L11.663,7.899z"/>
	<path d="M11.608,7.409c-0.004-0.001-0.006-0.007-0.004-0.011c0.003,0,0.007,0.001,0.008,0.004S11.611,7.409,11.608,7.409
		L11.608,7.409z"/>
	<path d="M11.202,7.429c-0.002-0.002-0.003-0.004-0.005-0.006c0.002-0.003,0.006-0.005,0.01-0.006c0.002,0.004,0,0.009-0.004,0.011
		L11.202,7.429z"/>
	<path d="M11.364,8.599c-0.003,0.003-0.007,0.003-0.01,0.001c0.002-0.008,0.004-0.017,0.004-0.026
		C11.366,8.579,11.365,8.59,11.364,8.599L11.364,8.599z"/>
	<path d="M11.182,8.057c-0.003,0.001-0.006-0.003-0.006-0.007c0.001-0.003,0.003-0.006,0.006-0.008
		C11.184,8.047,11.184,8.052,11.182,8.057L11.182,8.057z"/>
	<path d="M11.351,8.631c0.004-0.001,0.011,0.001,0.009,0.005C11.357,8.641,11.347,8.635,11.351,8.631L11.351,8.631z"/>
	<path d="M11.159,8.664c0.004,0.003,0.001,0.011-0.004,0.011C11.153,8.671,11.156,8.665,11.159,8.664L11.159,8.664z"/>
	<path d="M11.307,8.068c0.006,0,0.011,0.007,0.007,0.011C11.308,8.079,11.303,8.072,11.307,8.068L11.307,8.068z"/>
	<path d="M3.867,10.136c-0.004,0.03-0.012,0.064-0.037,0.08c-0.017,0.011-0.039,0.011-0.059,0.011c-0.254,0-0.507,0.001-0.761,0.001
		c-0.028,0-0.059-0.001-0.081-0.02c-0.025-0.022-0.026-0.061-0.025-0.094c0.037-1.399,0.074-2.797,0.111-4.196
		c0.001-0.027,0.002-0.056,0.019-0.077C3.054,5.816,3.09,5.81,3.122,5.807c0.1-0.011,0.222-0.011,0.276,0.074
		c0.028,0.045,0.027,0.101,0.026,0.154C3.389,7.297,3.353,8.56,3.317,9.822c0,0.013,0.014,0.022,0.027,0.026
		c0.084,0.029,0.176,0.01,0.264,0.004c0.089-0.005,0.19,0.012,0.238,0.086C3.883,9.995,3.877,10.069,3.867,10.136z"/>
	<path d="M7.988,8.14C8,8.126,8.02,8.123,8.038,8.12c0.115-0.017,0.26-0.02,0.316,0.082c0.022,0.041,0.023,0.09,0.024,0.137
		c0.003,0.418,0.007,0.836,0.01,1.253c0,0.055,0.001,0.112,0.023,0.163c0.038,0.086,0.14,0.138,0.231,0.117
		c0.091-0.02,0.162-0.111,0.16-0.204c-0.031-1.204-0.047-2.409-0.06-3.614c-0.001-0.05,0-0.103,0.026-0.145
		C8.817,5.828,8.93,5.821,9.024,5.823C9.063,5.824,9.108,5.828,9.13,5.861c0.014,0.02,0.014,0.046,0.015,0.07
		C9.16,7.009,9.175,8.088,9.19,9.167c0.002,0.128,0.004,0.256,0.005,0.384c0.002,0.142,0.002,0.29-0.063,0.415
		c-0.062,0.118-0.177,0.202-0.304,0.241s-0.264,0.035-0.394,0.006c-0.115-0.025-0.229-0.073-0.308-0.16
		c-0.128-0.141-0.137-0.35-0.139-0.541C7.983,9.073,7.979,8.634,7.975,8.195C7.975,8.175,7.975,8.154,7.988,8.14z"/>
	<path d="M11.111,9.413c-0.002,0.175-0.004,0.349-0.006,0.524c-0.001,0.068-0.004,0.142-0.049,0.194
		c-0.052,0.059-0.139,0.066-0.218,0.068c-0.047,0.001-0.1,0-0.13-0.036c-0.024-0.029-0.023-0.071-0.021-0.109
		c0.037-0.642,0.075-1.283,0.112-1.925c0.044-0.726,0.088-1.453,0.132-2.179c0.002-0.029,0.004-0.058,0.019-0.083
		c0.032-0.052,0.105-0.056,0.166-0.054c0.072,0.002,0.143,0.005,0.215,0.007c0.025,0.001,0.052,0.003,0.068,0.022
		c0.011,0.013,0.013,0.03,0.015,0.047c0.165,1.392,0.325,2.784,0.479,4.177c0.004,0.036,0.005,0.081-0.026,0.101
		c-0.013,0.009-0.028,0.011-0.043,0.013c-0.115,0.017-0.259,0.022-0.317-0.079c-0.021-0.036-0.025-0.08-0.029-0.121
		c-0.014-0.162-0.029-0.323-0.043-0.485c-0.005-0.061-0.083-0.086-0.144-0.08C11.231,9.421,11.166,9.442,11.111,9.413 M11.381,8.75
		c-0.004-0.014,0.004-0.029,0.017-0.034c-0.008-0.019-0.02-0.037-0.034-0.051c0.015-0.036,0.013-0.079-0.004-0.114
		c-0.003-0.157-0.014-0.315-0.032-0.471c-0.002-0.013-0.005-0.029-0.018-0.033c-0.012-0.254-0.032-0.507-0.06-0.759
		c0.007-0.003,0.005,0.014-0.003,0.011c-0.008-0.002-0.009-0.012-0.009-0.02c0.002-0.134-0.007-0.268-0.028-0.4
		c-0.007,0.142-0.011,0.284-0.011,0.425c0,0.035-0.005,0.07-0.017,0.102C11.181,7.605,11.179,7.802,11.177,8
		c-0.014,0.007-0.016,0.027-0.017,0.043c-0.004,0.201-0.006,0.402-0.007,0.604c-0.014,0.038-0.015,0.081-0.003,0.119
		c-0.012,0.011-0.013,0.029-0.013,0.045c-0.001,0.069-0.002,0.138-0.003,0.207c0,0.008,0,0.016,0.004,0.023
		c0.007,0.012,0.024,0.014,0.038,0.014c0.063,0,0.127,0,0.19,0c0.012,0,0.025,0,0.033-0.008c0.012-0.01,0.012-0.028,0.011-0.043
		c-0.005-0.08-0.01-0.161-0.015-0.241C11.391,8.758,11.386,8.754,11.381,8.75z"/>
	<path d="M5.799,9.424c-0.035,0-0.083,0.01-0.084,0.045c-0.006,0.155-0.013,0.31-0.019,0.466c-0.003,0.079-0.01,0.167-0.066,0.222
		c-0.062,0.061-0.159,0.062-0.246,0.059c-0.038-0.001-0.082-0.007-0.101-0.039c-0.011-0.02-0.01-0.045-0.007-0.068
		c0.137-1.39,0.275-2.78,0.412-4.171c0.003-0.027,0.006-0.055,0.021-0.077C5.739,5.819,5.8,5.817,5.852,5.819
		C5.925,5.822,6,5.825,6.075,5.829C6.102,5.83,6.132,5.832,6.149,5.853c0.012,0.015,0.015,0.036,0.016,0.055
		c0.117,1.395,0.228,2.791,0.33,4.187c0.002,0.023,0.003,0.047-0.009,0.066c-0.018,0.031-0.059,0.037-0.094,0.04
		c-0.108,0.009-0.243,0.005-0.29-0.093c-0.015-0.031-0.017-0.067-0.019-0.101C6.072,9.814,6.06,9.62,6.048,9.427
		C5.965,9.426,5.882,9.425,5.799,9.424 M5.995,9.063c0.027,0,0.063-0.01,0.061-0.036C6.024,8.482,5.992,7.937,5.96,7.392
		C5.95,7.216,5.94,7.04,5.929,6.864c-0.055,0.712-0.11,1.425-0.166,2.138c-0.002,0.022,0,0.05,0.02,0.059
		C5.79,9.065,5.799,9.065,5.807,9.065C5.87,9.064,5.933,9.063,5.995,9.063 M6.421,9.325c-0.006,0-0.007,0.009-0.004,0.015
		C6.421,9.336,6.422,9.33,6.421,9.325L6.421,9.325z"/>
</g>
</svg>
