<?xml version="1.0" encoding="utf-8"?>
<!-- Generator: Adobe Illustrator 23.1.1, SVG Export Plug-In . SVG Version: 6.00 Build 0)  -->
<svg version="1.1" id="Layer_1" xmlns="http://www.w3.org/2000/svg" xmlns:xlink="http://www.w3.org/1999/xlink" x="0px" y="0px"
	 viewBox="0 0 1920 250" style="enable-background:new 0 0 1920 250;" xml:space="preserve">
<style type="text/css">
	.st0{opacity:0.44;}
	.st1{fill:#A321AD;}
	.st2{fill:none;stroke:#000000;stroke-miterlimit:10;}
	.st3{fill:none;}
	.st4{font-family:'PTSans-Regular';}
	.st5{font-size:61.1176px;}
	.st6{fill:#EDA93B;}
	.st7{fill:#2C35DD;}
</style>
<g>
	<g class="st0">
		<g>
			<path class="st1" d="M152.85,12.75c-33.61,5.81-63.26,35.6-87.25,58.37C40.09,95.26,13.04,122,0.97,155.77
				c-5.81,16.2,15.89,25.67,27.04,15.74C82.26,123.07,137.72,62.1,205.87,34.14c-6.11-2.44-12.22-4.89-18.18-7.49
				c1.83,3.97-35.91,46.14-39.73,50.73c-15.43,18.79-31.78,36.67-48.89,53.94c8.56,6.42,16.96,12.99,25.36,19.56
				c15.28-23.99,39.88-63.87,67.84-75.94c-8.1-4.58-16.2-9.32-24.29-13.9c-2.75,24.75-23.68,52.41-35.91,73.34
				c-12.83,21.85-25.36,43.55-36.21,66.31c-7.64,15.89,11.61,33.16,25.36,19.56c15.28-15.13,28.73-31.63,43.7-47.06
				c5.19-5.35,21.85-24.14,27.2-23.53c8.71,0.92-2.75,46.3-3.97,51.8c-4.89,20.17,26.28,28.88,31.17,8.56
				c5.65-23.22,24.6-97.64-19.1-98.4C161.25,111,121.83,174.1,98.3,197.33c8.4,6.57,16.96,12.99,25.36,19.56
				c23.38-49.05,70.29-100.84,76.55-156c1.53-13.6-14.52-18.18-24.29-13.9c-32.85,14.21-60.66,58.21-79.3,87.55
				c-9.93,15.58,12.53,32.55,25.36,19.56c27.5-27.66,52.56-57.3,75.94-88.47c12.68-16.96,27.04-34.23,17.72-55.46
				c-2.6-5.81-12.22-9.93-18.18-7.49C123.05,33.22,64.07,95.87,5.25,148.43c9.01,5.2,18.03,10.54,27.04,15.74
				c9.93-27.66,35.45-50.57,56.38-70.29c19.86-18.79,44.92-45.07,73.04-49.96C181.88,40.41,173.32,9.24,152.85,12.75L152.85,12.75z"
				/>
		</g>
	</g>
	<g>
		<g>
			<path class="st2" d="M28.17,104.89c0,0,30.41-78.69,47.37-88.01s40.95-7.79,50.88-3.06c0-0.46,4.58,5.04,24.14-2.6
				c18.79-7.33,26.59,7.33,35.75,18.18c11.31,13.6,22.31,68.6,22.31,87.09s-15.89,51.95-37.59,80.68s-46.75,25.67-46.75,25.67
				s-38.5-3.06-56.08-20.02S28.78,117.72,28.17,104.89z"/>
			<path class="st2" d="M39.47,104.89c0,0,27.81-52.41,84.34-61.73c0.46,0.46,48.89-2.6,81.29,68.45c0.46,0-34.38,57.14-65.24,68.91
				c0,0-30.86,10.85-56.53-5.19C83.17,174.87,47.27,137.89,39.47,104.89z"/>
		</g>
		<path class="st2" d="M122.29,167.68c0,0-26.89-4.43-34.53,0c-2.44,2.44-7.33,6.11-4.58,7.64c2.75,1.53,21.54,11.77,39.12,8.4
			C122.9,183.73,122.29,167.68,122.29,167.68z"/>
		<path class="st2" d="M124.89,165.7l34.07,2.75c0,0-18.64,15.74-34.07,15.13C122.29,183.88,124.89,165.7,124.89,165.7z"/>
		<path class="st2" d="M85.31,61.49c0,0,17.11,2.44,15.74-4.43c-0.61-3.36,0.15-7.95-6.11-4.58c-6.26,3.21-12.22,6.88-12.22,6.88
			S81.49,63.33,85.31,61.49z"/>
		<path class="st2" d="M126.26,45.3c0,0,4.58,11.46-7.79,13.14c-0.61,0-11.92,2.75-17.42,0.15c-0.15,0.46,1.22-9.32,1.53-9.47
			c2.6-1.07,20.93-4.58,20.93-4.58L126.26,45.3z"/>
		<path class="st2" d="M150.4,53.7c0,0,3.21,7.79-13.45,6.11c-16.5-1.68-9.78-5.35-9.78-8.1c0-3.06-3.06-6.88,3.36-7.79
			C137.26,42.85,148.26,48.96,150.4,53.7z"/>
		<path class="st2" d="M165.83,63.94c0,0-20.47,3.06-15.13-13.9c0.46,0.15,15.58,9.32,18.49,11.92
			C172.1,64.55,165.83,63.94,165.83,63.94z"/>
	</g>
	<rect x="71.87" y="101.07" class="st3" width="117.5" height="55.46"/>
	<text transform="matrix(1 0 0 1 56.1143 128.7598)" class="st4 st5">LAJA</text>
	<g>
		<g>
			<path class="st6" d="M992.72,24.01c-33.61,5.81-63.26,35.6-87.25,58.37c-25.52,24.14-52.56,50.88-64.63,84.65
				c-5.81,16.2,15.89,25.67,27.04,15.74c54.24-48.44,109.71-109.4,177.85-137.36c-6.11-2.44-12.22-4.89-18.18-7.49
				c1.83,3.97-35.91,46.14-39.73,50.73c-15.43,18.79-31.78,36.67-48.89,53.94c8.56,6.42,16.96,12.99,25.36,19.56
				c15.28-23.99,39.88-63.87,67.84-75.94c-8.1-4.58-16.2-9.32-24.29-13.9c-2.75,24.75-23.68,52.41-35.91,73.34
				c-12.83,21.85-25.36,43.55-36.21,66.31c-7.64,15.89,11.61,33.16,25.36,19.56c15.28-15.13,28.73-31.63,43.7-47.06
				c5.19-5.35,21.85-24.14,27.2-23.53c8.71,0.92-2.75,46.3-3.97,51.8c-4.89,20.17,26.28,28.88,31.17,8.56
				c5.65-23.22,24.6-97.64-19.1-98.4c-38.96-0.61-78.38,62.49-101.91,85.72c8.4,6.57,16.96,12.99,25.36,19.56
				c23.38-49.05,70.29-100.84,76.55-156c1.53-13.6-14.52-18.18-24.29-13.9c-32.85,14.21-60.66,58.21-79.3,87.55
				c-9.93,15.58,12.53,32.55,25.36,19.56c27.5-27.66,52.56-57.3,75.94-88.47c12.68-16.96,27.04-34.23,17.72-55.46
				c-2.6-5.81-12.22-9.93-18.18-7.49c-74.41,30.56-133.39,93.2-192.21,145.77c9.01,5.19,18.03,10.54,27.04,15.74
				c9.93-27.66,35.45-50.57,56.38-70.29c19.86-18.79,44.92-45.07,73.04-49.96C1021.76,51.67,1013.2,20.5,992.72,24.01L992.72,24.01z
				"/>
		</g>
	</g>
	<g>
		<g>
			<path class="st2" d="M868.04,116.15c0,0,30.41-78.69,47.37-88.01s40.95-7.79,50.88-3.06c0-0.46,4.58,5.04,24.14-2.6
				c18.79-7.33,26.59,7.33,35.75,18.18c11.31,13.6,22.31,68.6,22.31,87.09s-15.89,51.95-37.59,80.68
				c-21.7,28.73-46.76,25.67-46.76,25.67s-38.5-3.06-56.08-20.02C890.5,197.13,868.66,128.98,868.04,116.15z"/>
			<path class="st2" d="M879.35,116.15c0,0,27.81-52.41,84.34-61.73c0.46,0.46,48.89-2.6,81.29,68.45
				c0.46,0-34.38,57.14-65.24,68.91c0,0-30.86,10.85-56.53-5.2C923.05,186.13,887.14,149.15,879.35,116.15z"/>
		</g>
		<path class="st2" d="M962.17,178.95c0,0-26.89-4.43-34.53,0c-2.44,2.44-7.33,6.11-4.58,7.64c2.75,1.53,21.54,11.77,39.12,8.4
			C962.78,194.99,962.17,178.95,962.17,178.95z"/>
		<path class="st2" d="M964.76,176.96l34.07,2.75c0,0-18.64,15.74-34.07,15.13C962.17,195.14,964.76,176.96,964.76,176.96z"/>
		<path class="st2" d="M925.19,72.76c0,0,17.11,2.44,15.74-4.43c-0.61-3.36,0.15-7.95-6.11-4.58c-6.26,3.21-12.22,6.88-12.22,6.88
			S921.37,74.59,925.19,72.76z"/>
		<path class="st2" d="M966.14,56.56c0,0,4.58,11.46-7.79,13.14c-0.61,0-11.92,2.75-17.42,0.15c-0.15,0.46,1.22-9.32,1.53-9.47
			c2.6-1.07,20.93-4.58,20.93-4.58L966.14,56.56z"/>
		<path class="st2" d="M990.28,64.96c0,0,3.21,7.79-13.45,6.11c-16.5-1.68-9.78-5.35-9.78-8.1c0-3.06-3.06-6.88,3.36-7.79
			C977.14,54.11,988.14,60.23,990.28,64.96z"/>
		<path class="st2" d="M1005.71,75.2c0,0-20.47,3.06-15.13-13.9c0.46,0.15,15.58,9.32,18.49,11.92
			C1011.98,75.81,1005.71,75.2,1005.71,75.2z"/>
	</g>
	<rect x="911.74" y="112.33" class="st3" width="117.5" height="55.46"/>
	<text transform="matrix(1 0 0 1 896.0054 140.0908)" class="st4 st5">LAJA</text>
	<g class="st0">
		<g>
			<path class="st1" d="M773.64,21.48c-33.61,5.81-63.26,35.6-87.25,58.37c-25.52,24.14-52.56,50.88-64.63,84.65
				c-5.81,16.2,15.89,25.67,27.04,15.74c54.24-48.44,109.71-109.4,177.85-137.36c-6.11-2.44-12.22-4.89-18.18-7.49
				c1.83,3.97-35.91,46.14-39.73,50.73c-15.43,18.79-31.78,36.67-48.89,53.94c8.56,6.42,16.96,12.99,25.36,19.56
				c15.28-23.99,39.88-63.87,67.84-75.94c-8.1-4.58-16.2-9.32-24.29-13.9c-2.75,24.75-23.68,52.41-35.91,73.34
				c-12.83,21.85-25.36,43.55-36.21,66.31c-7.64,15.89,11.61,33.16,25.36,19.56c15.28-15.13,28.73-31.63,43.7-47.06
				c5.2-5.35,21.85-24.14,27.2-23.53c8.71,0.92-2.75,46.3-3.97,51.8c-4.89,20.17,26.28,28.88,31.17,8.56
				c5.65-23.22,24.6-97.64-19.1-98.4c-38.96-0.61-78.38,62.49-101.91,85.72c8.4,6.57,16.96,12.99,25.36,19.56
				c23.38-49.05,70.29-100.84,76.55-156c1.53-13.6-14.52-18.18-24.29-13.9c-32.85,14.21-60.66,58.21-79.3,87.55
				c-9.93,15.58,12.53,32.55,25.36,19.56c27.5-27.66,52.56-57.3,75.94-88.47c12.68-16.96,27.04-34.23,17.72-55.46
				c-2.6-5.81-12.22-9.93-18.18-7.49c-74.41,30.56-133.39,93.2-192.21,145.77c9.01,5.19,18.03,10.54,27.04,15.74
				c9.93-27.66,35.45-50.57,56.38-70.29c19.86-18.79,44.92-45.07,73.04-49.96C802.67,49.13,794.11,17.96,773.64,21.48L773.64,21.48z
				"/>
		</g>
	</g>
	<g>
		<g>
			<path class="st2" d="M648.96,113.61c0,0,30.41-78.69,47.37-88.01s40.95-7.79,50.88-3.06c0-0.46,4.58,5.04,24.14-2.6
				c18.79-7.33,26.59,7.33,35.75,18.18c11.31,13.6,22.31,68.6,22.31,87.09s-15.89,51.95-37.59,80.68
				c-21.7,28.73-46.76,25.67-46.76,25.67s-38.5-3.06-56.08-20.02C671.42,194.59,649.57,126.45,648.96,113.61z"/>
			<path class="st2" d="M660.26,113.61c0,0,27.81-52.41,84.34-61.73c0.46,0.46,48.89-2.6,81.29,68.45
				c0.46,0-34.38,57.14-65.24,68.91c0,0-30.86,10.85-56.53-5.2C703.96,183.59,668.06,146.62,660.26,113.61z"/>
		</g>
		<path class="st2" d="M743.08,176.41c0,0-26.89-4.43-34.53,0c-2.44,2.44-7.33,6.11-4.58,7.64c2.75,1.53,21.54,11.77,39.12,8.4
			C743.69,192.45,743.08,176.41,743.08,176.41z"/>
		<path class="st2" d="M745.67,174.42l34.07,2.75c0,0-18.64,15.74-34.07,15.13C743.08,192.61,745.67,174.42,745.67,174.42z"/>
		<path class="st2" d="M706.1,70.22c0,0,17.11,2.44,15.74-4.43c-0.61-3.36,0.15-7.95-6.11-4.58c-6.26,3.21-12.22,6.88-12.22,6.88
			S702.28,72.05,706.1,70.22z"/>
		<path class="st2" d="M747.05,54.02c0,0,4.58,11.46-7.79,13.14c-0.61,0-11.92,2.75-17.42,0.15c-0.15,0.46,1.22-9.32,1.53-9.47
			c2.6-1.07,20.93-4.58,20.93-4.58L747.05,54.02z"/>
		<path class="st2" d="M771.19,62.43c0,0,3.21,7.79-13.45,6.11c-16.5-1.68-9.78-5.35-9.78-8.1c0-3.06-3.06-6.88,3.36-7.79
			C758.05,51.58,769.05,57.69,771.19,62.43z"/>
		<path class="st2" d="M786.62,72.66c0,0-20.47,3.06-15.13-13.9c0.46,0.15,15.59,9.32,18.49,11.92
			C792.89,73.27,786.62,72.66,786.62,72.66z"/>
	</g>
	<rect x="692.65" y="109.79" class="st3" width="117.5" height="55.46"/>
	<text transform="matrix(1 0 0 1 676.9067 137.5098)" class="st4 st5">LAJA</text>
	<g class="st0">
		<g>
			<path class="st7" d="M568.53,21.48c-33.61,5.81-63.26,35.6-87.25,58.37c-25.52,24.14-52.56,50.88-64.63,84.65
				c-5.81,16.2,15.89,25.67,27.04,15.74c54.24-48.44,109.71-109.4,177.85-137.36c-6.11-2.44-12.22-4.89-18.18-7.49
				c1.83,3.97-35.91,46.14-39.73,50.73c-15.43,18.79-31.78,36.67-48.89,53.94c8.56,6.42,16.96,12.99,25.36,19.56
				c15.28-23.99,39.88-63.87,67.84-75.94c-8.1-4.58-16.2-9.32-24.29-13.9c-2.75,24.75-23.68,52.41-35.91,73.34
				c-12.83,21.85-25.36,43.55-36.21,66.31c-7.64,15.89,11.61,33.16,25.36,19.56c15.28-15.13,28.73-31.63,43.7-47.06
				c5.2-5.35,21.85-24.14,27.2-23.53c8.71,0.92-2.75,46.3-3.97,51.8c-4.89,20.17,26.28,28.88,31.17,8.56
				c5.65-23.22,24.6-97.64-19.1-98.4c-38.96-0.61-78.38,62.49-101.91,85.72c8.4,6.57,16.96,12.99,25.36,19.56
				c23.38-49.05,70.29-100.84,76.55-156c1.53-13.6-14.52-18.18-24.29-13.9c-32.85,14.21-60.66,58.21-79.3,87.55
				c-9.93,15.58,12.53,32.55,25.36,19.56c27.5-27.66,52.56-57.3,75.94-88.47c12.68-16.96,27.04-34.23,17.72-55.46
				c-2.6-5.81-12.22-9.93-18.18-7.49c-74.41,30.56-133.39,93.2-192.21,145.77c9.01,5.19,18.03,10.54,27.04,15.74
				c9.93-27.66,35.45-50.57,56.38-70.29c19.86-18.79,44.92-45.07,73.04-49.96C597.56,49.13,589,17.96,568.53,21.48L568.53,21.48z"/>
		</g>
	</g>
	<g>
		<g>
			<path class="st2" d="M443.85,113.61c0,0,30.41-78.69,47.37-88.01s40.95-7.79,50.88-3.06c0-0.46,4.58,5.04,24.14-2.6
				c18.79-7.33,26.59,7.33,35.75,18.18c11.31,13.6,22.31,68.6,22.31,87.09s-15.89,51.95-37.59,80.68
				c-21.7,28.73-46.75,25.67-46.75,25.67s-38.5-3.06-56.08-20.02S444.46,126.45,443.85,113.61z"/>
			<path class="st2" d="M455.16,113.61c0,0,27.81-52.41,84.34-61.73c0.46,0.46,48.89-2.6,81.29,68.45
				c0.46,0-34.38,57.14-65.24,68.91c0,0-30.86,10.85-56.53-5.2C498.85,183.59,462.95,146.62,455.16,113.61z"/>
		</g>
		<path class="st2" d="M537.97,176.41c0,0-26.89-4.43-34.53,0c-2.44,2.44-7.33,6.11-4.58,7.64c2.75,1.53,21.54,11.77,39.12,8.4
			C538.58,192.45,537.97,176.41,537.97,176.41z"/>
		<path class="st2" d="M540.57,174.42l34.07,2.75c0,0-18.64,15.74-34.07,15.13C537.97,192.61,540.57,174.42,540.57,174.42z"/>
		<path class="st2" d="M500.99,70.22c0,0,17.11,2.44,15.74-4.43c-0.61-3.36,0.15-7.95-6.11-4.58c-6.26,3.21-12.22,6.88-12.22,6.88
			S497.17,72.05,500.99,70.22z"/>
		<path class="st2" d="M541.94,54.02c0,0,4.58,11.46-7.79,13.14c-0.61,0-11.92,2.75-17.42,0.15c-0.15,0.46,1.22-9.32,1.53-9.47
			c2.6-1.07,20.93-4.58,20.93-4.58L541.94,54.02z"/>
		<path class="st2" d="M566.08,62.43c0,0,3.21,7.79-13.45,6.11c-16.5-1.68-9.78-5.35-9.78-8.1c0-3.06-3.06-6.88,3.36-7.79
			C552.94,51.58,563.94,57.69,566.08,62.43z"/>
		<path class="st2" d="M581.52,72.66c0,0-20.47,3.06-15.13-13.9c0.46,0.15,15.59,9.32,18.49,11.92
			C587.78,73.27,581.52,72.66,581.52,72.66z"/>
	</g>
	<rect x="487.55" y="109.79" class="st3" width="117.5" height="55.46"/>
	<text transform="matrix(1 0 0 1 471.7876 137.5098)" class="st4 st5">LAJA</text>
	<g>
		<g>
			<path class="st6" d="M364.17,19.17c-33.61,5.81-63.26,35.6-87.25,58.37c-25.52,24.14-52.56,50.88-64.63,84.65
				c-5.81,16.2,15.89,25.67,27.04,15.74c54.24-48.44,109.71-109.4,177.85-137.36c-6.11-2.44-12.22-4.89-18.18-7.49
				c1.83,3.97-35.91,46.14-39.73,50.73c-15.43,18.79-31.78,36.67-48.89,53.94c8.56,6.42,16.96,12.99,25.36,19.56
				c15.28-23.99,39.88-63.87,67.84-75.94c-8.1-4.58-16.2-9.32-24.29-13.9c-2.75,24.75-23.68,52.41-35.91,73.34
				c-12.83,21.85-25.36,43.55-36.21,66.31c-7.64,15.89,11.61,33.16,25.36,19.56c15.28-15.13,28.73-31.63,43.7-47.06
				c5.19-5.35,21.85-24.14,27.2-23.53c8.71,0.92-2.75,46.3-3.97,51.8c-4.89,20.17,26.28,28.88,31.17,8.56
				c5.65-23.22,24.6-97.64-19.1-98.4c-38.96-0.61-78.38,62.49-101.91,85.72c8.4,6.57,16.96,12.99,25.36,19.56
				c23.38-49.05,70.29-100.84,76.55-156c1.53-13.6-14.52-18.18-24.29-13.9c-32.85,14.21-60.66,58.21-79.3,87.55
				c-9.93,15.58,12.53,32.55,25.36,19.56c27.5-27.66,52.56-57.3,75.94-88.47c12.68-16.96,27.04-34.23,17.72-55.46
				c-2.6-5.81-12.22-9.93-18.18-7.49c-74.41,30.56-133.39,93.2-192.21,145.77c9.01,5.19,18.03,10.54,27.04,15.74
				c9.93-27.66,35.45-50.57,56.38-70.29c19.86-18.79,44.92-45.07,73.04-49.96C393.2,46.82,384.64,15.65,364.17,19.17L364.17,19.17z"
				/>
		</g>
	</g>
	<g>
		<g>
			<path class="st2" d="M239.49,111.3c0,0,30.41-78.69,47.37-88.01s40.95-7.79,50.88-3.06c0-0.46,4.58,5.04,24.14-2.6
				c18.79-7.33,26.59,7.33,35.75,18.18c11.31,13.6,22.31,68.6,22.31,87.09s-15.89,51.95-37.59,80.68
				c-21.7,28.73-46.75,25.67-46.75,25.67s-38.5-3.06-56.08-20.02S240.1,124.14,239.49,111.3z"/>
			<path class="st2" d="M250.8,111.3c0,0,27.81-52.41,84.34-61.73c0.46,0.46,48.89-2.6,81.29,68.45c0.46,0-34.38,57.14-65.24,68.91
				c0,0-30.86,10.85-56.53-5.2C294.49,181.28,258.59,144.3,250.8,111.3z"/>
		</g>
		<path class="st2" d="M333.61,174.1c0,0-26.89-4.43-34.53,0c-2.44,2.44-7.33,6.11-4.58,7.64c2.75,1.53,21.54,11.77,39.12,8.4
			C334.22,190.14,333.61,174.1,333.61,174.1z"/>
		<path class="st2" d="M336.21,172.11l34.07,2.75c0,0-18.64,15.74-34.07,15.13C333.61,190.29,336.21,172.11,336.21,172.11z"/>
		<path class="st2" d="M296.63,67.91c0,0,17.11,2.44,15.74-4.43c-0.61-3.36,0.15-7.95-6.11-4.58c-6.26,3.21-12.22,6.88-12.22,6.88
			S292.81,69.74,296.63,67.91z"/>
		<path class="st2" d="M337.58,51.71c0,0,4.58,11.46-7.79,13.14c-0.61,0-11.92,2.75-17.42,0.15c-0.15,0.46,1.22-9.32,1.53-9.47
			c2.6-1.07,20.93-4.58,20.93-4.58L337.58,51.71z"/>
		<path class="st2" d="M361.72,60.11c0,0,3.21,7.79-13.45,6.11c-16.5-1.68-9.78-5.35-9.78-8.1c0-3.06-3.06-6.88,3.36-7.79
			C348.58,49.27,359.58,55.38,361.72,60.11z"/>
		<path class="st2" d="M377.16,70.35c0,0-20.47,3.06-15.13-13.9c0.46,0.15,15.58,9.32,18.49,11.92
			C383.42,70.96,377.16,70.35,377.16,70.35z"/>
	</g>
	<rect x="283.19" y="107.48" class="st3" width="117.5" height="55.46"/>
	<text transform="matrix(1 0 0 1 267.4087 135.207)" class="st4 st5">LAJA</text>
	<g class="st0">
		<g>
			<path class="st1" d="M1416.22,21.48c-33.61,5.81-63.26,35.6-87.25,58.37c-25.52,24.14-52.56,50.88-64.63,84.65
				c-5.81,16.2,15.89,25.67,27.04,15.74c54.24-48.44,109.71-109.4,177.85-137.36c-6.11-2.44-12.22-4.89-18.18-7.49
				c1.83,3.97-35.91,46.14-39.73,50.73c-15.43,18.79-31.78,36.67-48.89,53.94c8.56,6.42,16.96,12.99,25.36,19.56
				c15.28-23.99,39.88-63.87,67.84-75.94c-8.1-4.58-16.2-9.32-24.29-13.9c-2.75,24.75-23.68,52.41-35.91,73.34
				c-12.83,21.85-25.36,43.55-36.21,66.31c-7.64,15.89,11.61,33.16,25.36,19.56c15.28-15.13,28.73-31.63,43.7-47.06
				c5.19-5.35,21.85-24.14,27.2-23.53c8.71,0.92-2.75,46.3-3.97,51.8c-4.89,20.17,26.28,28.88,31.17,8.56
				c5.65-23.22,24.6-97.64-19.1-98.4c-38.96-0.61-78.38,62.49-101.91,85.72c8.4,6.57,16.96,12.99,25.36,19.56
				c23.38-49.05,70.29-100.84,76.55-156c1.53-13.6-14.52-18.18-24.29-13.9c-32.85,14.21-60.66,58.21-79.3,87.55
				c-9.93,15.58,12.53,32.55,25.36,19.56c27.5-27.66,52.56-57.3,75.94-88.47c12.68-16.96,27.04-34.23,17.72-55.46
				c-2.6-5.81-12.22-9.93-18.18-7.49c-74.41,30.56-133.39,93.2-192.21,145.77c9.01,5.19,18.03,10.54,27.04,15.74
				c9.93-27.66,35.45-50.57,56.38-70.29c19.86-18.79,44.92-45.07,73.04-49.96C1445.25,49.13,1436.69,17.96,1416.22,21.48
				L1416.22,21.48z"/>
		</g>
	</g>
	<g>
		<g>
			<path class="st2" d="M1291.54,113.61c0,0,30.41-78.69,47.37-88.01c16.96-9.32,40.95-7.79,50.88-3.06c0-0.46,4.58,5.04,24.14-2.6
				c18.79-7.33,26.59,7.33,35.75,18.18c11.31,13.6,22.31,68.6,22.31,87.09s-15.89,51.95-37.59,80.68
				c-21.7,28.73-46.75,25.67-46.75,25.67s-38.5-3.06-56.08-20.02C1314,194.59,1292.15,126.45,1291.54,113.61z"/>
			<path class="st2" d="M1302.84,113.61c0,0,27.81-52.41,84.34-61.73c0.46,0.46,48.89-2.6,81.29,68.45
				c0.46,0-34.38,57.14-65.24,68.91c0,0-30.86,10.85-56.53-5.2C1346.54,183.59,1310.64,146.62,1302.84,113.61z"/>
		</g>
		<path class="st2" d="M1385.66,176.41c0,0-26.89-4.43-34.53,0c-2.44,2.44-7.33,6.11-4.58,7.64c2.75,1.53,21.54,11.77,39.12,8.4
			C1386.27,192.45,1385.66,176.41,1385.66,176.41z"/>
		<path class="st2" d="M1388.26,174.42l34.07,2.75c0,0-18.64,15.74-34.07,15.13C1385.66,192.61,1388.26,174.42,1388.26,174.42z"/>
		<path class="st2" d="M1348.68,70.22c0,0,17.11,2.44,15.74-4.43c-0.61-3.36,0.15-7.95-6.11-4.58c-6.26,3.21-12.22,6.88-12.22,6.88
			S1344.86,72.05,1348.68,70.22z"/>
		<path class="st2" d="M1389.63,54.02c0,0,4.58,11.46-7.79,13.14c-0.61,0-11.92,2.75-17.42,0.15c-0.15,0.46,1.22-9.32,1.53-9.47
			c2.6-1.07,20.93-4.58,20.93-4.58L1389.63,54.02z"/>
		<path class="st2" d="M1413.77,62.43c0,0,3.21,7.79-13.45,6.11c-16.5-1.68-9.78-5.35-9.78-8.1c0-3.06-3.06-6.88,3.36-7.79
			C1400.63,51.58,1411.63,57.69,1413.77,62.43z"/>
		<path class="st2" d="M1429.2,72.66c0,0-20.47,3.06-15.13-13.9c0.46,0.15,15.58,9.32,18.49,11.92
			C1435.47,73.27,1429.2,72.66,1429.2,72.66z"/>
	</g>
	<rect x="1335.24" y="109.79" class="st3" width="117.5" height="55.46"/>
	<text transform="matrix(1 0 0 1 1319.4785 137.5098)" class="st4 st5">LAJA</text>
	<g class="st0">
		<g>
			<path class="st7" d="M1214.1,12.68c-33.61,5.81-63.26,35.6-87.25,58.37c-25.52,24.14-52.56,50.88-64.63,84.65
				c-5.81,16.2,15.89,25.67,27.04,15.74c54.24-48.44,109.71-109.4,177.85-137.36c-6.11-2.44-12.22-4.89-18.18-7.49
				c1.83,3.97-35.91,46.14-39.73,50.73c-15.43,18.79-31.78,36.67-48.89,53.94c8.56,6.42,16.96,12.99,25.36,19.56
				c15.28-23.99,39.88-63.87,67.84-75.94c-8.1-4.58-16.2-9.32-24.29-13.9c-2.75,24.75-23.68,52.41-35.91,73.34
				c-12.83,21.85-25.36,43.55-36.21,66.31c-7.64,15.89,11.61,33.16,25.36,19.56c15.28-15.13,28.73-31.63,43.7-47.06
				c5.2-5.35,21.85-24.14,27.2-23.53c8.71,0.92-2.75,46.3-3.97,51.8c-4.89,20.17,26.28,28.88,31.17,8.56
				c5.65-23.22,24.6-97.64-19.1-98.4c-38.96-0.61-78.38,62.49-101.91,85.72c8.4,6.57,16.96,12.99,25.36,19.56
				c23.38-49.05,70.29-100.84,76.55-156c1.53-13.6-14.52-18.18-24.29-13.9c-32.85,14.21-60.66,58.21-79.3,87.55
				c-9.93,15.58,12.53,32.55,25.36,19.56c27.5-27.66,52.56-57.3,75.94-88.47c12.68-16.96,27.04-34.23,17.72-55.46
				c-2.6-5.81-12.22-9.93-18.18-7.49c-74.41,30.56-133.39,93.2-192.21,145.77c9.01,5.2,18.03,10.54,27.04,15.74
				c9.93-27.66,35.45-50.57,56.38-70.29c19.86-18.79,44.92-45.07,73.04-49.96C1243.13,40.33,1234.58,9.16,1214.1,12.68L1214.1,12.68
				z"/>
		</g>
	</g>
	<g>
		<g>
			<path class="st2" d="M1089.42,104.81c0,0,30.41-78.69,47.37-88.01c16.96-9.32,40.95-7.79,50.88-3.06c0-0.46,4.58,5.04,24.14-2.6
				c18.79-7.33,26.59,7.33,35.75,18.18c11.31,13.6,22.31,68.6,22.31,87.09s-15.89,51.95-37.59,80.68s-46.76,25.67-46.76,25.67
				s-38.5-3.06-56.08-20.02S1090.03,117.64,1089.42,104.81z"/>
			<path class="st2" d="M1100.73,104.81c0,0,27.81-52.41,84.34-61.73c0.46,0.46,48.89-2.6,81.29,68.45
				c0.46,0-34.38,57.14-65.24,68.91c0,0-30.86,10.85-56.53-5.2C1144.43,174.79,1108.52,137.81,1100.73,104.81z"/>
		</g>
		<path class="st2" d="M1183.54,167.61c0,0-26.89-4.43-34.53,0c-2.44,2.44-7.33,6.11-4.58,7.64c2.75,1.53,21.54,11.77,39.12,8.4
			C1184.16,183.65,1183.54,167.61,1183.54,167.61z"/>
		<path class="st2" d="M1186.14,165.62l34.07,2.75c0,0-18.64,15.74-34.07,15.13C1183.54,183.8,1186.14,165.62,1186.14,165.62z"/>
		<path class="st2" d="M1146.57,61.42c0,0,17.11,2.44,15.74-4.43c-0.61-3.36,0.15-7.95-6.11-4.58c-6.26,3.21-12.22,6.88-12.22,6.88
			S1142.75,63.25,1146.57,61.42z"/>
		<path class="st2" d="M1187.52,45.22c0,0,4.58,11.46-7.79,13.14c-0.61,0-11.92,2.75-17.42,0.15c-0.15,0.46,1.22-9.32,1.53-9.47
			c2.6-1.07,20.93-4.58,20.93-4.58L1187.52,45.22z"/>
		<path class="st2" d="M1211.66,53.62c0,0,3.21,7.79-13.45,6.11c-16.5-1.68-9.78-5.35-9.78-8.1c0-3.06-3.06-6.88,3.36-7.79
			C1198.52,42.78,1209.52,48.89,1211.66,53.62z"/>
		<path class="st2" d="M1227.09,63.86c0,0-20.47,3.06-15.13-13.9c0.46,0.15,15.58,9.32,18.49,11.92
			C1233.36,64.47,1227.09,63.86,1227.09,63.86z"/>
	</g>
	<rect x="1133.12" y="100.99" class="st3" width="117.5" height="55.46"/>
	<text transform="matrix(1 0 0 1 1117.4082 128.6963)" class="st4 st5">LAJA</text>
	<g class="st0">
		<g>
			<path class="st7" d="M1844.58,31.66c-33.61,5.81-63.26,35.6-87.25,58.37c-25.52,24.14-52.56,50.88-64.63,84.65
				c-5.81,16.2,15.89,25.67,27.04,15.74c54.24-48.44,109.71-109.4,177.85-137.36c-6.11-2.44-12.22-4.89-18.18-7.49
				c1.83,3.97-35.91,46.14-39.73,50.73c-15.43,18.79-31.78,36.67-48.89,53.94c8.56,6.42,16.96,12.99,25.36,19.56
				c15.28-23.99,39.88-63.87,67.84-75.94c-8.1-4.58-16.2-9.32-24.29-13.9c-2.75,24.75-23.68,52.41-35.91,73.34
				c-12.83,21.85-25.36,43.55-36.21,66.31c-7.64,15.89,11.61,33.16,25.36,19.56c15.28-15.13,28.73-31.63,43.7-47.06
				c5.2-5.35,21.85-24.14,27.2-23.53c8.71,0.92-2.75,46.3-3.97,51.8c-4.89,20.17,26.28,28.88,31.17,8.56
				c5.65-23.22,24.6-97.64-19.1-98.4c-38.96-0.61-78.38,62.49-101.91,85.72c8.4,6.57,16.96,12.99,25.36,19.56
				c23.38-49.05,70.29-100.84,76.55-156c1.53-13.6-14.52-18.18-24.29-13.9c-32.85,14.21-60.66,58.21-79.3,87.55
				c-9.93,15.58,12.53,32.55,25.36,19.56c27.5-27.66,52.56-57.3,75.94-88.47c12.68-16.96,27.04-34.23,17.72-55.46
				c-2.6-5.81-12.22-9.93-18.18-7.49c-74.41,30.56-133.39,93.2-192.21,145.77c9.01,5.2,18.03,10.54,27.04,15.74
				c9.93-27.66,35.45-50.57,56.38-70.29c19.86-18.79,44.92-45.07,73.04-49.96C1873.61,59.31,1865.05,28.14,1844.58,31.66
				L1844.58,31.66z"/>
		</g>
	</g>
	<g>
		<g>
			<path class="st2" d="M1719.9,123.79c0,0,30.41-78.69,47.37-88.01c16.96-9.32,40.95-7.79,50.88-3.06c0-0.46,4.58,5.04,24.14-2.6
				c18.79-7.33,26.59,7.33,35.75,18.18c11.31,13.6,22.31,68.6,22.31,87.09s-15.89,51.95-37.59,80.68S1816,241.75,1816,241.75
				s-38.5-3.06-56.08-20.02S1720.51,136.62,1719.9,123.79z"/>
			<path class="st2" d="M1731.2,123.79c0,0,27.81-52.41,84.34-61.73c0.46,0.46,48.89-2.6,81.29,68.45
				c0.46,0-34.38,57.14-65.24,68.91c0,0-30.86,10.85-56.53-5.19C1774.9,193.77,1739,156.79,1731.2,123.79z"/>
		</g>
		<path class="st2" d="M1814.02,186.59c0,0-26.89-4.43-34.53,0c-2.44,2.44-7.33,6.11-4.58,7.64c2.75,1.53,21.54,11.77,39.12,8.4
			C1814.63,202.63,1814.02,186.59,1814.02,186.59z"/>
		<path class="st2" d="M1816.62,184.6l34.07,2.75c0,0-18.64,15.74-34.07,15.13C1814.02,202.78,1816.62,184.6,1816.62,184.6z"/>
		<path class="st2" d="M1777.04,80.4c0,0,17.11,2.44,15.74-4.43c-0.61-3.36,0.15-7.95-6.11-4.58c-6.26,3.21-12.22,6.88-12.22,6.88
			S1773.22,82.23,1777.04,80.4z"/>
		<path class="st2" d="M1817.99,64.2c0,0,4.58,11.46-7.79,13.14c-0.61,0-11.92,2.75-17.42,0.15c-0.15,0.46,1.22-9.32,1.53-9.47
			c2.6-1.07,20.93-4.58,20.93-4.58L1817.99,64.2z"/>
		<path class="st2" d="M1842.13,72.6c0,0,3.21,7.79-13.45,6.11c-16.5-1.68-9.78-5.35-9.78-8.1c0-3.06-3.06-6.88,3.36-7.79
			C1828.99,61.76,1839.99,67.87,1842.13,72.6z"/>
		<path class="st2" d="M1857.56,82.84c0,0-20.47,3.06-15.13-13.9c0.46,0.15,15.58,9.32,18.49,11.92
			C1863.83,83.45,1857.56,82.84,1857.56,82.84z"/>
	</g>
	<rect x="1763.6" y="119.97" class="st3" width="117.5" height="55.46"/>
	<text transform="matrix(1 0 0 1 1747.833 147.6855)" class="st4 st5">LAJA</text>
	<g>
		<g>
			<path class="st6" d="M1629.33,25.17c-33.61,5.81-63.26,35.6-87.25,58.37c-25.52,24.14-52.56,50.88-64.63,84.65
				c-5.81,16.2,15.89,25.67,27.04,15.74c54.24-48.44,109.71-109.4,177.85-137.36c-6.11-2.44-12.22-4.89-18.18-7.49
				c1.83,3.97-35.91,46.14-39.73,50.73c-15.43,18.79-31.78,36.67-48.89,53.94c8.56,6.42,16.96,12.99,25.36,19.56
				c15.28-23.99,39.88-63.87,67.84-75.94c-8.1-4.58-16.2-9.32-24.29-13.9c-2.75,24.75-23.68,52.41-35.91,73.34
				c-12.83,21.85-25.36,43.55-36.21,66.31c-7.64,15.89,11.61,33.16,25.36,19.56c15.28-15.13,28.73-31.63,43.7-47.06
				c5.2-5.35,21.85-24.14,27.2-23.53c8.71,0.92-2.75,46.3-3.97,51.8c-4.89,20.17,26.28,28.88,31.17,8.56
				c5.65-23.22,24.6-97.64-19.1-98.4c-38.96-0.61-78.38,62.49-101.91,85.72c8.4,6.57,16.96,12.99,25.36,19.56
				c23.38-49.05,70.29-100.84,76.55-156c1.53-13.6-14.52-18.18-24.29-13.9c-32.85,14.21-60.66,58.21-79.3,87.55
				c-9.93,15.58,12.53,32.55,25.36,19.56c27.5-27.66,52.56-57.3,75.94-88.47c12.68-16.96,27.04-34.23,17.72-55.46
				c-2.6-5.81-12.22-9.93-18.18-7.49c-74.41,30.56-133.39,93.2-192.21,145.77c9.01,5.2,18.03,10.54,27.04,15.74
				c9.93-27.66,35.45-50.57,56.38-70.29c19.86-18.79,44.92-45.07,73.04-49.96C1658.36,52.82,1649.8,21.65,1629.33,25.17
				L1629.33,25.17z"/>
		</g>
	</g>
	<g>
		<g>
			<path class="st2" d="M1504.65,117.3c0,0,30.41-78.69,47.37-88.01c16.96-9.32,40.95-7.79,50.88-3.06c0-0.46,4.58,5.04,24.14-2.6
				c18.79-7.33,26.59,7.33,35.75,18.18c11.31,13.6,22.31,68.6,22.31,87.09s-15.89,51.95-37.59,80.68s-46.76,25.67-46.76,25.67
				s-38.5-3.06-56.08-20.02S1505.26,130.13,1504.65,117.3z"/>
			<path class="st2" d="M1515.95,117.3c0,0,27.81-52.41,84.34-61.73c0.46,0.46,48.89-2.6,81.29,68.45
				c0.46,0-34.38,57.14-65.24,68.91c0,0-30.86,10.85-56.53-5.19C1559.65,187.28,1523.74,150.3,1515.95,117.3z"/>
		</g>
		<path class="st2" d="M1598.77,180.1c0,0-26.89-4.43-34.53,0c-2.44,2.44-7.33,6.11-4.58,7.64c2.75,1.53,21.54,11.77,39.12,8.4
			C1599.38,196.14,1598.77,180.1,1598.77,180.1z"/>
		<path class="st2" d="M1601.36,178.11l34.07,2.75c0,0-18.64,15.74-34.07,15.13C1598.77,196.29,1601.36,178.11,1601.36,178.11z"/>
		<path class="st2" d="M1561.79,73.91c0,0,17.11,2.44,15.74-4.43c-0.61-3.36,0.15-7.95-6.11-4.58c-6.26,3.21-12.22,6.88-12.22,6.88
			S1557.97,75.74,1561.79,73.91z"/>
		<path class="st2" d="M1602.74,57.71c0,0,4.58,11.46-7.79,13.14c-0.61,0-11.92,2.75-17.42,0.15c-0.15,0.46,1.22-9.32,1.53-9.47
			c2.6-1.07,20.93-4.58,20.93-4.58L1602.74,57.71z"/>
		<path class="st2" d="M1626.88,66.11c0,0,3.21,7.79-13.45,6.11c-16.5-1.68-9.78-5.35-9.78-8.1c0-3.06-3.06-6.88,3.36-7.79
			C1613.74,55.27,1624.74,61.38,1626.88,66.11z"/>
		<path class="st2" d="M1642.31,76.35c0,0-20.47,3.06-15.13-13.9c0.46,0.15,15.59,9.32,18.49,11.92
			C1648.58,76.96,1642.31,76.35,1642.31,76.35z"/>
	</g>
	<rect x="1548.34" y="113.48" class="st3" width="117.5" height="55.46"/>
	<text transform="matrix(1 0 0 1 1532.6006 141.2412)" class="st4 st5">LAJA</text>
</g>
</svg>
